<svg width="50" height="50" viewBox="0 0 50 50" fill="none" xmlns="http://www.w3.org/2000/svg">
<rect width="50" height="50" rx="14" fill="#FFF5E0"/>
<path d="M15.6561 26.1878C15.6561 25.7718 15.7461 25.4018 15.9261 25.0778C16.1061 24.7498 16.3561 24.4958 16.6761 24.3158C17.0001 24.1318 17.3661 24.0398 17.7741 24.0398C18.2741 24.0398 18.7021 24.1718 19.0581 24.4358C19.4141 24.6998 19.6521 25.0598 19.7721 25.5158H18.6441C18.5601 25.3398 18.4401 25.2058 18.2841 25.1138C18.1321 25.0218 17.9581 24.9758 17.7621 24.9758C17.4461 24.9758 17.1901 25.0858 16.9941 25.3058C16.7981 25.5258 16.7001 25.8198 16.7001 26.1878C16.7001 26.5558 16.7981 26.8498 16.9941 27.0698C17.1901 27.2898 17.4461 27.3998 17.7621 27.3998C17.9581 27.3998 18.1321 27.3538 18.2841 27.2618C18.4401 27.1698 18.5601 27.0358 18.6441 26.8598H19.7721C19.6521 27.3158 19.4141 27.6758 19.0581 27.9398C18.7021 28.1998 18.2741 28.3298 17.7741 28.3298C17.3661 28.3298 17.0001 28.2398 16.6761 28.0598C16.3561 27.8758 16.1061 27.6218 15.9261 27.2978C15.7461 26.9738 15.6561 26.6038 15.6561 26.1878ZM22.0444 28.3418C21.7364 28.3418 21.4604 28.2918 21.2164 28.1918C20.9724 28.0918 20.7764 27.9438 20.6284 27.7478C20.4844 27.5518 20.4084 27.3158 20.4004 27.0398H21.4924C21.5084 27.1958 21.5624 27.3158 21.6544 27.3998C21.7464 27.4798 21.8664 27.5198 22.0144 27.5198C22.1664 27.5198 22.2864 27.4858 22.3744 27.4178C22.4624 27.3458 22.5064 27.2478 22.5064 27.1238C22.5064 27.0198 22.4704 26.9338 22.3984 26.8658C22.3304 26.7978 22.2444 26.7418 22.1404 26.6978C22.0404 26.6538 21.8964 26.6038 21.7084 26.5478C21.4364 26.4638 21.2144 26.3798 21.0424 26.2958C20.8704 26.2118 20.7224 26.0878 20.5984 25.9238C20.4744 25.7598 20.4124 25.5458 20.4124 25.2818C20.4124 24.8898 20.5544 24.5838 20.8384 24.3638C21.1224 24.1398 21.4924 24.0278 21.9484 24.0278C22.4124 24.0278 22.7864 24.1398 23.0704 24.3638C23.3544 24.5838 23.5064 24.8918 23.5264 25.2878H22.4164C22.4084 25.1518 22.3584 25.0458 22.2664 24.9698C22.1744 24.8898 22.0564 24.8498 21.9124 24.8498C21.7884 24.8498 21.6884 24.8838 21.6124 24.9518C21.5364 25.0158 21.4984 25.1098 21.4984 25.2338C21.4984 25.3698 21.5624 25.4758 21.6904 25.5518C21.8184 25.6278 22.0184 25.7098 22.2904 25.7978C22.5624 25.8898 22.7824 25.9778 22.9504 26.0618C23.1224 26.1458 23.2704 26.2678 23.3944 26.4278C23.5184 26.5878 23.5804 26.7938 23.5804 27.0458C23.5804 27.2858 23.5184 27.5038 23.3944 27.6998C23.2744 27.8958 23.0984 28.0518 22.8664 28.1678C22.6344 28.2838 22.3604 28.3418 22.0444 28.3418ZM28.2858 24.0878L26.7918 28.2998H25.5078L24.0138 24.0878H25.1058L26.1498 27.2678L27.1998 24.0878H28.2858Z" fill="#FFBF24"/>
<path d="M16 14.5V11.5C16 10.9477 16.4477 10.5 17 10.5H31.5M31.5 10.5L36.5 15M31.5 10.5V14C31.5 14.5523 31.9477 15 32.5 15H36.5M36.5 15V36.5C36.5 37.0523 36.0523 37.5 35.5 37.5H17C16.4477 37.5 16 37.0523 16 36.5V30M16 30H29C29.5523 30 30 29.5523 30 29V23.5C30 22.9477 29.5523 22.5 29 22.5H16M16 30H15.5H14.5C13.9477 30 13.5 29.5523 13.5 29V23.5C13.5 22.9477 13.9477 22.5 14.5 22.5H16M16 22.5V18" stroke="#FFBF24" stroke-linecap="round"/>
</svg>
