<svg xmlns="http://www.w3.org/2000/svg" width="270" height="222" fill="none"><g filter="url(#a)"><rect width="256" height="208" x="7" y="5" fill="url(#b)" rx="16"/><rect width="246.5" height="198.5" x="11.75" y="9.75" stroke="#EBF0FF" stroke-width="1.5" rx="13.25"/><g clip-path="url(#c)"><mask id="d" width="127" height="86" x="-23" y="27" maskUnits="userSpaceOnUse" style="mask-type:alpha"><path fill="#000" d="M15.625 48.25v.112h.047l.032-.032-.079-.08Zm5.25-5.25v-.112h-.047l-.032.032.079.08Zm12.75 0v.112h.04l.031-.025-.071-.087Zm4.125-3.375v-.112h-.04l-.031.025.071.087Zm3.15 0a.6.6 0 1 0 1.2 0 .6.6 0 0 0-1.2 0Zm-59.025 8.737h33.75v-.224h-33.75v.224Zm33.83-.032 5.25-5.25-.16-.16-5.25 5.25.16.16Zm5.17-5.218h12.75v-.224h-12.75v.224Zm12.821-.025 4.125-3.375-.142-.174-4.125 3.375.142.174Zm4.054-3.35h3.75v-.224h-3.75v.224ZM19.375 53.875v.112h.043l.032-.028-.075-.084Zm3.75-3.375v-.112h-.043l-.032.028.075.084Zm12 0v.112h.04l.03-.024-.07-.088Zm3.75-3v-.112h-.04l-.03.024.07.088Zm13.275 0a.6.6 0 1 0 1.2 0 .6.6 0 0 0-1.2 0Zm-61.275 6.487h28.5v-.224h-28.5v.224Zm28.575-.028 3.75-3.375-.15-.168-3.75 3.375.15.168Zm3.675-3.347h12v-.224h-12v.224Zm12.07-.024 3.75-3-.14-.176-3.75 3 .14.176Zm3.68-2.976H52.75v-.224H38.875v.224ZM32.75 61.75a.5.5 0 1 0 1 0 .5.5 0 0 0-1 0Zm5 0 .05-.08-.023-.014h-.027v.094Zm4.125 2.625-.05.08.023.014h.027v-.094Zm4.5 0v.094h.039l.027-.028-.066-.066ZM51.25 59.5v-.094h-.039l-.027.028.066.066Zm8.875 0a.5.5 0 1 0 1 0 .5.5 0 0 0-1 0ZM33.25 61.844h4.5v-.188h-4.5v.188Zm4.45-.015 4.125 2.625.1-.158L37.8 61.67l-.1.158Zm4.175 2.64h4.5v-.188h-4.5v.188Zm4.566-.028 4.875-4.875-.132-.132-4.875 4.875.132.132Zm4.809-4.847h9.375v-.188H51.25v.188ZM27 60.25a1 1 0 1 0 2 0 1 1 0 0 0-2 0Zm5.875 0v.188h.066l.051-.042-.117-.146Zm3.75-3v-.188h-.066l-.051.042.117.146Zm13.875 0v.188h.074l.054-.05-.128-.138ZM56.125 52v-.188h-.074l-.054.05.128.138Zm21.5 0a1 1 0 1 0 2 0 1 1 0 0 0-2 0ZM28 60.438h4.875v-.376H28v.376Zm4.992-.042 3.75-3-.234-.292-3.75 3 .234.292Zm3.633-2.959H50.5v-.374H36.625v.374Zm14.003-.05 5.625-5.25-.256-.274-5.625 5.25.256.274Zm5.497-5.2h22.5v-.374h-22.5v.374ZM23.375 80.5a.5.5 0 1 0 1 0 .5.5 0 0 0-1 0Zm4.25 0v.094h.031l.025-.019-.056-.075Zm4.5-3.375v-.094h-.031l-.025.019.056.075Zm12.75 0v.094h.036l.027-.025-.063-.069Zm4.5-4.125v-.094h-.036l-.027.025.063.069Zm7.375 0a.5.5 0 1 0 1 0 .5.5 0 0 0-1 0Zm-32.875 7.594h3.75v-.188h-3.75v.188Zm3.806-.019 4.5-3.375-.112-.15-4.5 3.375.112.15Zm4.444-3.356h12.75v-.188h-12.75v.188Zm12.813-.025 4.5-4.125-.126-.138-4.5 4.125.126.138Zm4.437-4.1h7.875v-.188h-7.875v.188ZM35 79.75a.5.5 0 1 0 1 0 .5.5 0 0 0-1 0Zm13.25 0v.094h.034l.026-.022-.06-.072Zm2.25-1.875v-.094h-.034l-.026.022.06.072Zm5.625 0v.094h.035l.027-.024-.062-.07ZM62.5 72.25v-.094h-.035l-.027.024.062.07Zm10.75 0a.5.5 0 1 0 1 0 .5.5 0 0 0-1 0ZM35.5 79.844h12.75v-.188H35.5v.188Zm12.81-.022 2.25-1.875-.12-.144-2.25 1.875.12.144Zm2.19-1.853h5.625v-.188H50.5v.188Zm5.687-.024 6.375-5.625-.124-.14-6.375 5.625.124.14Zm6.313-5.601h11.25v-.188H62.5v.188ZM46.7 92.125a.8.8 0 1 0 1.6 0 .8.8 0 0 0-1.6 0Zm16.175 0v.15h.057l.043-.038-.1-.112Zm3.375-3v-.15h-.057l-.043.038.1.112Zm12.375 0v.15h.066l.045-.05-.111-.1ZM82.375 85v-.15h-.066l-.045.05.111.1Zm12.375 0 .101-.11-.043-.04h-.058V85Zm3.7 4.125a.8.8 0 1 0 1.6 0 .8.8 0 0 0-1.6 0Zm-50.95 3.15h15.375v-.3H47.5v.3Zm15.475-.038 3.375-3-.2-.224-3.375 3 .2.224Zm3.275-2.962h12.375v-.3H66.25v.3Zm12.486-.05 3.75-4.124-.222-.202-3.75 4.125.222.202Zm3.639-4.075H94.75v-.3H82.375v.3Zm12.274-.04 4.5 4.126.202-.222-4.5-4.125-.202.222ZM25 91l.101-.11-.043-.04H25V91Zm4.5 4.125-.101.11.043.04h.058v-.15Zm2.95 0a.8.8 0 1 0 1.6 0 .8.8 0 0 0-1.6 0Zm-55.075-3.975H25v-.3h-47.625v.3Zm47.524-.04 4.5 4.126.202-.222-4.5-4.125-.202.222Zm4.601 4.165h3.75v-.3H29.5v.3Zm-15.375 6.975v.094h.026l.023-.014-.049-.08Zm6.75-4.125v-.094h-.026l-.023.014.049.08Zm5.5 0a.5.5 0 1 0 1 0 .5.5 0 0 0-1 0Zm-49 4.219h36.75v-.188h-36.75v.188Zm36.799-.014 6.75-4.125-.098-.16-6.75 4.125.098.16Zm6.701-4.111h6v-.188h-6v.188ZM19 109v.094h.034l.026-.022L19 109Zm18.375-15.375v-.094h-.034l-.026.022.06.072Zm28.125 0 .05-.08-.023-.014H65.5v.094Zm10.875 6.75-.05.08.023.014h.027v-.094Zm5.875 0a.5.5 0 1 0 1 0 .5.5 0 0 0-1 0Zm-104.875 8.719H19v-.188h-41.625v.188Zm41.685-.022 18.375-15.375-.12-.144-18.375 15.375.12.144Zm18.315-15.353H65.5v-.188H37.375v.188Zm28.076-.014 10.875 6.75.098-.16-10.875-6.75-.098.16Zm10.924 6.764h6.375v-.188h-6.375v.188ZM19.75 112v.319h.126l.092-.086-.218-.233Zm6-5.625v-.319h-.126l-.092.086.218.233Zm12.75 0v.319h.106l.085-.064-.191-.255Zm9-6.75v-.319h-.106l-.085.064.191.255Zm11.05 0a1.7 1.7 0 1 0 3.4 0 1.7 1.7 0 0 0-3.4 0ZM-23 112.319h42.75v-.638H-23v.638Zm42.968-.086 6-5.625-.436-.466-6 5.625.436.466Zm5.782-5.539H38.5v-.638H25.75v.638Zm12.941-.064 9-6.75-.382-.51-9 6.75.382.51Zm8.809-6.686h12.75v-.638H47.5v.638ZM31 83.5l.212-.309-.096-.066H31v.375Zm6 4.125-.212.309.096.066H37v-.375Zm13.5 0V88h.148l.108-.101-.256-.274Zm12-11.25V76h-.148l-.108.101.256.274Zm13.375 0a2 2 0 1 0 4 0 2 2 0 0 0-4 0ZM-23 83.875h54v-.75h-54v.75Zm53.788-.066 6 4.125.424-.618-6-4.125-.424.618ZM37 88h13.5v-.75H37V88Zm13.757-.101 12-11.25-.514-.548-12 11.25.514.548ZM62.5 76.75h15.375V76H62.5v.75ZM-1.25 56.875l.183-.214-.079-.067h-.104v.281Zm5.25 4.5-.183.214.079.067H4v-.281Zm15 0v.281h.109l.08-.073-.189-.208Zm8.25-7.5v-.281h-.109l-.08.073.189.208Zm13.875 0a1.5 1.5 0 1 0 3 0 1.5 1.5 0 0 0-3 0ZM-23 57.156h21.75v-.562H-23v.562Zm21.567-.067 5.25 4.5.366-.428-5.25-4.5-.366.428ZM4 61.656h15v-.562H4v.562Zm15.19-.073 8.25-7.5-.38-.416-8.25 7.5.38.416Zm8.06-7.427h15.375v-.562H27.25v.562ZM19.75 28l.233-.218-.095-.1h-.138V28ZM25 33.625l-.233.218.095.1H25v-.318Zm13.5 0 .204-.245-.089-.074H38.5v.319Zm9 7.5-.204.245.089.074h.115v-.319Zm11.05 0a1.7 1.7 0 1 0 3.4 0 1.7 1.7 0 0 0-3.4 0ZM-23 28.319h42.75v-.638H-23v.638Zm42.517-.101 5.25 5.625.466-.436-5.25-5.624-.466.434ZM25 33.944h13.5v-.638H25v.638Zm13.296-.074 9 7.5.408-.49-9-7.5-.408.49Zm9.204 7.574h12.75v-.638H47.5v.638ZM13 64l.104-.156-.047-.032H13V64Zm3.375 2.25-.104.156.047.031h.057v-.187Zm43.125 0v.188h.072l.053-.049-.125-.139ZM67 59.5v-.188h-.072l-.053.049.125.139Zm16.5 0v.188h.043l.038-.019-.081-.169Zm8.625-4.125v-.188h-.043l-.038.019.081.169Zm9.125 0a1 1 0 1 0 2 0 1 1 0 0 0-2 0ZM-23 64.188h36v-.376h-36v.376Zm35.896-.032 3.375 2.25.208-.312-3.375-2.25-.208.312Zm3.479 2.281H59.5v-.374H16.375v.374Zm43.25-.048 7.5-6.75-.25-.278-7.5 6.75.25.278ZM67 59.688h16.5v-.376H67v.376Zm16.58-.019 8.626-4.125-.162-.338-8.625 4.125.162.338Zm8.545-4.106h10.125v-.376H92.125v.376ZM56 85a.5.5 0 1 0 1 0 .5.5 0 0 0-1 0Zm2.75 0v.094h.039l.027-.028L58.75 85Zm6.75-6.75v-.094h-.039l-.027.028.066.066Zm7.875 0 .078-.052-.028-.042h-.05v.094Zm1.5 2.25-.078.052.028.042h.05V80.5Zm6.25 0a.5.5 0 1 0 1 0 .5.5 0 0 0-1 0ZM56.5 85.094h2.25v-.188H56.5v.188Zm2.316-.028 6.75-6.75-.132-.132-6.75 6.75.132.132Zm6.684-6.722h7.875v-.188H65.5v.188Zm7.797-.042 1.5 2.25.156-.104-1.5-2.25-.156.104Zm1.578 2.292h6.75v-.188h-6.75v.188Z"/></mask><g mask="url(#d)"><path fill="url(#e)" d="M12 17h95v111H12z"/></g></g><g clip-path="url(#f)"><mask id="g" width="127" height="86" x="166" y="21" maskUnits="userSpaceOnUse" style="mask-type:alpha"><path fill="#000" d="M254.375 85.75v-.112h-.047l-.033.032.08.08Zm-5.25 5.25v.112h.047l.033-.032-.08-.08Zm-12.75 0v-.112h-.04l-.031.025.071.087Zm-4.125 3.375v.112h.04l.031-.025-.071-.087Zm-3.15 0a.6.6 0 1 0-1.2 0 .6.6 0 0 0 1.2 0Zm59.025-8.737h-33.75v.224h33.75v-.224Zm-33.83.032-5.25 5.25.16.16 5.25-5.25-.16-.16Zm-5.17 5.218h-12.75v.224h12.75v-.224Zm-12.821.025-4.125 3.375.142.174 4.125-3.375-.142-.174Zm-4.054 3.35h-3.75v.224h3.75v-.224Zm18.375-14.138v-.112h-.043l-.032.028.075.084Zm-3.75 3.375v.112h.043l.032-.028-.075-.084Zm-12 0v-.112h-.039l-.031.024.07.088Zm-3.75 3v.112h.039l.031-.024-.07-.088Zm-13.275 0a.6.6 0 1 0-1.2 0 .6.6 0 0 0 1.2 0Zm61.275-6.487h-28.5v.224h28.5v-.224Zm-28.575.028-3.75 3.375.15.168 3.75-3.375-.15-.168Zm-3.675 3.347h-12v.224h12v-.224Zm-12.07.024-3.75 3 .14.176 3.75-3-.14-.176Zm-3.68 2.975H217.25v.225h13.875v-.224Zm6.125-14.137a.5.5 0 1 0-1 0 .5.5 0 0 0 1 0Zm-5 0-.05.08.023.014h.027v-.094Zm-4.125-2.625.05-.08-.023-.014h-.027v.094Zm-4.5 0v-.094h-.039l-.027.028.066.066ZM218.75 74.5v.094h.039l.027-.028-.066-.066Zm-8.875 0a.5.5 0 1 0-1 0 .5.5 0 0 0 1 0Zm26.875-2.344h-4.5v.188h4.5v-.188Zm-4.45.015-4.125-2.625-.1.158 4.125 2.625.1-.158Zm-4.175-2.64h-4.5v.188h4.5v-.188Zm-4.566.028-4.875 4.875.132.132 4.875-4.875-.132-.132Zm-4.809 4.847h-9.375v.188h9.375v-.188ZM243 73.75a1 1 0 1 0-2 0 1 1 0 0 0 2 0Zm-5.875 0v-.188h-.066l-.051.042.117.146Zm-3.75 3v.188h.066l.051-.042-.117-.146Zm-13.875 0v-.188h-.074l-.054.05.128.138ZM213.875 82v.188h.074l.054-.05-.128-.138Zm-21.5 0a1 1 0 1 0-2 0 1 1 0 0 0 2 0ZM242 73.562h-4.875v.376H242v-.376Zm-4.992.042-3.75 3 .234.292 3.75-3-.234-.292Zm-3.633 2.959H219.5v.374h13.875v-.374Zm-14.003.05-5.625 5.25.256.274 5.625-5.25-.256-.274Zm-5.497 5.2h-22.5v.374h22.5v-.374Zm32.75-28.313a.5.5 0 1 0-1 0 .5.5 0 0 0 1 0Zm-4.25 0v-.094h-.031l-.025.019.056.075Zm-4.5 3.375v.094h.031l.025-.019-.056-.075Zm-12.75 0v-.094h-.036l-.027.025.063.069Zm-4.5 4.125v.094h.036l.027-.025-.063-.069Zm-7.375 0a.5.5 0 1 0-1 0 .5.5 0 0 0 1 0Zm32.875-7.594h-3.75v.188h3.75v-.188Zm-3.806.019-4.5 3.375.112.15 4.5-3.375-.112-.15Zm-4.444 3.356h-12.75v.188h12.75v-.188Zm-12.813.025-4.5 4.125.126.138 4.5-4.125-.126-.138Zm-4.437 4.1h-7.875v.188h7.875v-.188ZM235 54.25a.5.5 0 1 0-1 0 .5.5 0 0 0 1 0Zm-13.25 0v-.094h-.034l-.026.022.06.072Zm-2.25 1.875v.094h.034l.026-.022-.06-.072Zm-5.625 0v-.094h-.035l-.027.024.062.07ZM207.5 61.75v.094h.035l.027-.024-.062-.07Zm-10.75 0a.5.5 0 1 0-1 0 .5.5 0 0 0 1 0Zm37.75-7.594h-12.75v.188h12.75v-.188Zm-12.81.022-2.25 1.875.12.144 2.25-1.875-.12-.144Zm-2.19 1.853h-5.625v.188h5.625v-.188Zm-5.687.024-6.375 5.625.124.14 6.375-5.625-.124-.14Zm-6.313 5.601h-11.25v.188h11.25v-.188Zm15.8-19.781a.8.8 0 1 0-1.6 0 .8.8 0 0 0 1.6 0Zm-16.175 0v-.15h-.057l-.043.038.1.112Zm-3.375 3v.15h.057l.043-.038-.1-.112Zm-12.375 0v-.15h-.066l-.045.05.111.1ZM187.625 49v.15h.066l.045-.05-.111-.1Zm-12.375 0-.101.11.043.04h.058V49Zm-3.7-4.125a.8.8 0 1 0-1.6 0 .8.8 0 0 0 1.6 0Zm50.95-3.15h-15.375v.3H222.5v-.3Zm-15.475.038-3.375 3 .2.224 3.375-3-.2-.224Zm-3.275 2.962h-12.375v.3h12.375v-.3Zm-12.486.05-3.75 4.124.222.202 3.75-4.125-.222-.202Zm-3.639 4.075H175.25v.3h12.375v-.3Zm-12.274.04-4.5-4.126-.202.222 4.5 4.125.202-.222ZM245 43l-.101.11.043.04H245V43Zm-4.5-4.125.101-.11-.043-.04h-.058v.15Zm-2.95 0a.8.8 0 1 0-1.6 0 .8.8 0 0 0 1.6 0Zm55.075 3.975H245v.3h47.625v-.3Zm-47.524.04-4.5-4.126-.202.222 4.5 4.125.202-.222Zm-4.601-4.165h-3.75v.3h3.75v-.3Zm15.375-6.975v-.094h-.026l-.023.014.049.08Zm-6.75 4.125v.094h.026l.023-.014-.049-.08Zm-5.5 0a.5.5 0 1 0-1 0 .5.5 0 0 0 1 0Zm49-4.219h-36.75v.188h36.75v-.188Zm-36.799.014-6.75 4.125.098.16 6.75-4.125-.098-.16Zm-6.701 4.111h-6v.188h6v-.188ZM251 25v-.094h-.034l-.026.022.06.072Zm-18.375 15.375v.094h.034l.026-.022-.06-.072Zm-28.125 0-.049.08.022.014h.027v-.094Zm-10.875-6.75.049-.08-.022-.014h-.027v.094Zm-5.875 0a.5.5 0 1 0-1 0 .5.5 0 0 0 1 0Zm104.875-8.719H251v.188h41.625v-.188Zm-41.685.022-18.375 15.375.12.144 18.375-15.375-.12-.144Zm-18.315 15.353H204.5v.188h28.125v-.188Zm-28.076.014-10.875-6.75-.098.16 10.875 6.75.098-.16Zm-10.924-6.764h-6.375v.188h6.375v-.188ZM250.25 22v-.319h-.126l-.092.086.218.233Zm-6 5.625v.319h.126l.092-.086-.218-.233Zm-12.75 0v-.319h-.106l-.085.064.191.255Zm-9 6.75v.319h.106l.085-.064-.191-.255Zm-11.05 0a1.7 1.7 0 1 0-3.4 0 1.7 1.7 0 0 0 3.4 0ZM293 21.681h-42.75v.638H293v-.638Zm-42.968.086-6 5.625.436.466 6-5.625-.436-.466Zm-5.782 5.54H231.5v.637h12.75v-.638Zm-12.941.063-9 6.75.382.51 9-6.75-.382-.51Zm-8.809 6.686h-12.75v.638h12.75v-.638ZM239 50.5l-.212.309.096.066H239V50.5Zm-6-4.125.212-.309-.096-.066H233v.375Zm-13.5 0V46h-.148l-.108.101.256.274Zm-12 11.25V58h.148l.108-.101-.256-.274Zm-13.375 0a2 2 0 1 0-4 0 2 2 0 0 0 4 0Zm98.875-7.5h-54v.75h54v-.75Zm-53.788.066-6-4.125-.424.618 6 4.125.424-.618ZM233 46h-13.5v.75H233V46Zm-13.756.101-12 11.25.512.548 12-11.25-.512-.548ZM207.5 57.25h-15.375V58H207.5v-.75Zm63.75 19.875-.183.213.079.068h.104v-.281Zm-5.25-4.5.183-.213-.079-.068H266v.281Zm-15 0v-.281h-.109l-.08.073.189.208Zm-8.25 7.5v.281h.109l.08-.073-.189-.208Zm-13.875 0a1.5 1.5 0 1 0-3 0 1.5 1.5 0 0 0 3 0ZM293 76.844h-21.75v.562H293v-.562Zm-21.567.068-5.25-4.5-.366.426 5.25 4.5.366-.426ZM266 72.344h-15v.562h15v-.562Zm-15.189.073-8.25 7.5.378.416 8.25-7.5-.378-.416Zm-8.061 7.427h-15.375v.562h15.375v-.562Zm7.5 26.156-.233.217.094.102h.139V106Zm-5.25-5.625.233-.217-.094-.102H245v.319Zm-13.5 0-.204.245.089.074h.115v-.319Zm-9-7.5.204-.245-.089-.074h-.115v.319Zm-11.05 0a1.7 1.7 0 1 0-3.4 0 1.7 1.7 0 0 0 3.4 0ZM293 105.681h-42.75v.638H293v-.638Zm-42.517.102-5.25-5.625-.466.434 5.25 5.625.466-.434ZM245 100.056h-13.5v.638H245v-.638Zm-13.296.074-9-7.5-.408.49 9 7.5.408-.49Zm-9.204-7.574h-12.75v.638h12.75v-.638ZM257 70l-.104.156.047.031H257V70Zm-3.375-2.25.104-.156-.047-.031h-.057v.187Zm-43.125 0v-.188h-.072l-.053.049.125.139ZM203 74.5v.188h.072l.053-.049L203 74.5Zm-16.5 0v-.188h-.043l-.038.019.081.169Zm-8.625 4.125v.188h.043l.038-.019-.081-.169Zm-9.125 0a1 1 0 1 0-2 0 1 1 0 0 0 2 0ZM293 69.812h-36v.376h36v-.376Zm-35.896.032-3.375-2.25-.208.312 3.375 2.25.208-.312Zm-3.479-2.281H210.5v.374h43.125v-.374Zm-43.25.048-7.5 6.75.25.278 7.5-6.75-.25-.278ZM203 74.312h-16.5v.376H203v-.376Zm-16.581.019-8.625 4.125.162.338 8.625-4.125-.162-.338Zm-8.544 4.106H167.75v.376h10.125v-.376ZM214 49a.5.5 0 1 0-1 0 .5.5 0 0 0 1 0Zm-2.75 0v-.094h-.039l-.027.028.066.066Zm-6.75 6.75v.094h.039l.027-.028-.066-.066Zm-7.875 0-.078.052.028.042h.05v-.094Zm-1.5-2.25.078-.052-.028-.042h-.05v.094Zm-6.25 0a.5.5 0 1 0-1 0 .5.5 0 0 0 1 0Zm24.625-4.594h-2.25v.188h2.25v-.188Zm-2.316.028-6.75 6.75.132.132 6.75-6.75-.132-.132Zm-6.684 6.722h-7.875v.188h7.875v-.188Zm-7.797.042-1.5-2.25-.156.104 1.5 2.25.156-.104Zm-1.578-2.292h-6.75v.188h6.75v-.188Z"/></mask><g mask="url(#g)"><path fill="url(#h)" d="M258 117h95v111h-95z" transform="rotate(180 258 117)"/></g></g><path fill="url(#i)" stroke="url(#j)" stroke-width=".5" d="M131.216 100.858c-22.79-6.37-34.457-31.34-28.363-54.484.429-1.63 1.805-2.82 3.461-3.295 4.8-1.374 8.565-3.45 12.118-5.41.79-.437 1.569-.866 2.347-1.282 4.282-2.285 8.542-4.137 14.346-4.137 5.811 0 9.895 1.856 14.033 4.145.674.373 1.351.758 2.036 1.148 3.52 2.004 7.286 4.147 12.31 5.55 1.666.466 3.055 1.66 3.496 3.296 6.614 24.496-6.127 47.116-28.027 54.279-2.509.821-5.217.9-7.757.19Z"/><path fill="url(#k)" stroke="url(#l)" stroke-width=".75" d="M131.809 94.858c-18.608-5.31-28.134-25.895-23.099-44.983.325-1.233 1.369-2.15 2.648-2.515 4.004-1.144 7.142-2.886 10.085-4.52a162.67 162.67 0 0 1 1.902-1.044c3.526-1.895 7.009-3.421 11.758-3.421 4.753 0 8.091 1.529 11.496 3.426.546.303 1.094.617 1.65.936 2.914 1.669 6.053 3.466 10.245 4.635 1.287.358 2.34 1.277 2.675 2.516 5.46 20.2-4.935 38.853-22.831 44.81a11.08 11.08 0 0 1-6.529.16Z"/><path fill="url(#m)" stroke="url(#n)" stroke-width=".75" d="M132.558 88.025c-13.851-4.047-20.95-19.586-17.181-34.01.232-.888.985-1.558 1.919-1.828 3.015-.871 5.379-2.199 7.586-3.438.48-.27.953-.535 1.423-.79 2.639-1.435 5.235-2.584 8.772-2.584 3.54 0 6.026 1.15 8.575 2.586.408.23.818.468 1.234.709 2.186 1.266 4.551 2.636 7.707 3.526.94.265 1.7.936 1.939 1.83 4.086 15.26-3.654 29.345-16.985 33.875a8.297 8.297 0 0 1-4.989.124Z"/><path stroke="#fff" stroke-linecap="round" stroke-width="2.95" d="m126.202 67.217 5.307 5.184c.251.244.65.244.901 0l12.983-12.681"/><path fill="#0084FF" d="M95.308 128.75v-3.536h7.072V150h-3.91v-21.25h-3.162Zm12.397 8.534c0-3.921.657-6.981 1.972-9.18 1.337-2.221 3.627-3.332 6.868-3.332 3.241 0 5.519 1.111 6.834 3.332 1.337 2.199 2.006 5.259 2.006 9.18 0 3.967-.669 7.072-2.006 9.316-1.315 2.221-3.593 3.332-6.834 3.332-3.241 0-5.531-1.111-6.868-3.332-1.315-2.244-1.972-5.349-1.972-9.316Zm13.872 0c0-1.836-.125-3.389-.374-4.658-.227-1.269-.703-2.301-1.428-3.094-.725-.816-1.802-1.224-3.23-1.224s-2.505.408-3.23 1.224c-.725.793-1.213 1.825-1.462 3.094-.227 1.269-.34 2.822-.34 4.658 0 1.904.113 3.502.34 4.794.227 1.292.703 2.335 1.428 3.128.748.793 1.836 1.19 3.264 1.19 1.428 0 2.505-.397 3.23-1.19.748-.793 1.235-1.836 1.462-3.128.227-1.292.34-2.89.34-4.794Zm7.909 0c0-3.921.658-6.981 1.972-9.18 1.338-2.221 3.627-3.332 6.868-3.332 3.242 0 5.52 1.111 6.834 3.332 1.338 2.199 2.006 5.259 2.006 9.18 0 3.967-.668 7.072-2.006 9.316-1.314 2.221-3.592 3.332-6.834 3.332-3.241 0-5.53-1.111-6.868-3.332-1.314-2.244-1.972-5.349-1.972-9.316Zm13.872 0c0-1.836-.124-3.389-.374-4.658-.226-1.269-.702-2.301-1.428-3.094-.725-.816-1.802-1.224-3.23-1.224s-2.504.408-3.23 1.224c-.725.793-1.212 1.825-1.462 3.094-.226 1.269-.34 2.822-.34 4.658 0 1.904.114 3.502.34 4.794.227 1.292.703 2.335 1.428 3.128.748.793 1.836 1.19 3.264 1.19 1.428 0 2.505-.397 3.23-1.19.748-.793 1.236-1.836 1.462-3.128.227-1.292.34-2.89.34-4.794Zm7.298-6.086c0-1.655.476-2.947 1.428-3.876.974-.952 2.221-1.428 3.74-1.428 1.518 0 2.754.476 3.706 1.428.974.929 1.462 2.221 1.462 3.876 0 1.655-.488 2.958-1.462 3.91-.952.952-2.188 1.428-3.706 1.428-1.519 0-2.766-.476-3.74-1.428-.952-.952-1.428-2.255-1.428-3.91Zm20.74-4.862L157.83 150h-3.808l13.566-23.664h3.808Zm-15.572 1.904c-1.428 0-2.142.986-2.142 2.958 0 1.995.714 2.992 2.142 2.992.68 0 1.201-.238 1.564-.714.385-.499.578-1.258.578-2.278 0-1.972-.714-2.958-2.142-2.958Zm8.67 16.864c0-1.655.476-2.947 1.428-3.876.974-.952 2.221-1.428 3.74-1.428 1.496 0 2.72.476 3.672 1.428.974.929 1.462 2.221 1.462 3.876 0 1.655-.488 2.958-1.462 3.91-.952.952-2.176 1.428-3.672 1.428-1.519 0-2.766-.476-3.74-1.428-.952-.952-1.428-2.255-1.428-3.91Zm5.134-2.958c-1.428 0-2.142.986-2.142 2.958 0 1.972.714 2.958 2.142 2.958s2.142-.986 2.142-2.958c0-1.972-.714-2.958-2.142-2.958Z"/><path fill="#666" d="M83.592 176.552c0-.885.181-1.669.544-2.352a4.059 4.059 0 0 1 3.632-2.16 4.01 4.01 0 0 1 1.696.384c.565.245 1.013.576 1.344.992v-4.256h1.84V181h-1.84v-1.328c-.299.427-.715.779-1.248 1.056-.523.277-1.125.416-1.808.416a4.028 4.028 0 0 1-2.112-.576 4.28 4.28 0 0 1-1.504-1.632c-.363-.704-.544-1.499-.544-2.384Zm7.216.032c0-.608-.128-1.136-.384-1.584a2.586 2.586 0 0 0-.976-1.024 2.571 2.571 0 0 0-1.312-.352c-.47 0-.907.117-1.312.352a2.58 2.58 0 0 0-.992 1.008c-.245.437-.368.96-.368 1.568 0 .608.123 1.141.368 1.6.256.459.587.811.992 1.056a2.628 2.628 0 0 0 2.624 0c.405-.235.73-.576.976-1.024.256-.459.384-.992.384-1.6Zm12.316-.208c0 .331-.022.629-.064.896h-6.736c.053.704.314 1.269.784 1.696.47.427 1.045.64 1.728.64.981 0 1.674-.411 2.08-1.232h1.968a4 4 0 0 1-1.456 2c-.694.512-1.558.768-2.592.768-.843 0-1.6-.187-2.272-.56a4.182 4.182 0 0 1-1.568-1.6c-.374-.693-.56-1.493-.56-2.4 0-.907.181-1.701.544-2.384a3.936 3.936 0 0 1 1.552-1.6c.672-.373 1.44-.56 2.304-.56.832 0 1.573.181 2.224.544a3.84 3.84 0 0 1 1.52 1.536c.362.651.544 1.403.544 2.256Zm-1.904-.576c-.011-.672-.251-1.211-.72-1.616-.47-.405-1.05-.608-1.744-.608-.63 0-1.168.203-1.616.608-.448.395-.715.933-.8 1.616h4.88Zm5.523-6.64V181h-1.824v-11.84h1.824Zm3.323 1.856a1.13 1.13 0 0 1-.832-.336 1.13 1.13 0 0 1-.336-.832c0-.331.112-.608.336-.832a1.13 1.13 0 0 1 .832-.336c.32 0 .592.112.816.336.224.224.336.501.336.832 0 .331-.112.608-.336.832a1.11 1.11 0 0 1-.816.336Zm.896 1.168V181h-1.824v-8.816h1.824Zm5.802 7.184 2.496-7.184h1.936l-3.36 8.816h-2.176l-3.344-8.816h1.952l2.496 7.184Zm13.891-2.992c0 .331-.021.629-.064.896h-6.736c.053.704.315 1.269.784 1.696.469.427 1.045.64 1.728.64.981 0 1.675-.411 2.08-1.232h1.968a4 4 0 0 1-1.456 2c-.693.512-1.557.768-2.592.768-.843 0-1.6-.187-2.272-.56a4.185 4.185 0 0 1-1.568-1.6c-.373-.693-.56-1.493-.56-2.4 0-.907.181-1.701.544-2.384a3.936 3.936 0 0 1 1.552-1.6c.672-.373 1.44-.56 2.304-.56.832 0 1.573.181 2.224.544a3.835 3.835 0 0 1 1.52 1.536c.363.651.544 1.403.544 2.256Zm-1.904-.576c-.011-.672-.251-1.211-.72-1.616s-1.051-.608-1.744-.608c-.629 0-1.168.203-1.616.608-.448.395-.715.933-.8 1.616h4.88Zm5.523-2.336a2.824 2.824 0 0 1 1.056-1.04c.448-.256.976-.384 1.584-.384v1.888h-.464c-.715 0-1.259.181-1.632.544-.363.363-.544.992-.544 1.888V181h-1.824v-8.816h1.824v1.28Zm3.709 3.088c0-.885.181-1.669.544-2.352a4.052 4.052 0 0 1 1.504-1.584 4.028 4.028 0 0 1 2.112-.576c.693 0 1.296.139 1.808.416.522.267.938.603 1.248 1.008v-1.28h1.84V181h-1.84v-1.312c-.31.416-.731.763-1.264 1.04-.534.277-1.142.416-1.824.416a3.914 3.914 0 0 1-2.08-.576 4.272 4.272 0 0 1-1.504-1.632c-.363-.704-.544-1.499-.544-2.384Zm7.216.032c0-.608-.128-1.136-.384-1.584a2.593 2.593 0 0 0-.976-1.024 2.574 2.574 0 0 0-1.312-.352c-.47 0-.907.117-1.312.352-.406.224-.736.56-.992 1.008-.246.437-.368.96-.368 1.568 0 .608.122 1.141.368 1.6.256.459.586.811.992 1.056a2.627 2.627 0 0 0 2.624 0c.405-.235.73-.576.976-1.024.256-.459.384-.992.384-1.6Zm6.059-3.088c.31-.427.731-.773 1.264-1.04a3.928 3.928 0 0 1 1.808-.416c.779 0 1.483.187 2.112.56.63.373 1.126.907 1.488 1.6.363.683.544 1.467.544 2.352 0 .885-.181 1.68-.544 2.384a4.116 4.116 0 0 1-1.504 1.632 3.945 3.945 0 0 1-2.096.576c-.682 0-1.29-.133-1.824-.4-.522-.267-.938-.608-1.248-1.024V181h-1.824v-11.84h1.824v4.336Zm5.36 3.056c0-.608-.128-1.131-.384-1.568a2.441 2.441 0 0 0-.992-1.008 2.63 2.63 0 0 0-2.624 0 2.7 2.7 0 0 0-.992 1.024c-.245.448-.368.976-.368 1.584 0 .608.123 1.141.368 1.6a2.7 2.7 0 0 0 .992 1.024 2.63 2.63 0 0 0 2.624 0 2.63 2.63 0 0 0 .992-1.056c.256-.459.384-.992.384-1.6Zm4.588-5.536a1.13 1.13 0 0 1-.832-.336 1.13 1.13 0 0 1-.336-.832c0-.331.112-.608.336-.832a1.13 1.13 0 0 1 .832-.336c.32 0 .592.112.816.336.224.224.336.501.336.832 0 .331-.112.608-.336.832a1.11 1.11 0 0 1-.816.336Zm.896 1.168V181h-1.824v-8.816h1.824Zm4.219-3.024V181h-1.824v-11.84h1.824Zm3.323 1.856a1.13 1.13 0 0 1-.832-.336 1.13 1.13 0 0 1-.336-.832c0-.331.112-.608.336-.832a1.13 1.13 0 0 1 .832-.336c.32 0 .592.112.816.336.224.224.336.501.336.832 0 .331-.112.608-.336.832a1.11 1.11 0 0 1-.816.336Zm.896 1.168V181h-1.824v-8.816h1.824Zm4.522 1.488v4.88c0 .331.075.571.224.72.16.139.427.208.8.208h1.12V181h-1.44c-.821 0-1.45-.192-1.888-.576-.437-.384-.656-1.008-.656-1.872v-4.88h-1.04v-1.488h1.04v-2.192h1.84v2.192h2.144v1.488h-2.144Zm11.762-1.488-5.408 12.96h-1.888l1.792-4.288-3.472-8.672h2.032l2.48 6.72 2.576-6.72h1.888Z"/></g><defs><linearGradient id="b" x1="135" x2="135" y1="5" y2="213" gradientUnits="userSpaceOnUse"><stop stop-color="#FCFCFC"/><stop offset="1" stop-color="#FAF5FF"/></linearGradient><linearGradient id="e" x1="10.009" x2="106.431" y1="72.996" y2="72.996" gradientUnits="userSpaceOnUse"><stop stop-color="#CBE0FF" stop-opacity="0"/><stop offset="1" stop-color="#D1D6FF"/></linearGradient><linearGradient id="h" x1="256.009" x2="352.431" y1="172.996" y2="172.996" gradientUnits="userSpaceOnUse"><stop stop-color="#CBE0FF" stop-opacity="0"/><stop offset="1" stop-color="#D1D6FF"/></linearGradient><linearGradient id="i" x1="101" x2="170.971" y1="32" y2="99.971" gradientUnits="userSpaceOnUse"><stop stop-color="#A3D9FE" stop-opacity=".6"/><stop offset="1" stop-color="#B5D0F5" stop-opacity=".2"/></linearGradient><linearGradient id="j" x1="135" x2="135" y1="32" y2="102" gradientUnits="userSpaceOnUse"><stop stop-color="#D8ECFE"/><stop offset="1" stop-color="#70BDFF" stop-opacity="0"/></linearGradient><linearGradient id="k" x1="107" x2="164.964" y1="38" y2="93.966" gradientUnits="userSpaceOnUse"><stop stop-color="#89C4FE"/><stop offset="1" stop-color="#84B4F4" stop-opacity=".2"/></linearGradient><linearGradient id="l" x1="135" x2="135" y1="38" y2="96" gradientUnits="userSpaceOnUse"><stop stop-color="#DAEEFF"/><stop offset="1" stop-color="#70BDFF" stop-opacity="0"/></linearGradient><linearGradient id="m" x1="114" x2="157.952" y1="45" y2="86.955" gradientUnits="userSpaceOnUse"><stop stop-color="#75AFFE"/><stop offset="1" stop-color="#2C90F5"/></linearGradient><linearGradient id="n" x1="135" x2="135" y1="45" y2="89" gradientUnits="userSpaceOnUse"><stop stop-color="#CBE7FF"/><stop offset="1" stop-color="#70BDFF" stop-opacity="0"/></linearGradient><clipPath id="c"><path fill="#fff" d="M12 17h92v100H12z"/></clipPath><clipPath id="f"><path fill="#fff" d="M258 117h-92V17h92z"/></clipPath><filter id="a" width="270" height="222" x="0" y="0" color-interpolation-filters="sRGB" filterUnits="userSpaceOnUse"><feFlood flood-opacity="0" result="BackgroundImageFix"/><feColorMatrix in="SourceAlpha" result="hardAlpha" values="0 0 0 0 0 0 0 0 0 0 0 0 0 0 0 0 0 0 127 0"/><feMorphology in="SourceAlpha" radius="8" result="effect1_dropShadow_8067_678"/><feOffset dy="2"/><feGaussianBlur stdDeviation="7.5"/><feComposite in2="hardAlpha" operator="out"/><feColorMatrix values="0 0 0 0 0.0784314 0 0 0 0 0.0313726 0 0 0 0 0.258824 0 0 0 0.28 0"/><feBlend in2="BackgroundImageFix" result="effect1_dropShadow_8067_678"/><feBlend in="SourceGraphic" in2="effect1_dropShadow_8067_678" result="shape"/></filter></defs></svg>