<svg xmlns="http://www.w3.org/2000/svg" width="270" height="314" fill="none"><g filter="url(#a)"><rect width="256" height="300" x="7" y="5" fill="url(#b)" rx="16"/><rect width="246.5" height="290.5" x="11.75" y="9.75" stroke="#EBF0FF" stroke-width="1.5" rx="13.25"/><path fill="#0D2052" d="M32.024 31.352v3.264h3.84v1.488h-3.84v3.408h4.32V41H30.2V29.864h6.144v1.488h-4.32Zm17.239.688c.693 0 1.312.144 1.856.432a3.06 3.06 0 0 1 1.296 1.28c.32.565.48 1.248.48 2.048V41h-1.808v-4.928c0-.79-.198-1.392-.592-1.808-.395-.427-.934-.64-1.616-.64-.683 0-1.227.213-1.632.64-.395.416-.592 1.019-.592 1.808V41h-1.808v-4.928c0-.79-.198-1.392-.592-1.808-.395-.427-.934-.64-1.616-.64-.683 0-1.227.213-1.632.64-.395.416-.592 1.019-.592 1.808V41H38.59v-8.816h1.824v1.008a3.033 3.033 0 0 1 1.136-.848 3.6 3.6 0 0 1 1.472-.304c.704 0 1.333.15 1.888.448.554.299.981.73 1.28 1.296.266-.533.682-.955 1.248-1.264a3.643 3.643 0 0 1 1.824-.48Zm5.345 4.512c0-.885.181-1.67.544-2.352a4.063 4.063 0 0 1 3.616-2.16c.693 0 1.296.139 1.808.416.522.267.938.603 1.248 1.008v-1.28h1.84V41h-1.84v-1.312c-.31.416-.731.763-1.264 1.04-.534.277-1.142.416-1.824.416a3.914 3.914 0 0 1-2.08-.576 4.276 4.276 0 0 1-1.504-1.632c-.363-.704-.544-1.499-.544-2.384Zm7.216.032c0-.608-.128-1.136-.384-1.584a2.584 2.584 0 0 0-.976-1.024 2.574 2.574 0 0 0-1.312-.352c-.47 0-.907.117-1.312.352-.406.224-.736.56-.992 1.008-.246.437-.368.96-.368 1.568 0 .608.122 1.141.368 1.6.256.459.586.81.992 1.056a2.627 2.627 0 0 0 2.624 0c.405-.235.73-.576.976-1.024.256-.459.384-.992.384-1.6Zm5.163-5.568a1.13 1.13 0 0 1-.832-.336 1.13 1.13 0 0 1-.336-.832c0-.33.112-.608.336-.832a1.13 1.13 0 0 1 .832-.336c.32 0 .592.112.816.336.224.224.336.501.336.832 0 .33-.112.608-.336.832a1.11 1.11 0 0 1-.816.336Zm.896 1.168V41H66.06v-8.816h1.824Zm4.22-3.024V41h-1.825V29.16h1.824Zm9.958 10.208 2.496-7.184h1.936L83.133 41h-2.176l-3.344-8.816h1.952l2.496 7.184Zm13.89-2.992c0 .33-.02.63-.063.896h-6.736c.053.704.314 1.27.784 1.696.47.427 1.045.64 1.728.64.981 0 1.674-.41 2.08-1.232h1.968a3.998 3.998 0 0 1-1.456 2c-.694.512-1.558.768-2.592.768-.843 0-1.6-.187-2.272-.56a4.185 4.185 0 0 1-1.568-1.6c-.373-.693-.56-1.493-.56-2.4 0-.907.181-1.701.544-2.384a3.936 3.936 0 0 1 1.552-1.6c.672-.373 1.44-.56 2.304-.56.832 0 1.573.181 2.224.544a3.84 3.84 0 0 1 1.52 1.536c.362.65.544 1.403.544 2.256Zm-1.903-.576c-.01-.672-.25-1.21-.72-1.616-.47-.405-1.05-.608-1.744-.608-.63 0-1.168.203-1.616.608-.448.395-.715.933-.8 1.616h4.88Zm5.523-2.336a2.824 2.824 0 0 1 1.056-1.04c.448-.256.976-.384 1.584-.384v1.888h-.464c-.715 0-1.259.181-1.632.544-.363.363-.544.992-.544 1.888V41h-1.824v-8.816h1.824v1.28Zm5.245-2.448a1.13 1.13 0 0 1-.832-.336 1.13 1.13 0 0 1-.336-.832c0-.33.112-.608.336-.832a1.13 1.13 0 0 1 .832-.336c.32 0 .592.112.816.336.224.224.336.501.336.832 0 .33-.112.608-.336.832a1.11 1.11 0 0 1-.816.336Zm.896 1.168V41h-1.824v-8.816h1.824Zm6.09 1.488h-1.632V41h-1.84v-7.328h-1.04v-1.488h1.04v-.624c0-1.013.267-1.75.8-2.208.544-.47 1.392-.704 2.544-.704v1.52c-.554 0-.944.107-1.168.32-.224.203-.336.56-.336 1.072v.624h1.632v1.488Zm2.545-2.656a1.13 1.13 0 0 1-.832-.336 1.13 1.13 0 0 1-.336-.832c0-.33.112-.608.336-.832a1.13 1.13 0 0 1 .832-.336c.32 0 .592.112.816.336.224.224.336.501.336.832 0 .33-.112.608-.336.832a1.11 1.11 0 0 1-.816.336Zm.896 1.168V41h-1.824v-8.816h1.824Zm10.475 4.192c0 .33-.022.63-.064.896h-6.736c.053.704.314 1.27.784 1.696.469.427 1.045.64 1.728.64.981 0 1.674-.41 2.08-1.232h1.967a3.992 3.992 0 0 1-1.455 2c-.694.512-1.558.768-2.592.768-.843 0-1.6-.187-2.272-.56a4.18 4.18 0 0 1-1.568-1.6c-.374-.693-.56-1.493-.56-2.4 0-.907.181-1.701.544-2.384a3.93 3.93 0 0 1 1.552-1.6c.672-.373 1.44-.56 2.304-.56.832 0 1.573.181 2.224.544a3.84 3.84 0 0 1 1.52 1.536c.362.65.544 1.403.544 2.256Zm-1.904-.576c-.011-.672-.251-1.21-.72-1.616-.47-.405-1.051-.608-1.744-.608-.63 0-1.168.203-1.616.608-.448.395-.715.933-.8 1.616h4.88Zm5.523-2.336a2.811 2.811 0 0 1 1.056-1.04c.448-.256.976-.384 1.584-.384v1.888h-.464c-.715 0-1.259.181-1.632.544-.363.363-.544.992-.544 1.888V41h-1.824v-8.816h1.824v1.28Z"/><path fill="#EDECF5" d="M205 145c0 38.66-31.34 70-70 70s-70-31.34-70-70 31.34-70 70-70 70 31.34 70 70Zm-117.6 0c0 26.289 21.311 47.6 47.6 47.6s47.6-21.311 47.6-47.6-21.311-47.6-47.6-47.6-47.6 21.311-47.6 47.6Z"/><g filter="url(#c)" opacity=".58"><mask id="e" fill="#fff"><path d="M92.927 186.077c-4.426 4.321-11.604 4.277-15.165-.781a69.997 69.997 0 0 1 19.048-98.96 69.999 69.999 0 0 1 27.866-10.57c6.118-.913 11.103 4.253 11.028 10.438-.074 6.185-5.214 11.008-11.246 12.378a47.608 47.608 0 0 0-33.213 27.677 47.598 47.598 0 0 0 2.882 43.137c3.17 5.311 3.226 12.36-1.2 16.681Z"/></mask><path fill="url(#d)" d="M92.927 186.077c-4.426 4.321-11.604 4.277-15.165-.781a69.997 69.997 0 0 1 19.048-98.96 69.999 69.999 0 0 1 27.866-10.57c6.118-.913 11.103 4.253 11.028 10.438-.074 6.185-5.214 11.008-11.246 12.378a47.608 47.608 0 0 0-33.213 27.677 47.598 47.598 0 0 0 2.882 43.137c3.17 5.311 3.226 12.36-1.2 16.681Z"/><path stroke="#FAEFFC" stroke-width="1.609" d="M92.927 186.077c-4.426 4.321-11.604 4.277-15.165-.781a69.997 69.997 0 0 1 19.048-98.96 69.999 69.999 0 0 1 27.866-10.57c6.118-.913 11.103 4.253 11.028 10.438-.074 6.185-5.214 11.008-11.246 12.378a47.608 47.608 0 0 0-33.213 27.677 47.598 47.598 0 0 0 2.882 43.137c3.17 5.311 3.226 12.36-1.2 16.681Z" mask="url(#e)"/></g><mask id="g" fill="#fff"><path d="M88.49 190.408c-1.975 1.929-5.156 1.902-6.94-.206a70.004 70.004 0 0 1-10.896-72.763 70.001 70.001 0 0 1 60.187-42.315c2.757-.164 4.971 2.12 4.938 4.88l-.149 12.4c-.033 2.761-2.304 4.945-5.053 5.202a47.599 47.599 0 0 0-32.935 76.892c1.711 2.167 1.697 5.318-.279 7.248l-8.872 8.662Z"/></mask><path fill="url(#f)" stroke="#FAEFFC" stroke-width="1.609" d="M88.49 190.408c-1.975 1.929-5.156 1.902-6.94-.206a70.004 70.004 0 0 1-10.896-72.763 70.001 70.001 0 0 1 60.187-42.315c2.757-.164 4.971 2.12 4.938 4.88l-.149 12.4c-.033 2.761-2.304 4.945-5.053 5.202a47.599 47.599 0 0 0-32.935 76.892c1.711 2.167 1.697 5.318-.279 7.248l-8.872 8.662Z" mask="url(#g)"/><g filter="url(#h)" opacity=".6"><mask id="j" fill="#fff"><path d="M165.606 195.803c3.115 5.344 1.326 12.296-4.447 14.519a70 70 0 0 1-67.464-9.552c-4.928-3.738-4.717-10.914-.24-15.183 4.475-4.27 11.517-3.964 16.712-.607a47.592 47.592 0 0 0 39.552 5.6c5.923-1.782 12.773-.122 15.887 5.223Z"/></mask><path fill="url(#i)" d="M165.606 195.803c3.115 5.344 1.326 12.296-4.447 14.519a70 70 0 0 1-67.464-9.552c-4.928-3.738-4.717-10.914-.24-15.183 4.475-4.27 11.517-3.964 16.712-.607a47.592 47.592 0 0 0 39.552 5.6c5.923-1.782 12.773-.122 15.887 5.223Z"/><path stroke="#FAEFFC" stroke-width="1.609" d="M165.606 195.803c3.115 5.344 1.326 12.296-4.447 14.519a70 70 0 0 1-67.464-9.552c-4.928-3.738-4.717-10.914-.24-15.183 4.475-4.27 11.517-3.964 16.712-.607a47.592 47.592 0 0 0 39.552 5.6c5.923-1.782 12.773-.122 15.887 5.223Z" mask="url(#j)"/></g><mask id="l" fill="#fff"><path d="M167.728 201.16c1.39 2.385.59 5.464-1.889 6.681a70.001 70.001 0 0 1-77.911-11.032c-2.044-1.856-1.958-5.037.04-6.943l8.972-8.559c1.998-1.906 5.148-1.808 7.253-.021a47.598 47.598 0 0 0 50.33 7.126c2.518-1.132 5.571-.352 6.961 2.034l6.244 10.714Z"/></mask><path fill="url(#k)" stroke="#FAEFFC" stroke-width="1.609" d="M167.728 201.16c1.39 2.385.59 5.464-1.889 6.681a70.001 70.001 0 0 1-77.911-11.032c-2.044-1.856-1.958-5.037.04-6.943l8.972-8.559c1.998-1.906 5.148-1.808 7.253-.021a47.598 47.598 0 0 0 50.33 7.126c2.518-1.132 5.571-.352 6.961 2.034l6.244 10.714Z" mask="url(#l)"/><g filter="url(#m)" opacity=".58"><mask id="o" fill="#fff"><path d="M192.746 130.595c5.97-1.62 12.219 1.912 12.868 8.063a70.001 70.001 0 0 1-25.82 61.951c-4.826 3.87-11.734 1.918-14.785-3.463-3.052-5.38-1.041-12.135 3.48-16.357a47.612 47.612 0 0 0 15.09-36.206c-.184-6.183 3.198-12.367 9.167-13.988Z"/></mask><path fill="url(#n)" d="M192.746 130.595c5.97-1.62 12.219 1.912 12.868 8.063a70.001 70.001 0 0 1-25.82 61.951c-4.826 3.87-11.734 1.918-14.785-3.463-3.052-5.38-1.041-12.135 3.48-16.357a47.612 47.612 0 0 0 15.09-36.206c-.184-6.183 3.198-12.367 9.167-13.988Z"/><path stroke="#FAEFFC" stroke-width="1.609" d="M192.746 130.595c5.97-1.62 12.219 1.912 12.868 8.063a70.001 70.001 0 0 1-25.82 61.951c-4.826 3.87-11.734 1.918-14.785-3.463-3.052-5.38-1.041-12.135 3.48-16.357a47.612 47.612 0 0 0 15.09-36.206c-.184-6.183 3.198-12.367 9.167-13.988Z" mask="url(#o)"/></g><mask id="q" fill="#fff"><path d="M197.73 127.971c2.665-.723 5.43.849 5.962 3.558a69.998 69.998 0 0 1-29.9 71.739c-2.299 1.531-5.362.673-6.725-1.729l-6.117-10.786c-1.363-2.402-.501-5.433 1.745-7.039a47.602 47.602 0 0 0 19.297-46.299c-.44-2.726 1.106-5.472 3.771-6.195l11.967-3.249Z"/></mask><path fill="url(#p)" stroke="#FAEFFC" stroke-width="1.609" d="M197.73 127.971c2.665-.723 5.43.849 5.962 3.558a69.998 69.998 0 0 1-29.9 71.739c-2.299 1.531-5.362.673-6.725-1.729l-6.117-10.786c-1.363-2.402-.501-5.433 1.745-7.039a47.602 47.602 0 0 0 19.297-46.299c-.44-2.726 1.106-5.472 3.771-6.195l11.967-3.249Z" mask="url(#q)"/><path fill="#0D2052" d="M115.946 133.624h-7.128v3.762c.308-.381.748-.689 1.32-.924a4.527 4.527 0 0 1 1.826-.374c1.173 0 2.134.257 2.882.77a4.438 4.438 0 0 1 1.628 1.98 6.45 6.45 0 0 1 .506 2.552c0 1.687-.484 3.043-1.452 4.07-.953 1.027-2.317 1.54-4.092 1.54-1.672 0-3.007-.418-4.004-1.254-.997-.836-1.562-1.929-1.694-3.278h2.992a2.38 2.38 0 0 0 .88 1.408c.469.352 1.063.528 1.782.528.865 0 1.518-.271 1.958-.814.44-.543.66-1.261.66-2.156 0-.909-.227-1.599-.682-2.068-.44-.484-1.093-.726-1.958-.726-.616 0-1.129.154-1.54.462a2.52 2.52 0 0 0-.88 1.232h-2.948v-9.416h9.944v2.706Zm7.096 10.142-2.574 6.182h-1.98l1.43-6.182h3.124Zm10.184-8.8c-.147-.616-.403-1.078-.77-1.386-.352-.308-.865-.462-1.54-.462-1.012 0-1.76.411-2.244 1.232-.469.807-.711 2.127-.726 3.96.352-.587.865-1.041 1.54-1.364a4.855 4.855 0 0 1 2.2-.506c.953 0 1.797.205 2.53.616.733.411 1.305 1.012 1.716 1.804.411.777.616 1.716.616 2.816 0 1.041-.213 1.973-.638 2.794a4.453 4.453 0 0 1-1.826 1.892c-.807.455-1.767.682-2.882.682-1.525 0-2.728-.337-3.608-1.012-.865-.675-1.474-1.613-1.826-2.816-.337-1.217-.506-2.713-.506-4.488 0-2.684.462-4.708 1.386-6.072.924-1.379 2.383-2.068 4.378-2.068 1.54 0 2.735.418 3.586 1.254.851.836 1.342 1.877 1.474 3.124h-2.86Zm-2.244 4.004c-.777 0-1.43.227-1.958.682-.528.455-.792 1.115-.792 1.98s.242 1.547.726 2.046c.499.499 1.195.748 2.09.748.792 0 1.415-.242 1.87-.726.469-.484.704-1.137.704-1.958 0-.851-.227-1.525-.682-2.024-.44-.499-1.093-.748-1.958-.748Zm10.684-.462c-1.466-.763-2.2-1.943-2.2-3.542 0-.792.198-1.511.594-2.156.411-.66 1.02-1.181 1.826-1.562.822-.396 1.819-.594 2.992-.594 1.174 0 2.164.198 2.97.594.822.381 1.43.902 1.826 1.562.411.645.616 1.364.616 2.156 0 .807-.198 1.518-.594 2.134a4.087 4.087 0 0 1-1.584 1.408c.807.352 1.438.865 1.892 1.54.455.675.682 1.474.682 2.398 0 .997-.256 1.87-.77 2.618-.498.733-1.188 1.298-2.068 1.694-.88.396-1.87.594-2.97.594s-2.09-.198-2.97-.594c-.865-.396-1.554-.961-2.068-1.694-.498-.748-.748-1.621-.748-2.618 0-.924.228-1.723.682-2.398.455-.689 1.086-1.203 1.892-1.54Zm5.632-3.102c0-.719-.22-1.276-.66-1.672-.425-.396-1.012-.594-1.76-.594-.733 0-1.32.198-1.76.594-.425.396-.638.961-.638 1.694 0 .66.22 1.188.66 1.584.455.396 1.034.594 1.738.594s1.284-.198 1.738-.594c.455-.411.682-.946.682-1.606Zm-2.42 4.444c-.836 0-1.518.213-2.046.638-.513.425-.77 1.034-.77 1.826 0 .733.25 1.335.748 1.804.514.455 1.203.682 2.068.682.866 0 1.548-.235 2.046-.704.499-.469.748-1.063.748-1.782 0-.777-.256-1.379-.77-1.804-.513-.44-1.188-.66-2.024-.66Zm11.805 2.64c.117.645.381 1.144.792 1.496.425.337.99.506 1.694.506.909 0 1.569-.374 1.98-1.122.411-.763.616-2.039.616-3.828-.337.469-.814.836-1.43 1.1a4.815 4.815 0 0 1-1.958.396c-.939 0-1.789-.191-2.552-.572a4.412 4.412 0 0 1-1.782-1.738c-.44-.777-.66-1.716-.66-2.816 0-1.628.484-2.919 1.452-3.872.968-.968 2.288-1.452 3.96-1.452 2.083 0 3.549.667 4.4 2.002.865 1.335 1.298 3.344 1.298 6.028 0 1.907-.169 3.469-.506 4.686-.323 1.217-.887 2.141-1.694 2.772-.792.631-1.877.946-3.256.946-1.085 0-2.009-.205-2.772-.616-.763-.425-1.349-.975-1.76-1.65a5.242 5.242 0 0 1-.682-2.266h2.86Zm2.332-3.96c.763 0 1.364-.235 1.804-.704.44-.469.66-1.1.66-1.892 0-.865-.235-1.533-.704-2.002-.455-.484-1.078-.726-1.87-.726s-1.423.249-1.892.748c-.455.484-.682 1.129-.682 1.936 0 .777.22 1.415.66 1.914.455.484 1.129.726 2.024.726Z"/><path fill="#989898" d="M126.505 157.242 122.823 167h-1.47l-3.682-9.758h1.358l3.066 8.414 3.066-8.414h1.344Zm.921 5.894c0-.784.159-1.47.476-2.058a3.471 3.471 0 0 1 1.302-1.386 3.625 3.625 0 0 1 1.862-.49c.672 0 1.256.145 1.75.434.495.289.864.653 1.106 1.092v-1.4h1.288V167h-1.288v-1.428c-.252.448-.63.821-1.134 1.12-.494.289-1.073.434-1.736.434a3.48 3.48 0 0 1-1.848-.504 3.542 3.542 0 0 1-1.302-1.414c-.317-.607-.476-1.297-.476-2.072Zm6.496.014c0-.579-.116-1.083-.35-1.512a2.405 2.405 0 0 0-.952-.98 2.5 2.5 0 0 0-1.302-.35c-.476 0-.91.112-1.302.336a2.444 2.444 0 0 0-.938.98c-.233.429-.35.933-.35 1.512 0 .588.117 1.101.35 1.54.234.429.546.761.938.994.392.224.826.336 1.302.336.476 0 .91-.112 1.302-.336.402-.233.719-.565.952-.994.234-.439.35-.947.35-1.526Zm4.715-6.51V167h-1.274v-10.36h1.274Zm2.829 1.442a.839.839 0 0 1-.616-.252.837.837 0 0 1-.252-.616c0-.243.084-.448.252-.616a.839.839 0 0 1 .616-.252c.234 0 .43.084.588.252a.837.837 0 0 1 .252.616.837.837 0 0 1-.252.616.775.775 0 0 1-.588.252Zm.616 1.246V167h-1.274v-7.672h1.274Zm1.696 3.808c0-.784.158-1.47.476-2.058a3.458 3.458 0 0 1 1.302-1.386 3.65 3.65 0 0 1 1.876-.49c.597 0 1.152.14 1.666.42.513.271.905.63 1.176 1.078v-4.06h1.288V167h-1.288v-1.442c-.252.457-.626.835-1.12 1.134-.495.289-1.074.434-1.736.434a3.548 3.548 0 0 1-1.862-.504 3.528 3.528 0 0 1-1.302-1.414c-.318-.607-.476-1.297-.476-2.072Zm6.496.014c0-.579-.117-1.083-.35-1.512a2.418 2.418 0 0 0-.952-.98 2.5 2.5 0 0 0-1.302-.35c-.476 0-.91.112-1.302.336a2.438 2.438 0 0 0-.938.98c-.234.429-.35.933-.35 1.512 0 .588.116 1.101.35 1.54.233.429.546.761.938.994.392.224.826.336 1.302.336.476 0 .91-.112 1.302-.336.401-.233.718-.565.952-.994.233-.439.35-.947.35-1.526Z"/><circle cx="30.5" cy="255" r="6.5" fill="#3FDCAA"/><path fill="#666" d="M49.614 250.624 46.542 259h-2.04l-3.072-8.376h1.8l2.304 6.66 2.292-6.66h1.788Zm.575 5.028c0-.672.132-1.268.396-1.788.272-.52.636-.92 1.092-1.2.464-.28.98-.42 1.548-.42.496 0 .928.1 1.296.3.376.2.676.452.9.756v-.948h1.692V259h-1.692v-.972a2.539 2.539 0 0 1-.9.78c-.376.2-.812.3-1.308.3-.56 0-1.072-.144-1.536-.432a3.091 3.091 0 0 1-1.092-1.212c-.264-.528-.396-1.132-.396-1.812Zm5.232.024c0-.408-.08-.756-.24-1.044a1.642 1.642 0 0 0-.648-.672 1.699 1.699 0 0 0-.876-.24c-.312 0-.6.076-.864.228-.264.152-.48.376-.648.672-.16.288-.24.632-.24 1.032s.08.752.24 1.056c.168.296.384.524.648.684.272.16.56.24.864.24.312 0 .604-.076.876-.228.272-.16.488-.384.648-.672.16-.296.24-.648.24-1.056Zm5.013-5.556V259h-1.68v-8.88h1.68Zm2.512 1.44c-.296 0-.544-.092-.744-.276a.962.962 0 0 1-.288-.708c0-.28.096-.512.288-.696.2-.192.448-.288.744-.288s.54.096.732.288c.2.184.3.416.3.696 0 .28-.1.516-.3.708a1.015 1.015 0 0 1-.732.276Zm.828.792V259h-1.68v-6.648h1.68Zm1.227 3.3c0-.672.132-1.268.396-1.788.272-.52.64-.92 1.104-1.2.465-.28.98-.42 1.548-.42.432 0 .844.096 1.236.288.392.184.705.432.937.744v-3.156h1.704V259h-1.704v-.984c-.209.328-.5.592-.876.792-.377.2-.813.3-1.309.3-.56 0-1.072-.144-1.536-.432a3.06 3.06 0 0 1-1.104-1.212c-.264-.528-.396-1.132-.396-1.812Zm5.233.024c0-.408-.08-.756-.24-1.044a1.642 1.642 0 0 0-.648-.672 1.699 1.699 0 0 0-.877-.24c-.311 0-.6.076-.863.228-.264.152-.48.376-.648.672-.16.288-.24.632-.24 1.032s.08.752.24 1.056c.168.296.383.524.648.684.272.16.56.24.864.24.311 0 .603-.076.876-.228.272-.16.487-.384.647-.672.16-.296.24-.648.24-1.056Z"/><circle cx="98.5" cy="255" r="6.5" fill="#719DEC"/><path fill="#666" d="M111.807 250.624V259h-1.68v-8.376h1.68Zm5.344 1.632c.792 0 1.432.252 1.92.756.488.496.732 1.192.732 2.088v3.9h-1.68v-3.672c0-.528-.132-.932-.396-1.212-.264-.288-.624-.432-1.08-.432-.464 0-.832.144-1.104.432-.264.28-.396.684-.396 1.212V259h-1.68v-6.648h1.68v.828c.224-.288.508-.512.852-.672a2.64 2.64 0 0 1 1.152-.252Zm7.021 5.196 1.68-5.1h1.788L125.18 259h-2.04l-2.448-6.648h1.8l1.68 5.1Zm3.98-1.8c0-.672.132-1.268.396-1.788.272-.52.636-.92 1.092-1.2.464-.28.98-.42 1.548-.42.496 0 .928.1 1.296.3.376.2.676.452.9.756v-.948h1.692V259h-1.692v-.972a2.539 2.539 0 0 1-.9.78c-.376.2-.812.3-1.308.3-.56 0-1.072-.144-1.536-.432a3.091 3.091 0 0 1-1.092-1.212c-.264-.528-.396-1.132-.396-1.812Zm5.232.024c0-.408-.08-.756-.24-1.044a1.642 1.642 0 0 0-.648-.672 1.699 1.699 0 0 0-.876-.24c-.312 0-.6.076-.864.228-.264.152-.48.376-.648.672-.16.288-.24.632-.24 1.032s.08.752.24 1.056c.168.296.384.524.648.684.272.16.56.24.864.24.312 0 .604-.076.876-.228.272-.16.488-.384.648-.672.16-.296.24-.648.24-1.056Zm5.013-5.556V259h-1.68v-8.88h1.68Zm2.512 1.44c-.296 0-.544-.092-.744-.276a.962.962 0 0 1-.288-.708c0-.28.096-.512.288-.696.2-.192.448-.288.744-.288s.54.096.732.288c.2.184.3.416.3.696 0 .28-.1.516-.3.708a1.015 1.015 0 0 1-.732.276Zm.828.792V259h-1.68v-6.648h1.68Zm1.227 3.3c0-.672.132-1.268.396-1.788.272-.52.64-.92 1.104-1.2.464-.28.98-.42 1.548-.42.432 0 .844.096 1.236.288.392.184.704.432.936.744v-3.156h1.704V259h-1.704v-.984c-.208.328-.5.592-.876.792-.376.2-.812.3-1.308.3-.56 0-1.072-.144-1.536-.432a3.06 3.06 0 0 1-1.104-1.212c-.264-.528-.396-1.132-.396-1.812Zm5.232.024c0-.408-.08-.756-.24-1.044a1.642 1.642 0 0 0-.648-.672 1.699 1.699 0 0 0-.876-.24c-.312 0-.6.076-.864.228-.264.152-.48.376-.648.672-.16.288-.24.632-.24 1.032s.08.752.24 1.056c.168.296.384.524.648.684.272.16.56.24.864.24.312 0 .604-.076.876-.228.272-.16.488-.384.648-.672.16-.296.24-.648.24-1.056Z"/><circle cx="176.5" cy="255" r="6.5" fill="#FF5E6C"/><path fill="#666" d="M187.441 254.8c0-.824.184-1.56.552-2.208a3.984 3.984 0 0 1 1.524-1.524c.648-.368 1.372-.552 2.172-.552.936 0 1.756.24 2.46.72s1.196 1.144 1.476 1.992h-1.932c-.192-.4-.464-.7-.816-.9-.344-.2-.744-.3-1.2-.3a2.48 2.48 0 0 0-1.308.348 2.346 2.346 0 0 0-.888.96c-.208.416-.312.904-.312 1.464 0 .552.104 1.04.312 1.464.216.416.512.74.888.972.384.224.82.336 1.308.336.456 0 .856-.1 1.2-.3.352-.208.624-.512.816-.912h1.932c-.28.856-.772 1.524-1.476 2.004-.696.472-1.516.708-2.46.708-.8 0-1.524-.18-2.172-.54a4.097 4.097 0 0 1-1.524-1.524c-.368-.648-.552-1.384-.552-2.208Zm9.187.852c0-.672.132-1.268.396-1.788.272-.52.636-.92 1.092-1.2.464-.28.98-.42 1.548-.42.496 0 .928.1 1.296.3.376.2.676.452.9.756v-.948h1.692V259h-1.692v-.972a2.539 2.539 0 0 1-.9.78c-.376.2-.812.3-1.308.3-.56 0-1.072-.144-1.536-.432a3.091 3.091 0 0 1-1.092-1.212c-.264-.528-.396-1.132-.396-1.812Zm5.232.024c0-.408-.08-.756-.24-1.044a1.642 1.642 0 0 0-.648-.672 1.699 1.699 0 0 0-.876-.24c-.312 0-.6.076-.864.228-.264.152-.48.376-.648.672-.16.288-.24.632-.24 1.032s.08.752.24 1.056c.168.296.384.524.648.684.272.16.56.24.864.24.312 0 .604-.076.876-.228.272-.16.488-.384.648-.672.16-.296.24-.648.24-1.056Zm5.289-1.944v3.216c0 .224.052.388.156.492.112.096.296.144.552.144h.78V259h-1.056c-1.416 0-2.124-.688-2.124-2.064v-3.204h-.792v-1.38h.792v-1.644h1.692v1.644h1.488v1.38h-1.488Zm2.265 1.944c0-.688.14-1.288.42-1.8.28-.52.668-.92 1.164-1.2.496-.288 1.064-.432 1.704-.432.824 0 1.504.208 2.04.624.544.408.908.984 1.092 1.728h-1.812a1.282 1.282 0 0 0-.492-.672c-.224-.168-.504-.252-.84-.252-.48 0-.86.176-1.14.528-.28.344-.42.836-.42 1.476 0 .632.14 1.124.42 1.476.28.344.66.516 1.14.516.68 0 1.124-.304 1.332-.912h1.812c-.184.72-.548 1.292-1.092 1.716-.544.424-1.224.636-2.04.636-.64 0-1.208-.14-1.704-.42a3.054 3.054 0 0 1-1.164-1.2c-.28-.52-.42-1.124-.42-1.812Zm11.394-3.42c.504 0 .952.112 1.344.336.392.216.696.54.912.972.224.424.336.936.336 1.536v3.9h-1.68v-3.672c0-.528-.132-.932-.396-1.212-.264-.288-.624-.432-1.08-.432-.464 0-.832.144-1.104.432-.264.28-.396.684-.396 1.212V259h-1.68v-8.88h1.68v3.06c.216-.288.504-.512.864-.672.36-.168.76-.252 1.2-.252Zm9.302 1.752v1.416h-5.088v-1.416h5.088Zm1.452 1.644c0-.672.132-1.268.396-1.788.272-.52.636-.92 1.092-1.2.464-.28.98-.42 1.548-.42.496 0 .928.1 1.296.3.376.2.676.452.9.756v-.948h1.692V259h-1.692v-.972a2.539 2.539 0 0 1-.9.78c-.376.2-.812.3-1.308.3-.56 0-1.072-.144-1.536-.432a3.091 3.091 0 0 1-1.092-1.212c-.264-.528-.396-1.132-.396-1.812Zm5.232.024c0-.408-.08-.756-.24-1.044a1.642 1.642 0 0 0-.648-.672 1.699 1.699 0 0 0-.876-.24c-.312 0-.6.076-.864.228-.264.152-.48.376-.648.672-.16.288-.24.632-.24 1.032s.08.752.24 1.056c.168.296.384.524.648.684.272.16.56.24.864.24.312 0 .604-.076.876-.228.272-.16.488-.384.648-.672.16-.296.24-.648.24-1.056Zm5.013-5.556V259h-1.68v-8.88h1.68Zm3.34 0V259h-1.68v-8.88h1.68Z"/></g><defs><linearGradient id="b" x1="135" x2="135" y1="5" y2="305" gradientUnits="userSpaceOnUse"><stop stop-color="#FCFCFC"/><stop offset="1" stop-color="#FAF5FF"/></linearGradient><linearGradient id="d" x1="126.5" x2="82.5" y1="81" y2="186" gradientUnits="userSpaceOnUse"><stop stop-color="#23DFA1"/><stop offset="1" stop-color="#51D9B0"/></linearGradient><linearGradient id="f" x1="126.5" x2="82.5" y1="81" y2="186" gradientUnits="userSpaceOnUse"><stop stop-color="#51D9B0"/><stop offset="1" stop-color="#21CC93"/></linearGradient><linearGradient id="i" x1="91.5" x2="171.5" y1="188.5" y2="200.5" gradientUnits="userSpaceOnUse"><stop stop-color="#719DEC"/><stop offset="1" stop-color="#E6E9F5"/></linearGradient><linearGradient id="k" x1="90.5" x2="170.5" y1="188.5" y2="200.5" gradientUnits="userSpaceOnUse"><stop stop-color="#719DEC"/><stop offset="1" stop-color="#5370F5"/></linearGradient><linearGradient id="n" x1="198.5" x2="163.5" y1="131.5" y2="201" gradientUnits="userSpaceOnUse"><stop stop-color="#FFAA70"/><stop offset="1" stop-color="#FF476A"/></linearGradient><linearGradient id="p" x1="197.5" x2="162.5" y1="130.5" y2="200" gradientUnits="userSpaceOnUse"><stop stop-color="#FF476A"/><stop offset="1" stop-color="#FFAA70"/></linearGradient><filter id="a" width="270" height="314" x="0" y="0" color-interpolation-filters="sRGB" filterUnits="userSpaceOnUse"><feFlood flood-opacity="0" result="BackgroundImageFix"/><feColorMatrix in="SourceAlpha" result="hardAlpha" values="0 0 0 0 0 0 0 0 0 0 0 0 0 0 0 0 0 0 127 0"/><feMorphology in="SourceAlpha" radius="8" result="effect1_dropShadow_8067_599"/><feOffset dy="2"/><feGaussianBlur stdDeviation="7.5"/><feComposite in2="hardAlpha" operator="out"/><feColorMatrix values="0 0 0 0 0.0767133 0 0 0 0 0.0311 0 0 0 0 0.259167 0 0 0 0.28 0"/><feBlend in2="BackgroundImageFix" result="effect1_dropShadow_8067_599"/><feBlend in="SourceGraphic" in2="effect1_dropShadow_8067_599" result="shape"/></filter><filter id="c" width="86.705" height="129.55" x="57" y="67.661" color-interpolation-filters="sRGB" filterUnits="userSpaceOnUse"><feFlood flood-opacity="0" result="BackgroundImageFix"/><feBlend in="SourceGraphic" in2="BackgroundImageFix" result="shape"/><feGaussianBlur result="effect1_foregroundBlur_8067_599" stdDeviation="4"/></filter><filter id="h" width="93.072" height="48.578" x="82.048" y="174.422" color-interpolation-filters="sRGB" filterUnits="userSpaceOnUse"><feFlood flood-opacity="0" result="BackgroundImageFix"/><feBlend in="SourceGraphic" in2="BackgroundImageFix" result="shape"/><feGaussianBlur result="effect1_foregroundBlur_8067_599" stdDeviation="4"/></filter><filter id="m" width="58.45" height="88.434" x="155.55" y="122.203" color-interpolation-filters="sRGB" filterUnits="userSpaceOnUse"><feFlood flood-opacity="0" result="BackgroundImageFix"/><feBlend in="SourceGraphic" in2="BackgroundImageFix" result="shape"/><feGaussianBlur result="effect1_foregroundBlur_8067_599" stdDeviation="4"/></filter></defs></svg>