<svg width="410" height="314" viewBox="0 0 410 314" fill="none" xmlns="http://www.w3.org/2000/svg">
<g filter="url(#filter0_d_2_2596)">
<rect x="7" y="5" width="396" height="300" rx="16" fill="url(#paint0_linear_2_2596)"/>
<rect x="11.75" y="9.75" width="386.5" height="290.5" rx="13.25" stroke="#EBF0FF" stroke-width="1.5"/>
<path d="M32.024 31.352V34.616H35.864V36.104H32.024V39.512H36.344V41H30.2V29.864H36.344V31.352H32.024ZM49.2626 32.04C49.956 32.04 50.5746 32.184 51.1186 32.472C51.6733 32.76 52.1053 33.1867 52.4146 33.752C52.7346 34.3173 52.8946 35 52.8946 35.8V41H51.0866V36.072C51.0866 35.2827 50.8893 34.68 50.4946 34.264C50.1 33.8373 49.5613 33.624 48.8786 33.624C48.196 33.624 47.652 33.8373 47.2466 34.264C46.852 34.68 46.6546 35.2827 46.6546 36.072V41H44.8466V36.072C44.8466 35.2827 44.6493 34.68 44.2546 34.264C43.86 33.8373 43.3213 33.624 42.6386 33.624C41.956 33.624 41.412 33.8373 41.0066 34.264C40.612 34.68 40.4146 35.2827 40.4146 36.072V41H38.5906V32.184H40.4146V33.192C40.7133 32.8293 41.092 32.5467 41.5506 32.344C42.0093 32.1413 42.5 32.04 43.0226 32.04C43.7266 32.04 44.356 32.1893 44.9106 32.488C45.4653 32.7867 45.892 33.2187 46.1906 33.784C46.4573 33.2507 46.8733 32.8293 47.4386 32.52C48.004 32.2 48.612 32.04 49.2626 32.04ZM54.6076 36.552C54.6076 35.6667 54.789 34.8827 55.1516 34.2C55.525 33.5173 56.0263 32.9893 56.6556 32.616C57.2956 32.232 57.9996 32.04 58.7676 32.04C59.461 32.04 60.0636 32.1787 60.5756 32.456C61.0983 32.7227 61.5143 33.0587 61.8236 33.464V32.184H63.6636V41H61.8236V39.688C61.5143 40.104 61.093 40.4507 60.5596 40.728C60.0263 41.0053 59.4183 41.144 58.7356 41.144C57.9783 41.144 57.285 40.952 56.6556 40.568C56.0263 40.1733 55.525 39.6293 55.1516 38.936C54.789 38.232 54.6076 37.4373 54.6076 36.552ZM61.8236 36.584C61.8236 35.976 61.6956 35.448 61.4396 35C61.1943 34.552 60.869 34.2107 60.4636 33.976C60.0583 33.7413 59.621 33.624 59.1516 33.624C58.6823 33.624 58.245 33.7413 57.8396 33.976C57.4343 34.2 57.1036 34.536 56.8476 34.984C56.6023 35.4213 56.4796 35.944 56.4796 36.552C56.4796 37.16 56.6023 37.6933 56.8476 38.152C57.1036 38.6107 57.4343 38.9627 57.8396 39.208C58.2556 39.4427 58.693 39.56 59.1516 39.56C59.621 39.56 60.0583 39.4427 60.4636 39.208C60.869 38.9733 61.1943 38.632 61.4396 38.184C61.6956 37.7253 61.8236 37.192 61.8236 36.584ZM66.9874 31.016C66.6567 31.016 66.3794 30.904 66.1554 30.68C65.9314 30.456 65.8194 30.1787 65.8194 29.848C65.8194 29.5173 65.9314 29.24 66.1554 29.016C66.3794 28.792 66.6567 28.68 66.9874 28.68C67.3074 28.68 67.5794 28.792 67.8034 29.016C68.0274 29.24 68.1394 29.5173 68.1394 29.848C68.1394 30.1787 68.0274 30.456 67.8034 30.68C67.5794 30.904 67.3074 31.016 66.9874 31.016ZM67.8834 32.184V41H66.0594V32.184H67.8834ZM72.1021 29.16V41H70.2781V29.16H72.1021ZM82.0611 39.368L84.5571 32.184H86.4931L83.1331 41H80.9571L77.6131 32.184H79.5651L82.0611 39.368ZM95.9519 36.376C95.9519 36.7067 95.9305 37.0053 95.8879 37.272H89.1519C89.2052 37.976 89.4665 38.5413 89.9359 38.968C90.4052 39.3947 90.9812 39.608 91.6639 39.608C92.6452 39.608 93.3385 39.1973 93.7439 38.376H95.7119C95.4452 39.1867 94.9599 39.8533 94.2559 40.376C93.5625 40.888 92.6985 41.144 91.6639 41.144C90.8212 41.144 90.0639 40.9573 89.3919 40.584C88.7305 40.2 88.2079 39.6667 87.8239 38.984C87.4505 38.2907 87.2639 37.4907 87.2639 36.584C87.2639 35.6773 87.4452 34.8827 87.8079 34.2C88.1812 33.5067 88.6985 32.9733 89.3599 32.6C90.0319 32.2267 90.7999 32.04 91.6639 32.04C92.4959 32.04 93.2372 32.2213 93.8879 32.584C94.5385 32.9467 95.0452 33.4587 95.4079 34.12C95.7705 34.7707 95.9519 35.5227 95.9519 36.376ZM94.0479 35.8C94.0372 35.128 93.7972 34.5893 93.3279 34.184C92.8585 33.7787 92.2772 33.576 91.5839 33.576C90.9545 33.576 90.4159 33.7787 89.9679 34.184C89.5199 34.5787 89.2532 35.1173 89.1679 35.8H94.0479ZM99.5709 33.464C99.8375 33.016 100.19 32.6693 100.627 32.424C101.075 32.168 101.603 32.04 102.211 32.04V33.928H101.747C101.032 33.928 100.488 34.1093 100.115 34.472C99.7522 34.8347 99.5709 35.464 99.5709 36.36V41H97.7469V32.184H99.5709V33.464ZM104.816 31.016C104.485 31.016 104.208 30.904 103.984 30.68C103.76 30.456 103.648 30.1787 103.648 29.848C103.648 29.5173 103.76 29.24 103.984 29.016C104.208 28.792 104.485 28.68 104.816 28.68C105.136 28.68 105.408 28.792 105.632 29.016C105.856 29.24 105.968 29.5173 105.968 29.848C105.968 30.1787 105.856 30.456 105.632 30.68C105.408 30.904 105.136 31.016 104.816 31.016ZM105.712 32.184V41H103.888V32.184H105.712ZM111.802 33.672H110.17V41H108.33V33.672H107.29V32.184H108.33V31.56C108.33 30.5467 108.597 29.8107 109.13 29.352C109.674 28.8827 110.522 28.648 111.674 28.648V30.168C111.12 30.168 110.73 30.2747 110.506 30.488C110.282 30.6907 110.17 31.048 110.17 31.56V32.184H111.802V33.672ZM114.347 31.016C114.016 31.016 113.739 30.904 113.515 30.68C113.291 30.456 113.179 30.1787 113.179 29.848C113.179 29.5173 113.291 29.24 113.515 29.016C113.739 28.792 114.016 28.68 114.347 28.68C114.667 28.68 114.939 28.792 115.163 29.016C115.387 29.24 115.499 29.5173 115.499 29.848C115.499 30.1787 115.387 30.456 115.163 30.68C114.939 30.904 114.667 31.016 114.347 31.016ZM115.243 32.184V41H113.419V32.184H115.243ZM125.718 36.376C125.718 36.7067 125.696 37.0053 125.654 37.272H118.918C118.971 37.976 119.232 38.5413 119.702 38.968C120.171 39.3947 120.747 39.608 121.43 39.608C122.411 39.608 123.104 39.1973 123.51 38.376H125.477C125.211 39.1867 124.726 39.8533 124.022 40.376C123.328 40.888 122.464 41.144 121.43 41.144C120.587 41.144 119.83 40.9573 119.158 40.584C118.496 40.2 117.974 39.6667 117.59 38.984C117.216 38.2907 117.03 37.4907 117.03 36.584C117.03 35.6773 117.211 34.8827 117.574 34.2C117.947 33.5067 118.464 32.9733 119.126 32.6C119.798 32.2267 120.566 32.04 121.43 32.04C122.262 32.04 123.003 32.2213 123.654 32.584C124.304 32.9467 124.811 33.4587 125.174 34.12C125.536 34.7707 125.718 35.5227 125.718 36.376ZM123.814 35.8C123.803 35.128 123.563 34.5893 123.094 34.184C122.624 33.7787 122.043 33.576 121.35 33.576C120.72 33.576 120.182 33.7787 119.734 34.184C119.286 34.5787 119.019 35.1173 118.934 35.8H123.814ZM129.337 33.464C129.603 33.016 129.955 32.6693 130.393 32.424C130.841 32.168 131.369 32.04 131.977 32.04V33.928H131.513C130.798 33.928 130.254 34.1093 129.881 34.472C129.518 34.8347 129.337 35.464 129.337 36.36V41H127.513V32.184H129.337V33.464Z" fill="#0D2052"/>
<path d="M275 145C275 183.66 243.66 215 205 215C166.34 215 135 183.66 135 145C135 106.34 166.34 75 205 75C243.66 75 275 106.34 275 145ZM157.4 145C157.4 171.289 178.711 192.6 205 192.6C231.289 192.6 252.6 171.289 252.6 145C252.6 118.711 231.289 97.4 205 97.4C178.711 97.4 157.4 118.711 157.4 145Z" fill="#EDECF5"/>
<g opacity="0.58" filter="url(#filter1_f_2_2596)">
<mask id="path-5-inside-1_2_2596" fill="white">
<path d="M162.927 186.077C158.501 190.398 151.323 190.354 147.762 185.296C142.002 177.114 138.037 167.755 136.186 157.833C133.648 144.223 135.203 130.166 140.654 117.439C146.105 104.713 155.207 93.8886 166.81 86.3354C175.269 80.8289 184.779 77.2412 194.676 75.7654C200.794 74.8531 205.779 80.0191 205.704 86.2042C205.63 92.3894 200.49 97.2121 194.458 98.582C188.999 99.8219 183.772 102.022 179.031 105.108C171.141 110.244 164.951 117.605 161.245 126.259C157.538 134.913 156.481 144.471 158.207 153.726C159.244 159.287 161.258 164.589 164.127 169.396C167.297 174.707 167.353 181.756 162.927 186.077Z"/>
</mask>
<path d="M162.927 186.077C158.501 190.398 151.323 190.354 147.762 185.296C142.002 177.114 138.037 167.755 136.186 157.833C133.648 144.223 135.203 130.166 140.654 117.439C146.105 104.713 155.207 93.8886 166.81 86.3354C175.269 80.8289 184.779 77.2412 194.676 75.7654C200.794 74.8531 205.779 80.0191 205.704 86.2042C205.63 92.3894 200.49 97.2121 194.458 98.582C188.999 99.8219 183.772 102.022 179.031 105.108C171.141 110.244 164.951 117.605 161.245 126.259C157.538 134.913 156.481 144.471 158.207 153.726C159.244 159.287 161.258 164.589 164.127 169.396C167.297 174.707 167.353 181.756 162.927 186.077Z" fill="url(#paint1_linear_2_2596)"/>
<path d="M162.927 186.077C158.501 190.398 151.323 190.354 147.762 185.296C142.002 177.114 138.037 167.755 136.186 157.833C133.648 144.223 135.203 130.166 140.654 117.439C146.105 104.713 155.207 93.8886 166.81 86.3354C175.269 80.8289 184.779 77.2412 194.676 75.7654C200.794 74.8531 205.779 80.0191 205.704 86.2042C205.63 92.3894 200.49 97.2121 194.458 98.582C188.999 99.8219 183.772 102.022 179.031 105.108C171.141 110.244 164.951 117.605 161.245 126.259C157.538 134.913 156.481 144.471 158.207 153.726C159.244 159.287 161.258 164.589 164.127 169.396C167.297 174.707 167.353 181.756 162.927 186.077Z" stroke="#FAEFFC" stroke-width="1.6092" mask="url(#path-5-inside-1_2_2596)"/>
</g>
<mask id="path-6-inside-2_2_2596" fill="white">
<path d="M158.491 190.408C156.515 192.337 153.334 192.31 151.551 190.202C143.726 180.95 138.418 169.8 136.186 157.833C133.648 144.223 135.203 130.166 140.654 117.439C146.105 104.713 155.207 93.8886 166.81 86.3354C177.013 79.6937 188.746 75.8434 200.841 75.1236C203.598 74.9596 205.812 77.2434 205.779 80.0047L205.63 92.4038C205.597 95.165 203.326 97.3493 200.577 97.6059C192.918 98.3208 185.519 100.884 179.031 105.108C171.141 110.244 164.951 117.605 161.245 126.259C157.538 134.913 156.481 144.471 158.207 153.726C159.626 161.337 162.875 168.461 167.642 174.498C169.353 176.665 169.339 179.816 167.363 181.746L158.491 190.408Z"/>
</mask>
<path d="M158.491 190.408C156.515 192.337 153.334 192.31 151.551 190.202C143.726 180.95 138.418 169.8 136.186 157.833C133.648 144.223 135.203 130.166 140.654 117.439C146.105 104.713 155.207 93.8886 166.81 86.3354C177.013 79.6937 188.746 75.8434 200.841 75.1236C203.598 74.9596 205.812 77.2434 205.779 80.0047L205.63 92.4038C205.597 95.165 203.326 97.3493 200.577 97.6059C192.918 98.3208 185.519 100.884 179.031 105.108C171.141 110.244 164.951 117.605 161.245 126.259C157.538 134.913 156.481 144.471 158.207 153.726C159.626 161.337 162.875 168.461 167.642 174.498C169.353 176.665 169.339 179.816 167.363 181.746L158.491 190.408Z" fill="url(#paint2_linear_2_2596)" stroke="#FAEFFC" stroke-width="1.6092" mask="url(#path-6-inside-2_2_2596)"/>
<g opacity="0.6" filter="url(#filter2_f_2_2596)">
<mask id="path-7-inside-3_2_2596" fill="white">
<path d="M235.606 195.803C238.721 201.147 236.932 208.099 231.159 210.322C220.089 214.586 208.054 215.989 196.187 214.309C184.319 212.628 173.147 207.94 163.695 200.77C158.767 197.032 158.978 189.856 163.454 185.587C167.93 181.317 174.972 181.623 180.167 184.98C185.924 188.7 192.454 191.157 199.327 192.13C206.2 193.103 213.156 192.555 219.719 190.58C225.642 188.798 232.492 190.458 235.606 195.803Z"/>
</mask>
<path d="M235.606 195.803C238.721 201.147 236.932 208.099 231.159 210.322C220.089 214.586 208.054 215.989 196.187 214.309C184.319 212.628 173.147 207.94 163.695 200.77C158.767 197.032 158.978 189.856 163.454 185.587C167.93 181.317 174.972 181.623 180.167 184.98C185.924 188.7 192.454 191.157 199.327 192.13C206.2 193.103 213.156 192.555 219.719 190.58C225.642 188.798 232.492 190.458 235.606 195.803Z" fill="url(#paint3_linear_2_2596)"/>
<path d="M235.606 195.803C238.721 201.147 236.932 208.099 231.159 210.322C220.089 214.586 208.054 215.989 196.187 214.309C184.319 212.628 173.147 207.94 163.695 200.77C158.767 197.032 158.978 189.856 163.454 185.587C167.93 181.317 174.972 181.623 180.167 184.98C185.924 188.7 192.454 191.157 199.327 192.13C206.2 193.103 213.156 192.555 219.719 190.58C225.642 188.798 232.492 190.458 235.606 195.803Z" stroke="#FAEFFC" stroke-width="1.6092" mask="url(#path-7-inside-3_2_2596)"/>
</g>
<mask id="path-8-inside-4_2_2596" fill="white">
<path d="M237.728 201.16C239.118 203.545 238.318 206.624 235.839 207.841C223.277 214.006 209.117 216.281 195.187 214.309C181.257 212.336 168.284 206.219 157.928 196.809C155.884 194.953 155.97 191.772 157.968 189.866L166.94 181.307C168.938 179.401 172.088 179.499 174.193 181.286C181.025 187.087 189.386 190.864 198.327 192.13C207.268 193.396 216.349 192.088 224.523 188.412C227.041 187.28 230.094 188.06 231.484 190.446L237.728 201.16Z"/>
</mask>
<path d="M237.728 201.16C239.118 203.545 238.318 206.624 235.839 207.841C223.277 214.006 209.117 216.281 195.187 214.309C181.257 212.336 168.284 206.219 157.928 196.809C155.884 194.953 155.97 191.772 157.968 189.866L166.94 181.307C168.938 179.401 172.088 179.499 174.193 181.286C181.025 187.087 189.386 190.864 198.327 192.13C207.268 193.396 216.349 192.088 224.523 188.412C227.041 187.28 230.094 188.06 231.484 190.446L237.728 201.16Z" fill="url(#paint4_linear_2_2596)" stroke="#FAEFFC" stroke-width="1.6092" mask="url(#path-8-inside-4_2_2596)"/>
<g opacity="0.58" filter="url(#filter3_f_2_2596)">
<mask id="path-9-inside-5_2_2596" fill="white">
<path d="M262.746 130.595C268.716 128.975 274.965 132.507 275.614 138.658C276.838 150.262 275.147 162.051 270.613 172.93C266.078 183.809 258.896 193.309 249.794 200.609C244.968 204.479 238.06 202.527 235.009 197.146C231.957 191.766 233.968 185.011 238.489 180.789C243.401 176.201 247.318 170.595 249.937 164.312C252.555 158.03 253.779 151.301 253.579 144.583C253.395 138.4 256.777 132.216 262.746 130.595Z"/>
</mask>
<path d="M262.746 130.595C268.716 128.975 274.965 132.507 275.614 138.658C276.838 150.262 275.147 162.051 270.613 172.93C266.078 183.809 258.896 193.309 249.794 200.609C244.968 204.479 238.06 202.527 235.009 197.146C231.957 191.766 233.968 185.011 238.489 180.789C243.401 176.201 247.318 170.595 249.937 164.312C252.555 158.03 253.779 151.301 253.579 144.583C253.395 138.4 256.777 132.216 262.746 130.595Z" fill="url(#paint5_linear_2_2596)"/>
<path d="M262.746 130.595C268.716 128.975 274.965 132.507 275.614 138.658C276.838 150.262 275.147 162.051 270.613 172.93C266.078 183.809 258.896 193.309 249.794 200.609C244.968 204.479 238.06 202.527 235.009 197.146C231.957 191.766 233.968 185.011 238.489 180.789C243.401 176.201 247.318 170.595 249.937 164.312C252.555 158.03 253.779 151.301 253.579 144.583C253.395 138.4 256.777 132.216 262.746 130.595Z" stroke="#FAEFFC" stroke-width="1.6092" mask="url(#path-9-inside-5_2_2596)"/>
</g>
<mask id="path-10-inside-6_2_2596" fill="white">
<path d="M267.73 127.971C270.395 127.248 273.16 128.82 273.692 131.529C276.347 145.067 274.948 159.128 269.613 171.93C264.277 184.732 255.275 195.624 243.792 203.268C241.493 204.799 238.43 203.941 237.067 201.539L230.95 190.753C229.587 188.351 230.449 185.32 232.695 183.714C239.876 178.577 245.515 171.522 248.937 163.312C252.358 155.102 253.399 146.131 251.992 137.415C251.552 134.689 253.098 131.943 255.763 131.22L267.73 127.971Z"/>
</mask>
<path d="M267.73 127.971C270.395 127.248 273.16 128.82 273.692 131.529C276.347 145.067 274.948 159.128 269.613 171.93C264.277 184.732 255.275 195.624 243.792 203.268C241.493 204.799 238.43 203.941 237.067 201.539L230.95 190.753C229.587 188.351 230.449 185.32 232.695 183.714C239.876 178.577 245.515 171.522 248.937 163.312C252.358 155.102 253.399 146.131 251.992 137.415C251.552 134.689 253.098 131.943 255.763 131.22L267.73 127.971Z" fill="url(#paint6_linear_2_2596)" stroke="#FAEFFC" stroke-width="1.6092" mask="url(#path-10-inside-6_2_2596)"/>
<path d="M185.946 133.624H178.818V137.386C179.126 137.005 179.566 136.697 180.138 136.462C180.71 136.213 181.319 136.088 181.964 136.088C183.137 136.088 184.098 136.345 184.846 136.858C185.594 137.371 186.137 138.031 186.474 138.838C186.811 139.63 186.98 140.481 186.98 141.39C186.98 143.077 186.496 144.433 185.528 145.46C184.575 146.487 183.211 147 181.436 147C179.764 147 178.429 146.582 177.432 145.746C176.435 144.91 175.87 143.817 175.738 142.468H178.73C178.862 143.055 179.155 143.524 179.61 143.876C180.079 144.228 180.673 144.404 181.392 144.404C182.257 144.404 182.91 144.133 183.35 143.59C183.79 143.047 184.01 142.329 184.01 141.434C184.01 140.525 183.783 139.835 183.328 139.366C182.888 138.882 182.235 138.64 181.37 138.64C180.754 138.64 180.241 138.794 179.83 139.102C179.419 139.41 179.126 139.821 178.95 140.334H176.002V130.918H185.946V133.624ZM193.042 143.766L190.468 149.948H188.488L189.918 143.766H193.042ZM203.226 134.966C203.079 134.35 202.823 133.888 202.456 133.58C202.104 133.272 201.591 133.118 200.916 133.118C199.904 133.118 199.156 133.529 198.672 134.35C198.203 135.157 197.961 136.477 197.946 138.31C198.298 137.723 198.811 137.269 199.486 136.946C200.161 136.609 200.894 136.44 201.686 136.44C202.639 136.44 203.483 136.645 204.216 137.056C204.949 137.467 205.521 138.068 205.932 138.86C206.343 139.637 206.548 140.576 206.548 141.676C206.548 142.717 206.335 143.649 205.91 144.47C205.499 145.277 204.891 145.907 204.084 146.362C203.277 146.817 202.317 147.044 201.202 147.044C199.677 147.044 198.474 146.707 197.594 146.032C196.729 145.357 196.12 144.419 195.768 143.216C195.431 141.999 195.262 140.503 195.262 138.728C195.262 136.044 195.724 134.02 196.648 132.656C197.572 131.277 199.031 130.588 201.026 130.588C202.566 130.588 203.761 131.006 204.612 131.842C205.463 132.678 205.954 133.719 206.086 134.966H203.226ZM200.982 138.97C200.205 138.97 199.552 139.197 199.024 139.652C198.496 140.107 198.232 140.767 198.232 141.632C198.232 142.497 198.474 143.179 198.958 143.678C199.457 144.177 200.153 144.426 201.048 144.426C201.84 144.426 202.463 144.184 202.918 143.7C203.387 143.216 203.622 142.563 203.622 141.742C203.622 140.891 203.395 140.217 202.94 139.718C202.5 139.219 201.847 138.97 200.982 138.97ZM211.666 138.508C210.2 137.745 209.466 136.565 209.466 134.966C209.466 134.174 209.664 133.455 210.06 132.81C210.471 132.15 211.08 131.629 211.886 131.248C212.708 130.852 213.705 130.654 214.878 130.654C216.052 130.654 217.042 130.852 217.848 131.248C218.67 131.629 219.278 132.15 219.674 132.81C220.085 133.455 220.29 134.174 220.29 134.966C220.29 135.773 220.092 136.484 219.696 137.1C219.3 137.701 218.772 138.171 218.112 138.508C218.919 138.86 219.55 139.373 220.004 140.048C220.459 140.723 220.686 141.522 220.686 142.446C220.686 143.443 220.43 144.316 219.916 145.064C219.418 145.797 218.728 146.362 217.848 146.758C216.968 147.154 215.978 147.352 214.878 147.352C213.778 147.352 212.788 147.154 211.908 146.758C211.043 146.362 210.354 145.797 209.84 145.064C209.342 144.316 209.092 143.443 209.092 142.446C209.092 141.522 209.32 140.723 209.774 140.048C210.229 139.359 210.86 138.845 211.666 138.508ZM217.298 135.406C217.298 134.687 217.078 134.13 216.638 133.734C216.213 133.338 215.626 133.14 214.878 133.14C214.145 133.14 213.558 133.338 213.118 133.734C212.693 134.13 212.48 134.695 212.48 135.428C212.48 136.088 212.7 136.616 213.14 137.012C213.595 137.408 214.174 137.606 214.878 137.606C215.582 137.606 216.162 137.408 216.616 137.012C217.071 136.601 217.298 136.066 217.298 135.406ZM214.878 139.85C214.042 139.85 213.36 140.063 212.832 140.488C212.319 140.913 212.062 141.522 212.062 142.314C212.062 143.047 212.312 143.649 212.81 144.118C213.324 144.573 214.013 144.8 214.878 144.8C215.744 144.8 216.426 144.565 216.924 144.096C217.423 143.627 217.672 143.033 217.672 142.314C217.672 141.537 217.416 140.935 216.902 140.51C216.389 140.07 215.714 139.85 214.878 139.85ZM226.683 142.49C226.8 143.135 227.064 143.634 227.475 143.986C227.9 144.323 228.465 144.492 229.169 144.492C230.078 144.492 230.738 144.118 231.149 143.37C231.56 142.607 231.765 141.331 231.765 139.542C231.428 140.011 230.951 140.378 230.335 140.642C229.734 140.906 229.081 141.038 228.377 141.038C227.438 141.038 226.588 140.847 225.825 140.466C225.077 140.07 224.483 139.491 224.043 138.728C223.603 137.951 223.383 137.012 223.383 135.912C223.383 134.284 223.867 132.993 224.835 132.04C225.803 131.072 227.123 130.588 228.795 130.588C230.878 130.588 232.344 131.255 233.195 132.59C234.06 133.925 234.493 135.934 234.493 138.618C234.493 140.525 234.324 142.087 233.987 143.304C233.664 144.521 233.1 145.445 232.293 146.076C231.501 146.707 230.416 147.022 229.037 147.022C227.952 147.022 227.028 146.817 226.265 146.406C225.502 145.981 224.916 145.431 224.505 144.756C224.109 144.067 223.882 143.311 223.823 142.49H226.683ZM229.015 138.53C229.778 138.53 230.379 138.295 230.819 137.826C231.259 137.357 231.479 136.726 231.479 135.934C231.479 135.069 231.244 134.401 230.775 133.932C230.32 133.448 229.697 133.206 228.905 133.206C228.113 133.206 227.482 133.455 227.013 133.954C226.558 134.438 226.331 135.083 226.331 135.89C226.331 136.667 226.551 137.305 226.991 137.804C227.446 138.288 228.12 138.53 229.015 138.53Z" fill="#0D2052"/>
<path d="M196.505 157.242L192.823 167H191.353L187.671 157.242H189.029L192.095 165.656L195.161 157.242H196.505ZM197.426 163.136C197.426 162.352 197.585 161.666 197.902 161.078C198.22 160.481 198.654 160.019 199.204 159.692C199.764 159.365 200.385 159.202 201.066 159.202C201.738 159.202 202.322 159.347 202.816 159.636C203.311 159.925 203.68 160.289 203.922 160.728V159.328H205.21V167H203.922V165.572C203.67 166.02 203.292 166.393 202.788 166.692C202.294 166.981 201.715 167.126 201.052 167.126C200.371 167.126 199.755 166.958 199.204 166.622C198.654 166.286 198.22 165.815 197.902 165.208C197.585 164.601 197.426 163.911 197.426 163.136ZM203.922 163.15C203.922 162.571 203.806 162.067 203.572 161.638C203.339 161.209 203.022 160.882 202.62 160.658C202.228 160.425 201.794 160.308 201.318 160.308C200.842 160.308 200.408 160.42 200.016 160.644C199.624 160.868 199.312 161.195 199.078 161.624C198.845 162.053 198.728 162.557 198.728 163.136C198.728 163.724 198.845 164.237 199.078 164.676C199.312 165.105 199.624 165.437 200.016 165.67C200.408 165.894 200.842 166.006 201.318 166.006C201.794 166.006 202.228 165.894 202.62 165.67C203.022 165.437 203.339 165.105 203.572 164.676C203.806 164.237 203.922 163.729 203.922 163.15ZM208.637 156.64V167H207.363V156.64H208.637ZM211.466 158.082C211.224 158.082 211.018 157.998 210.85 157.83C210.682 157.662 210.598 157.457 210.598 157.214C210.598 156.971 210.682 156.766 210.85 156.598C211.018 156.43 211.224 156.346 211.466 156.346C211.7 156.346 211.896 156.43 212.054 156.598C212.222 156.766 212.306 156.971 212.306 157.214C212.306 157.457 212.222 157.662 212.054 157.83C211.896 157.998 211.7 158.082 211.466 158.082ZM212.082 159.328V167H210.808V159.328H212.082ZM213.778 163.136C213.778 162.352 213.936 161.666 214.254 161.078C214.571 160.481 215.005 160.019 215.556 159.692C216.116 159.365 216.741 159.202 217.432 159.202C218.029 159.202 218.584 159.342 219.098 159.622C219.611 159.893 220.003 160.252 220.274 160.7V156.64H221.562V167H220.274V165.558C220.022 166.015 219.648 166.393 219.154 166.692C218.659 166.981 218.08 167.126 217.418 167.126C216.736 167.126 216.116 166.958 215.556 166.622C215.005 166.286 214.571 165.815 214.254 165.208C213.936 164.601 213.778 163.911 213.778 163.136ZM220.274 163.15C220.274 162.571 220.157 162.067 219.924 161.638C219.69 161.209 219.373 160.882 218.972 160.658C218.58 160.425 218.146 160.308 217.67 160.308C217.194 160.308 216.76 160.42 216.368 160.644C215.976 160.868 215.663 161.195 215.43 161.624C215.196 162.053 215.08 162.557 215.08 163.136C215.08 163.724 215.196 164.237 215.43 164.676C215.663 165.105 215.976 165.437 216.368 165.67C216.76 165.894 217.194 166.006 217.67 166.006C218.146 166.006 218.58 165.894 218.972 165.67C219.373 165.437 219.69 165.105 219.924 164.676C220.157 164.237 220.274 163.729 220.274 163.15Z" fill="#989898"/>
<circle cx="86.5" cy="255" r="6.5" fill="#3FDCAA"/>
<path d="M105.614 250.624L102.542 259H100.502L97.4297 250.624H99.2297L101.534 257.284L103.826 250.624H105.614ZM106.189 255.652C106.189 254.98 106.321 254.384 106.585 253.864C106.857 253.344 107.221 252.944 107.677 252.664C108.141 252.384 108.657 252.244 109.225 252.244C109.721 252.244 110.153 252.344 110.521 252.544C110.897 252.744 111.197 252.996 111.421 253.3V252.352H113.113V259H111.421V258.028C111.205 258.34 110.905 258.6 110.521 258.808C110.145 259.008 109.709 259.108 109.213 259.108C108.653 259.108 108.141 258.964 107.677 258.676C107.221 258.388 106.857 257.984 106.585 257.464C106.321 256.936 106.189 256.332 106.189 255.652ZM111.421 255.676C111.421 255.268 111.341 254.92 111.181 254.632C111.021 254.336 110.805 254.112 110.533 253.96C110.261 253.8 109.969 253.72 109.657 253.72C109.345 253.72 109.057 253.796 108.793 253.948C108.529 254.1 108.313 254.324 108.145 254.62C107.985 254.908 107.905 255.252 107.905 255.652C107.905 256.052 107.985 256.404 108.145 256.708C108.313 257.004 108.529 257.232 108.793 257.392C109.065 257.552 109.353 257.632 109.657 257.632C109.969 257.632 110.261 257.556 110.533 257.404C110.805 257.244 111.021 257.02 111.181 256.732C111.341 256.436 111.421 256.084 111.421 255.676ZM116.434 250.12V259H114.754V250.12H116.434ZM118.946 251.56C118.65 251.56 118.402 251.468 118.202 251.284C118.01 251.092 117.914 250.856 117.914 250.576C117.914 250.296 118.01 250.064 118.202 249.88C118.402 249.688 118.65 249.592 118.946 249.592C119.242 249.592 119.486 249.688 119.678 249.88C119.878 250.064 119.978 250.296 119.978 250.576C119.978 250.856 119.878 251.092 119.678 251.284C119.486 251.468 119.242 251.56 118.946 251.56ZM119.774 252.352V259H118.094V252.352H119.774ZM121.001 255.652C121.001 254.98 121.133 254.384 121.397 253.864C121.669 253.344 122.037 252.944 122.501 252.664C122.965 252.384 123.481 252.244 124.049 252.244C124.481 252.244 124.893 252.34 125.285 252.532C125.677 252.716 125.989 252.964 126.221 253.276V250.12H127.925V259H126.221V258.016C126.013 258.344 125.721 258.608 125.345 258.808C124.969 259.008 124.533 259.108 124.037 259.108C123.477 259.108 122.965 258.964 122.501 258.676C122.037 258.388 121.669 257.984 121.397 257.464C121.133 256.936 121.001 256.332 121.001 255.652ZM126.233 255.676C126.233 255.268 126.153 254.92 125.993 254.632C125.833 254.336 125.617 254.112 125.345 253.96C125.073 253.8 124.781 253.72 124.469 253.72C124.157 253.72 123.869 253.796 123.605 253.948C123.341 254.1 123.125 254.324 122.957 254.62C122.797 254.908 122.717 255.252 122.717 255.652C122.717 256.052 122.797 256.404 122.957 256.708C123.125 257.004 123.341 257.232 123.605 257.392C123.877 257.552 124.165 257.632 124.469 257.632C124.781 257.632 125.073 257.556 125.345 257.404C125.617 257.244 125.833 257.02 125.993 256.732C126.153 256.436 126.233 256.084 126.233 255.676Z" fill="#666666"/>
<circle cx="168.5" cy="255" r="6.5" fill="#719DEC"/>
<path d="M181.807 250.624V259H180.127V250.624H181.807ZM187.151 252.256C187.943 252.256 188.583 252.508 189.071 253.012C189.559 253.508 189.803 254.204 189.803 255.1V259H188.123V255.328C188.123 254.8 187.991 254.396 187.727 254.116C187.463 253.828 187.103 253.684 186.647 253.684C186.183 253.684 185.815 253.828 185.543 254.116C185.279 254.396 185.147 254.8 185.147 255.328V259H183.467V252.352H185.147V253.18C185.371 252.892 185.655 252.668 185.999 252.508C186.351 252.34 186.735 252.256 187.151 252.256ZM194.172 257.452L195.852 252.352H197.64L195.18 259H193.14L190.692 252.352H192.492L194.172 257.452ZM198.152 255.652C198.152 254.98 198.284 254.384 198.548 253.864C198.82 253.344 199.184 252.944 199.64 252.664C200.104 252.384 200.62 252.244 201.188 252.244C201.684 252.244 202.116 252.344 202.484 252.544C202.86 252.744 203.16 252.996 203.384 253.3V252.352H205.076V259H203.384V258.028C203.168 258.34 202.868 258.6 202.484 258.808C202.108 259.008 201.672 259.108 201.176 259.108C200.616 259.108 200.104 258.964 199.64 258.676C199.184 258.388 198.82 257.984 198.548 257.464C198.284 256.936 198.152 256.332 198.152 255.652ZM203.384 255.676C203.384 255.268 203.304 254.92 203.144 254.632C202.984 254.336 202.768 254.112 202.496 253.96C202.224 253.8 201.932 253.72 201.62 253.72C201.308 253.72 201.02 253.796 200.756 253.948C200.492 254.1 200.276 254.324 200.108 254.62C199.948 254.908 199.868 255.252 199.868 255.652C199.868 256.052 199.948 256.404 200.108 256.708C200.276 257.004 200.492 257.232 200.756 257.392C201.028 257.552 201.316 257.632 201.62 257.632C201.932 257.632 202.224 257.556 202.496 257.404C202.768 257.244 202.984 257.02 203.144 256.732C203.304 256.436 203.384 256.084 203.384 255.676ZM208.397 250.12V259H206.717V250.12H208.397ZM210.909 251.56C210.613 251.56 210.365 251.468 210.165 251.284C209.973 251.092 209.877 250.856 209.877 250.576C209.877 250.296 209.973 250.064 210.165 249.88C210.365 249.688 210.613 249.592 210.909 249.592C211.205 249.592 211.449 249.688 211.641 249.88C211.841 250.064 211.941 250.296 211.941 250.576C211.941 250.856 211.841 251.092 211.641 251.284C211.449 251.468 211.205 251.56 210.909 251.56ZM211.737 252.352V259H210.057V252.352H211.737ZM212.964 255.652C212.964 254.98 213.096 254.384 213.36 253.864C213.632 253.344 214 252.944 214.464 252.664C214.928 252.384 215.444 252.244 216.012 252.244C216.444 252.244 216.856 252.34 217.248 252.532C217.64 252.716 217.952 252.964 218.184 253.276V250.12H219.888V259H218.184V258.016C217.976 258.344 217.684 258.608 217.308 258.808C216.932 259.008 216.496 259.108 216 259.108C215.44 259.108 214.928 258.964 214.464 258.676C214 258.388 213.632 257.984 213.36 257.464C213.096 256.936 212.964 256.332 212.964 255.652ZM218.196 255.676C218.196 255.268 218.116 254.92 217.956 254.632C217.796 254.336 217.58 254.112 217.308 253.96C217.036 253.8 216.744 253.72 216.432 253.72C216.12 253.72 215.832 253.796 215.568 253.948C215.304 254.1 215.088 254.324 214.92 254.62C214.76 254.908 214.68 255.252 214.68 255.652C214.68 256.052 214.76 256.404 214.92 256.708C215.088 257.004 215.304 257.232 215.568 257.392C215.84 257.552 216.128 257.632 216.432 257.632C216.744 257.632 217.036 257.556 217.308 257.404C217.58 257.244 217.796 257.02 217.956 256.732C218.116 256.436 218.196 256.084 218.196 255.676Z" fill="#666666"/>
<circle cx="260.5" cy="255" r="6.5" fill="#FF5E6C"/>
<path d="M271.441 254.8C271.441 253.976 271.625 253.24 271.993 252.592C272.369 251.936 272.877 251.428 273.517 251.068C274.165 250.7 274.889 250.516 275.689 250.516C276.625 250.516 277.445 250.756 278.149 251.236C278.853 251.716 279.345 252.38 279.625 253.228H277.693C277.501 252.828 277.229 252.528 276.877 252.328C276.533 252.128 276.133 252.028 275.677 252.028C275.189 252.028 274.753 252.144 274.369 252.376C273.993 252.6 273.697 252.92 273.481 253.336C273.273 253.752 273.169 254.24 273.169 254.8C273.169 255.352 273.273 255.84 273.481 256.264C273.697 256.68 273.993 257.004 274.369 257.236C274.753 257.46 275.189 257.572 275.677 257.572C276.133 257.572 276.533 257.472 276.877 257.272C277.229 257.064 277.501 256.76 277.693 256.36H279.625C279.345 257.216 278.853 257.884 278.149 258.364C277.453 258.836 276.633 259.072 275.689 259.072C274.889 259.072 274.165 258.892 273.517 258.532C272.877 258.164 272.369 257.656 271.993 257.008C271.625 256.36 271.441 255.624 271.441 254.8ZM280.628 255.652C280.628 254.98 280.76 254.384 281.024 253.864C281.296 253.344 281.66 252.944 282.116 252.664C282.58 252.384 283.096 252.244 283.664 252.244C284.16 252.244 284.592 252.344 284.96 252.544C285.336 252.744 285.636 252.996 285.86 253.3V252.352H287.552V259H285.86V258.028C285.644 258.34 285.344 258.6 284.96 258.808C284.584 259.008 284.148 259.108 283.652 259.108C283.092 259.108 282.58 258.964 282.116 258.676C281.66 258.388 281.296 257.984 281.024 257.464C280.76 256.936 280.628 256.332 280.628 255.652ZM285.86 255.676C285.86 255.268 285.78 254.92 285.62 254.632C285.46 254.336 285.244 254.112 284.972 253.96C284.7 253.8 284.408 253.72 284.096 253.72C283.784 253.72 283.496 253.796 283.232 253.948C282.968 254.1 282.752 254.324 282.584 254.62C282.424 254.908 282.344 255.252 282.344 255.652C282.344 256.052 282.424 256.404 282.584 256.708C282.752 257.004 282.968 257.232 283.232 257.392C283.504 257.552 283.792 257.632 284.096 257.632C284.408 257.632 284.7 257.556 284.972 257.404C285.244 257.244 285.46 257.02 285.62 256.732C285.78 256.436 285.86 256.084 285.86 255.676ZM291.149 253.732V256.948C291.149 257.172 291.201 257.336 291.305 257.44C291.417 257.536 291.601 257.584 291.857 257.584H292.637V259H291.581C290.165 259 289.457 258.312 289.457 256.936V253.732H288.665V252.352H289.457V250.708H291.149V252.352H292.637V253.732H291.149ZM293.414 255.676C293.414 254.988 293.554 254.388 293.834 253.876C294.114 253.356 294.502 252.956 294.998 252.676C295.494 252.388 296.062 252.244 296.702 252.244C297.526 252.244 298.206 252.452 298.742 252.868C299.286 253.276 299.65 253.852 299.834 254.596H298.022C297.926 254.308 297.762 254.084 297.53 253.924C297.306 253.756 297.026 253.672 296.69 253.672C296.21 253.672 295.83 253.848 295.55 254.2C295.27 254.544 295.13 255.036 295.13 255.676C295.13 256.308 295.27 256.8 295.55 257.152C295.83 257.496 296.21 257.668 296.69 257.668C297.37 257.668 297.814 257.364 298.022 256.756H299.834C299.65 257.476 299.286 258.048 298.742 258.472C298.198 258.896 297.518 259.108 296.702 259.108C296.062 259.108 295.494 258.968 294.998 258.688C294.502 258.4 294.114 258 293.834 257.488C293.554 256.968 293.414 256.364 293.414 255.676ZM304.808 252.256C305.312 252.256 305.76 252.368 306.152 252.592C306.544 252.808 306.848 253.132 307.064 253.564C307.288 253.988 307.4 254.5 307.4 255.1V259H305.72V255.328C305.72 254.8 305.588 254.396 305.324 254.116C305.06 253.828 304.7 253.684 304.244 253.684C303.78 253.684 303.412 253.828 303.14 254.116C302.876 254.396 302.744 254.8 302.744 255.328V259H301.064V250.12H302.744V253.18C302.96 252.892 303.248 252.668 303.608 252.508C303.968 252.34 304.368 252.256 304.808 252.256ZM314.11 254.008V255.424H309.022V254.008H314.11ZM315.562 255.652C315.562 254.98 315.694 254.384 315.958 253.864C316.23 253.344 316.594 252.944 317.05 252.664C317.514 252.384 318.03 252.244 318.598 252.244C319.094 252.244 319.526 252.344 319.894 252.544C320.27 252.744 320.57 252.996 320.794 253.3V252.352H322.486V259H320.794V258.028C320.578 258.34 320.278 258.6 319.894 258.808C319.518 259.008 319.082 259.108 318.586 259.108C318.026 259.108 317.514 258.964 317.05 258.676C316.594 258.388 316.23 257.984 315.958 257.464C315.694 256.936 315.562 256.332 315.562 255.652ZM320.794 255.676C320.794 255.268 320.714 254.92 320.554 254.632C320.394 254.336 320.178 254.112 319.906 253.96C319.634 253.8 319.342 253.72 319.03 253.72C318.718 253.72 318.43 253.796 318.166 253.948C317.902 254.1 317.686 254.324 317.518 254.62C317.358 254.908 317.278 255.252 317.278 255.652C317.278 256.052 317.358 256.404 317.518 256.708C317.686 257.004 317.902 257.232 318.166 257.392C318.438 257.552 318.726 257.632 319.03 257.632C319.342 257.632 319.634 257.556 319.906 257.404C320.178 257.244 320.394 257.02 320.554 256.732C320.714 256.436 320.794 256.084 320.794 255.676ZM325.807 250.12V259H324.127V250.12H325.807ZM329.147 250.12V259H327.467V250.12H329.147Z" fill="#666666"/>
</g>
<defs>
<filter id="filter0_d_2_2596" x="0" y="0" width="410" height="314" filterUnits="userSpaceOnUse" color-interpolation-filters="sRGB">
<feFlood flood-opacity="0" result="BackgroundImageFix"/>
<feColorMatrix in="SourceAlpha" type="matrix" values="0 0 0 0 0 0 0 0 0 0 0 0 0 0 0 0 0 0 127 0" result="hardAlpha"/>
<feMorphology radius="8" operator="erode" in="SourceAlpha" result="effect1_dropShadow_2_2596"/>
<feOffset dy="2"/>
<feGaussianBlur stdDeviation="7.5"/>
<feComposite in2="hardAlpha" operator="out"/>
<feColorMatrix type="matrix" values="0 0 0 0 0.0767133 0 0 0 0 0.0311 0 0 0 0 0.259167 0 0 0 0.28 0"/>
<feBlend mode="normal" in2="BackgroundImageFix" result="effect1_dropShadow_2_2596"/>
<feBlend mode="normal" in="SourceGraphic" in2="effect1_dropShadow_2_2596" result="shape"/>
</filter>
<filter id="filter1_f_2_2596" x="127" y="67.6606" width="86.7053" height="129.55" filterUnits="userSpaceOnUse" color-interpolation-filters="sRGB">
<feFlood flood-opacity="0" result="BackgroundImageFix"/>
<feBlend mode="normal" in="SourceGraphic" in2="BackgroundImageFix" result="shape"/>
<feGaussianBlur stdDeviation="4" result="effect1_foregroundBlur_2_2596"/>
</filter>
<filter id="filter2_f_2_2596" x="152.048" y="174.422" width="93.0724" height="48.5776" filterUnits="userSpaceOnUse" color-interpolation-filters="sRGB">
<feFlood flood-opacity="0" result="BackgroundImageFix"/>
<feBlend mode="normal" in="SourceGraphic" in2="BackgroundImageFix" result="shape"/>
<feGaussianBlur stdDeviation="4" result="effect1_foregroundBlur_2_2596"/>
</filter>
<filter id="filter3_f_2_2596" x="225.55" y="122.203" width="58.4503" height="88.4336" filterUnits="userSpaceOnUse" color-interpolation-filters="sRGB">
<feFlood flood-opacity="0" result="BackgroundImageFix"/>
<feBlend mode="normal" in="SourceGraphic" in2="BackgroundImageFix" result="shape"/>
<feGaussianBlur stdDeviation="4" result="effect1_foregroundBlur_2_2596"/>
</filter>
<linearGradient id="paint0_linear_2_2596" x1="205" y1="5" x2="205" y2="305" gradientUnits="userSpaceOnUse">
<stop stop-color="#FCFCFC"/>
<stop offset="1" stop-color="#FAF5FF"/>
</linearGradient>
<linearGradient id="paint1_linear_2_2596" x1="196.5" y1="81" x2="152.5" y2="186" gradientUnits="userSpaceOnUse">
<stop stop-color="#23DFA1"/>
<stop offset="1" stop-color="#51D9B0"/>
</linearGradient>
<linearGradient id="paint2_linear_2_2596" x1="196.5" y1="81" x2="152.5" y2="186" gradientUnits="userSpaceOnUse">
<stop stop-color="#51D9B0"/>
<stop offset="1" stop-color="#21CC93"/>
</linearGradient>
<linearGradient id="paint3_linear_2_2596" x1="161.5" y1="188.5" x2="241.5" y2="200.5" gradientUnits="userSpaceOnUse">
<stop stop-color="#719DEC"/>
<stop offset="1" stop-color="#E6E9F5"/>
</linearGradient>
<linearGradient id="paint4_linear_2_2596" x1="160.5" y1="188.5" x2="240.5" y2="200.5" gradientUnits="userSpaceOnUse">
<stop stop-color="#719DEC"/>
<stop offset="1" stop-color="#5370F5"/>
</linearGradient>
<linearGradient id="paint5_linear_2_2596" x1="268.5" y1="131.5" x2="233.5" y2="201" gradientUnits="userSpaceOnUse">
<stop stop-color="#FFAA70"/>
<stop offset="1" stop-color="#FF476A"/>
</linearGradient>
<linearGradient id="paint6_linear_2_2596" x1="267.5" y1="130.5" x2="232.5" y2="200" gradientUnits="userSpaceOnUse">
<stop stop-color="#FF476A"/>
<stop offset="1" stop-color="#FFAA70"/>
</linearGradient>
</defs>
</svg>
