<svg xmlns="http://www.w3.org/2000/svg" width="270" height="222" fill="none"><g filter="url(#a)"><rect width="256" height="208" x="7" y="5" fill="url(#b)" rx="16"/><rect width="246.5" height="198.5" x="11.75" y="9.75" stroke="#EBF0FF" stroke-width="1.5" rx="13.25"/><g clip-path="url(#c)"><mask id="d" width="127" height="86" x="-23" y="27" maskUnits="userSpaceOnUse" style="mask-type:alpha"><path fill="#000" d="M15.625 48.25v.112h.047l.032-.032-.079-.08Zm5.25-5.25v-.112h-.047l-.032.032.079.08Zm12.75 0v.112h.04l.031-.025-.071-.087Zm4.125-3.375v-.112h-.04l-.031.025.071.087Zm3.15 0a.6.6 0 1 0 1.2 0 .6.6 0 0 0-1.2 0Zm-59.025 8.737h33.75v-.224h-33.75v.224Zm33.83-.032 5.25-5.25-.16-.16-5.25 5.25.16.16Zm5.17-5.218h12.75v-.224h-12.75v.224Zm12.821-.025 4.125-3.375-.142-.174-4.125 3.375.142.174Zm4.054-3.35h3.75v-.224h-3.75v.224ZM19.375 53.875v.112h.043l.032-.028-.075-.084Zm3.75-3.375v-.112h-.043l-.032.028.075.084Zm12 0v.112h.04l.03-.024-.07-.088Zm3.75-3v-.112h-.04l-.03.024.07.088Zm13.275 0a.6.6 0 1 0 1.2 0 .6.6 0 0 0-1.2 0Zm-61.275 6.487h28.5v-.224h-28.5v.224Zm28.575-.028 3.75-3.375-.15-.168-3.75 3.375.15.168Zm3.675-3.347h12v-.224h-12v.224Zm12.07-.024 3.75-3-.14-.176-3.75 3 .14.176Zm3.68-2.976H52.75v-.224H38.875v.224ZM32.75 61.75a.5.5 0 1 0 1 0 .5.5 0 0 0-1 0Zm5 0 .05-.08-.023-.014h-.027v.094Zm4.125 2.625-.05.08.023.014h.027v-.094Zm4.5 0v.094h.039l.027-.028-.066-.066ZM51.25 59.5v-.094h-.039l-.027.028.066.066Zm8.875 0a.5.5 0 1 0 1 0 .5.5 0 0 0-1 0ZM33.25 61.844h4.5v-.188h-4.5v.188Zm4.45-.015 4.125 2.625.1-.158L37.8 61.67l-.1.158Zm4.175 2.64h4.5v-.188h-4.5v.188Zm4.566-.028 4.875-4.875-.132-.132-4.875 4.875.132.132Zm4.809-4.847h9.375v-.188H51.25v.188ZM27 60.25a1 1 0 1 0 2 0 1 1 0 0 0-2 0Zm5.875 0v.188h.066l.051-.042-.117-.146Zm3.75-3v-.188h-.066l-.051.042.117.146Zm13.875 0v.188h.074l.054-.05-.128-.138ZM56.125 52v-.188h-.074l-.054.05.128.138Zm21.5 0a1 1 0 1 0 2 0 1 1 0 0 0-2 0ZM28 60.438h4.875v-.376H28v.376Zm4.992-.042 3.75-3-.234-.292-3.75 3 .234.292Zm3.633-2.959H50.5v-.374H36.625v.374Zm14.003-.05 5.625-5.25-.256-.274-5.625 5.25.256.274Zm5.497-5.2h22.5v-.374h-22.5v.374ZM23.375 80.5a.5.5 0 1 0 1 0 .5.5 0 0 0-1 0Zm4.25 0v.094h.031l.025-.019-.056-.075Zm4.5-3.375v-.094h-.031l-.025.019.056.075Zm12.75 0v.094h.036l.027-.025-.063-.069Zm4.5-4.125v-.094h-.036l-.027.025.063.069Zm7.375 0a.5.5 0 1 0 1 0 .5.5 0 0 0-1 0Zm-32.875 7.594h3.75v-.188h-3.75v.188Zm3.806-.019 4.5-3.375-.112-.15-4.5 3.375.112.15Zm4.444-3.356h12.75v-.188h-12.75v.188Zm12.813-.025 4.5-4.125-.126-.138-4.5 4.125.126.138Zm4.437-4.1h7.875v-.188h-7.875v.188ZM35 79.75a.5.5 0 1 0 1 0 .5.5 0 0 0-1 0Zm13.25 0v.094h.034l.026-.022-.06-.072Zm2.25-1.875v-.094h-.034l-.026.022.06.072Zm5.625 0v.094h.035l.027-.024-.062-.07ZM62.5 72.25v-.094h-.035l-.027.024.062.07Zm10.75 0a.5.5 0 1 0 1 0 .5.5 0 0 0-1 0ZM35.5 79.844h12.75v-.188H35.5v.188Zm12.81-.022 2.25-1.875-.12-.144-2.25 1.875.12.144Zm2.19-1.853h5.625v-.188H50.5v.188Zm5.687-.024 6.375-5.625-.124-.14-6.375 5.625.124.14Zm6.313-5.601h11.25v-.188H62.5v.188ZM46.7 92.125a.8.8 0 1 0 1.6 0 .8.8 0 0 0-1.6 0Zm16.175 0v.15h.057l.043-.038-.1-.112Zm3.375-3v-.15h-.057l-.043.038.1.112Zm12.375 0v.15h.066l.045-.05-.111-.1ZM82.375 85v-.15h-.066l-.045.05.111.1Zm12.375 0 .101-.11-.043-.04h-.058V85Zm3.7 4.125a.8.8 0 1 0 1.6 0 .8.8 0 0 0-1.6 0Zm-50.95 3.15h15.375v-.3H47.5v.3Zm15.475-.038 3.375-3-.2-.224-3.375 3 .2.224Zm3.275-2.962h12.375v-.3H66.25v.3Zm12.486-.05 3.75-4.124-.222-.202-3.75 4.125.222.202Zm3.639-4.075H94.75v-.3H82.375v.3Zm12.274-.04 4.5 4.126.202-.222-4.5-4.125-.202.222ZM25 91l.101-.11-.043-.04H25V91Zm4.5 4.125-.101.11.043.04h.058v-.15Zm2.95 0a.8.8 0 1 0 1.6 0 .8.8 0 0 0-1.6 0Zm-55.075-3.975H25v-.3h-47.625v.3Zm47.524-.04 4.5 4.126.202-.222-4.5-4.125-.202.222Zm4.601 4.165h3.75v-.3H29.5v.3Zm-15.375 6.975v.094h.026l.023-.014-.049-.08Zm6.75-4.125v-.094h-.026l-.023.014.049.08Zm5.5 0a.5.5 0 1 0 1 0 .5.5 0 0 0-1 0Zm-49 4.219h36.75v-.188h-36.75v.188Zm36.799-.014 6.75-4.125-.098-.16-6.75 4.125.098.16Zm6.701-4.111h6v-.188h-6v.188ZM19 109v.094h.034l.026-.022L19 109Zm18.375-15.375v-.094h-.034l-.026.022.06.072Zm28.125 0 .05-.08-.023-.014H65.5v.094Zm10.875 6.75-.05.08.023.014h.027v-.094Zm5.875 0a.5.5 0 1 0 1 0 .5.5 0 0 0-1 0Zm-104.875 8.719H19v-.188h-41.625v.188Zm41.685-.022 18.375-15.375-.12-.144-18.375 15.375.12.144Zm18.315-15.353H65.5v-.188H37.375v.188Zm28.076-.014 10.875 6.75.098-.16-10.875-6.75-.098.16Zm10.924 6.764h6.375v-.188h-6.375v.188ZM19.75 112v.319h.126l.092-.086-.218-.233Zm6-5.625v-.319h-.126l-.092.086.218.233Zm12.75 0v.319h.106l.085-.064-.191-.255Zm9-6.75v-.319h-.106l-.085.064.191.255Zm11.05 0a1.7 1.7 0 1 0 3.4 0 1.7 1.7 0 0 0-3.4 0ZM-23 112.319h42.75v-.638H-23v.638Zm42.968-.086 6-5.625-.436-.466-6 5.625.436.466Zm5.782-5.539H38.5v-.638H25.75v.638Zm12.941-.064 9-6.75-.382-.51-9 6.75.382.51Zm8.809-6.686h12.75v-.638H47.5v.638ZM31 83.5l.212-.309-.096-.066H31v.375Zm6 4.125-.212.309.096.066H37v-.375Zm13.5 0V88h.148l.108-.101-.256-.274Zm12-11.25V76h-.148l-.108.101.256.274Zm13.375 0a2 2 0 1 0 4 0 2 2 0 0 0-4 0ZM-23 83.875h54v-.75h-54v.75Zm53.788-.066 6 4.125.424-.618-6-4.125-.424.618ZM37 88h13.5v-.75H37V88Zm13.757-.101 12-11.25-.514-.548-12 11.25.514.548ZM62.5 76.75h15.375V76H62.5v.75ZM-1.25 56.875l.183-.214-.079-.067h-.104v.281Zm5.25 4.5-.183.214.079.067H4v-.281Zm15 0v.281h.109l.08-.073-.189-.208Zm8.25-7.5v-.281h-.109l-.08.073.189.208Zm13.875 0a1.5 1.5 0 1 0 3 0 1.5 1.5 0 0 0-3 0ZM-23 57.156h21.75v-.562H-23v.562Zm21.567-.067 5.25 4.5.366-.428-5.25-4.5-.366.428ZM4 61.656h15v-.562H4v.562Zm15.19-.073 8.25-7.5-.38-.416-8.25 7.5.38.416Zm8.06-7.427h15.375v-.562H27.25v.562ZM19.75 28l.233-.218-.095-.1h-.138V28ZM25 33.625l-.233.218.095.1H25v-.318Zm13.5 0 .204-.245-.089-.074H38.5v.319Zm9 7.5-.204.245.089.074h.115v-.319Zm11.05 0a1.7 1.7 0 1 0 3.4 0 1.7 1.7 0 0 0-3.4 0ZM-23 28.319h42.75v-.638H-23v.638Zm42.517-.101 5.25 5.625.466-.436-5.25-5.624-.466.434ZM25 33.944h13.5v-.638H25v.638Zm13.296-.074 9 7.5.408-.49-9-7.5-.408.49Zm9.204 7.574h12.75v-.638H47.5v.638ZM13 64l.104-.156-.047-.032H13V64Zm3.375 2.25-.104.156.047.031h.057v-.187Zm43.125 0v.188h.072l.053-.049-.125-.139ZM67 59.5v-.188h-.072l-.053.049.125.139Zm16.5 0v.188h.043l.038-.019-.081-.169Zm8.625-4.125v-.188h-.043l-.038.019.081.169Zm9.125 0a1 1 0 1 0 2 0 1 1 0 0 0-2 0ZM-23 64.188h36v-.376h-36v.376Zm35.896-.032 3.375 2.25.208-.312-3.375-2.25-.208.312Zm3.479 2.281H59.5v-.374H16.375v.374Zm43.25-.048 7.5-6.75-.25-.278-7.5 6.75.25.278ZM67 59.688h16.5v-.376H67v.376Zm16.58-.019 8.626-4.125-.162-.338-8.625 4.125.162.338Zm8.545-4.106h10.125v-.376H92.125v.376ZM56 85a.5.5 0 1 0 1 0 .5.5 0 0 0-1 0Zm2.75 0v.094h.039l.027-.028L58.75 85Zm6.75-6.75v-.094h-.039l-.027.028.066.066Zm7.875 0 .078-.052-.028-.042h-.05v.094Zm1.5 2.25-.078.052.028.042h.05V80.5Zm6.25 0a.5.5 0 1 0 1 0 .5.5 0 0 0-1 0ZM56.5 85.094h2.25v-.188H56.5v.188Zm2.316-.028 6.75-6.75-.132-.132-6.75 6.75.132.132Zm6.684-6.722h7.875v-.188H65.5v.188Zm7.797-.042 1.5 2.25.156-.104-1.5-2.25-.156.104Zm1.578 2.292h6.75v-.188h-6.75v.188Z"/></mask><g mask="url(#d)"><path fill="url(#e)" d="M12 17h95v111H12z"/></g></g><g clip-path="url(#f)"><mask id="g" width="127" height="86" x="166" y="21" maskUnits="userSpaceOnUse" style="mask-type:alpha"><path fill="#000" d="M254.375 85.75v-.112h-.047l-.033.032.08.08Zm-5.25 5.25v.112h.047l.033-.032-.08-.08Zm-12.75 0v-.112h-.04l-.031.025.071.087Zm-4.125 3.375v.112h.04l.031-.025-.071-.087Zm-3.15 0a.6.6 0 1 0-1.2 0 .6.6 0 0 0 1.2 0Zm59.025-8.737h-33.75v.224h33.75v-.224Zm-33.83.032-5.25 5.25.16.16 5.25-5.25-.16-.16Zm-5.17 5.218h-12.75v.224h12.75v-.224Zm-12.821.025-4.125 3.375.142.174 4.125-3.375-.142-.174Zm-4.054 3.35h-3.75v.224h3.75v-.224Zm18.375-14.138v-.112h-.043l-.032.028.075.084Zm-3.75 3.375v.112h.043l.032-.028-.075-.084Zm-12 0v-.112h-.039l-.031.024.07.088Zm-3.75 3v.112h.039l.031-.024-.07-.088Zm-13.275 0a.6.6 0 1 0-1.2 0 .6.6 0 0 0 1.2 0Zm61.275-6.487h-28.5v.224h28.5v-.224Zm-28.575.028-3.75 3.375.15.168 3.75-3.375-.15-.168Zm-3.675 3.347h-12v.224h12v-.224Zm-12.07.024-3.75 3 .14.176 3.75-3-.14-.176Zm-3.68 2.975H217.25v.225h13.875v-.224Zm6.125-14.137a.5.5 0 1 0-1 0 .5.5 0 0 0 1 0Zm-5 0-.05.08.023.014h.027v-.094Zm-4.125-2.625.05-.08-.023-.014h-.027v.094Zm-4.5 0v-.094h-.039l-.027.028.066.066ZM218.75 74.5v.094h.039l.027-.028-.066-.066Zm-8.875 0a.5.5 0 1 0-1 0 .5.5 0 0 0 1 0Zm26.875-2.344h-4.5v.188h4.5v-.188Zm-4.45.015-4.125-2.625-.1.158 4.125 2.625.1-.158Zm-4.175-2.64h-4.5v.188h4.5v-.188Zm-4.566.028-4.875 4.875.132.132 4.875-4.875-.132-.132Zm-4.809 4.847h-9.375v.188h9.375v-.188ZM243 73.75a1 1 0 1 0-2 0 1 1 0 0 0 2 0Zm-5.875 0v-.188h-.066l-.051.042.117.146Zm-3.75 3v.188h.066l.051-.042-.117-.146Zm-13.875 0v-.188h-.074l-.054.05.128.138ZM213.875 82v.188h.074l.054-.05-.128-.138Zm-21.5 0a1 1 0 1 0-2 0 1 1 0 0 0 2 0ZM242 73.562h-4.875v.376H242v-.376Zm-4.992.042-3.75 3 .234.292 3.75-3-.234-.292Zm-3.633 2.959H219.5v.374h13.875v-.374Zm-14.003.05-5.625 5.25.256.274 5.625-5.25-.256-.274Zm-5.497 5.2h-22.5v.374h22.5v-.374Zm32.75-28.313a.5.5 0 1 0-1 0 .5.5 0 0 0 1 0Zm-4.25 0v-.094h-.031l-.025.019.056.075Zm-4.5 3.375v.094h.031l.025-.019-.056-.075Zm-12.75 0v-.094h-.036l-.027.025.063.069Zm-4.5 4.125v.094h.036l.027-.025-.063-.069Zm-7.375 0a.5.5 0 1 0-1 0 .5.5 0 0 0 1 0Zm32.875-7.594h-3.75v.188h3.75v-.188Zm-3.806.019-4.5 3.375.112.15 4.5-3.375-.112-.15Zm-4.444 3.356h-12.75v.188h12.75v-.188Zm-12.813.025-4.5 4.125.126.138 4.5-4.125-.126-.138Zm-4.437 4.1h-7.875v.188h7.875v-.188ZM235 54.25a.5.5 0 1 0-1 0 .5.5 0 0 0 1 0Zm-13.25 0v-.094h-.034l-.026.022.06.072Zm-2.25 1.875v.094h.034l.026-.022-.06-.072Zm-5.625 0v-.094h-.035l-.027.024.062.07ZM207.5 61.75v.094h.035l.027-.024-.062-.07Zm-10.75 0a.5.5 0 1 0-1 0 .5.5 0 0 0 1 0Zm37.75-7.594h-12.75v.188h12.75v-.188Zm-12.81.022-2.25 1.875.12.144 2.25-1.875-.12-.144Zm-2.19 1.853h-5.625v.188h5.625v-.188Zm-5.687.024-6.375 5.625.124.14 6.375-5.625-.124-.14Zm-6.313 5.601h-11.25v.188h11.25v-.188Zm15.8-19.781a.8.8 0 1 0-1.6 0 .8.8 0 0 0 1.6 0Zm-16.175 0v-.15h-.057l-.043.038.1.112Zm-3.375 3v.15h.057l.043-.038-.1-.112Zm-12.375 0v-.15h-.066l-.045.05.111.1ZM187.625 49v.15h.066l.045-.05-.111-.1Zm-12.375 0-.101.11.043.04h.058V49Zm-3.7-4.125a.8.8 0 1 0-1.6 0 .8.8 0 0 0 1.6 0Zm50.95-3.15h-15.375v.3H222.5v-.3Zm-15.475.038-3.375 3 .2.224 3.375-3-.2-.224Zm-3.275 2.962h-12.375v.3h12.375v-.3Zm-12.486.05-3.75 4.124.222.202 3.75-4.125-.222-.202Zm-3.639 4.075H175.25v.3h12.375v-.3Zm-12.274.04-4.5-4.126-.202.222 4.5 4.125.202-.222ZM245 43l-.101.11.043.04H245V43Zm-4.5-4.125.101-.11-.043-.04h-.058v.15Zm-2.95 0a.8.8 0 1 0-1.6 0 .8.8 0 0 0 1.6 0Zm55.075 3.975H245v.3h47.625v-.3Zm-47.524.04-4.5-4.126-.202.222 4.5 4.125.202-.222Zm-4.601-4.165h-3.75v.3h3.75v-.3Zm15.375-6.975v-.094h-.026l-.023.014.049.08Zm-6.75 4.125v.094h.026l.023-.014-.049-.08Zm-5.5 0a.5.5 0 1 0-1 0 .5.5 0 0 0 1 0Zm49-4.219h-36.75v.188h36.75v-.188Zm-36.799.014-6.75 4.125.098.16 6.75-4.125-.098-.16Zm-6.701 4.111h-6v.188h6v-.188ZM251 25v-.094h-.034l-.026.022.06.072Zm-18.375 15.375v.094h.034l.026-.022-.06-.072Zm-28.125 0-.049.08.022.014h.027v-.094Zm-10.875-6.75.049-.08-.022-.014h-.027v.094Zm-5.875 0a.5.5 0 1 0-1 0 .5.5 0 0 0 1 0Zm104.875-8.719H251v.188h41.625v-.188Zm-41.685.022-18.375 15.375.12.144 18.375-15.375-.12-.144Zm-18.315 15.353H204.5v.188h28.125v-.188Zm-28.076.014-10.875-6.75-.098.16 10.875 6.75.098-.16Zm-10.924-6.764h-6.375v.188h6.375v-.188ZM250.25 22v-.319h-.126l-.092.086.218.233Zm-6 5.625v.319h.126l.092-.086-.218-.233Zm-12.75 0v-.319h-.106l-.085.064.191.255Zm-9 6.75v.319h.106l.085-.064-.191-.255Zm-11.05 0a1.7 1.7 0 1 0-3.4 0 1.7 1.7 0 0 0 3.4 0ZM293 21.681h-42.75v.638H293v-.638Zm-42.968.086-6 5.625.436.466 6-5.625-.436-.466Zm-5.782 5.54H231.5v.637h12.75v-.638Zm-12.941.063-9 6.75.382.51 9-6.75-.382-.51Zm-8.809 6.686h-12.75v.638h12.75v-.638ZM239 50.5l-.212.309.096.066H239V50.5Zm-6-4.125.212-.309-.096-.066H233v.375Zm-13.5 0V46h-.148l-.108.101.256.274Zm-12 11.25V58h.148l.108-.101-.256-.274Zm-13.375 0a2 2 0 1 0-4 0 2 2 0 0 0 4 0Zm98.875-7.5h-54v.75h54v-.75Zm-53.788.066-6-4.125-.424.618 6 4.125.424-.618ZM233 46h-13.5v.75H233V46Zm-13.756.101-12 11.25.512.548 12-11.25-.512-.548ZM207.5 57.25h-15.375V58H207.5v-.75Zm63.75 19.875-.183.213.079.068h.104v-.281Zm-5.25-4.5.183-.213-.079-.068H266v.281Zm-15 0v-.281h-.109l-.08.073.189.208Zm-8.25 7.5v.281h.109l.08-.073-.189-.208Zm-13.875 0a1.5 1.5 0 1 0-3 0 1.5 1.5 0 0 0 3 0ZM293 76.844h-21.75v.562H293v-.562Zm-21.567.068-5.25-4.5-.366.426 5.25 4.5.366-.426ZM266 72.344h-15v.562h15v-.562Zm-15.189.073-8.25 7.5.378.416 8.25-7.5-.378-.416Zm-8.061 7.427h-15.375v.562h15.375v-.562Zm7.5 26.156-.233.217.094.102h.139V106Zm-5.25-5.625.233-.217-.094-.102H245v.319Zm-13.5 0-.204.245.089.074h.115v-.319Zm-9-7.5.204-.245-.089-.074h-.115v.319Zm-11.05 0a1.7 1.7 0 1 0-3.4 0 1.7 1.7 0 0 0 3.4 0ZM293 105.681h-42.75v.638H293v-.638Zm-42.517.102-5.25-5.625-.466.434 5.25 5.625.466-.434ZM245 100.056h-13.5v.638H245v-.638Zm-13.296.074-9-7.5-.408.49 9 7.5.408-.49Zm-9.204-7.574h-12.75v.638h12.75v-.638ZM257 70l-.104.156.047.031H257V70Zm-3.375-2.25.104-.156-.047-.031h-.057v.187Zm-43.125 0v-.188h-.072l-.053.049.125.139ZM203 74.5v.188h.072l.053-.049L203 74.5Zm-16.5 0v-.188h-.043l-.038.019.081.169Zm-8.625 4.125v.188h.043l.038-.019-.081-.169Zm-9.125 0a1 1 0 1 0-2 0 1 1 0 0 0 2 0ZM293 69.812h-36v.376h36v-.376Zm-35.896.032-3.375-2.25-.208.312 3.375 2.25.208-.312Zm-3.479-2.281H210.5v.374h43.125v-.374Zm-43.25.048-7.5 6.75.25.278 7.5-6.75-.25-.278ZM203 74.312h-16.5v.376H203v-.376Zm-16.581.019-8.625 4.125.162.338 8.625-4.125-.162-.338Zm-8.544 4.106H167.75v.376h10.125v-.376ZM214 49a.5.5 0 1 0-1 0 .5.5 0 0 0 1 0Zm-2.75 0v-.094h-.039l-.027.028.066.066Zm-6.75 6.75v.094h.039l.027-.028-.066-.066Zm-7.875 0-.078.052.028.042h.05v-.094Zm-1.5-2.25.078-.052-.028-.042h-.05v.094Zm-6.25 0a.5.5 0 1 0-1 0 .5.5 0 0 0 1 0Zm24.625-4.594h-2.25v.188h2.25v-.188Zm-2.316.028-6.75 6.75.132.132 6.75-6.75-.132-.132Zm-6.684 6.722h-7.875v.188h7.875v-.188Zm-7.797.042-1.5-2.25-.156.104 1.5 2.25.156-.104Zm-1.578-2.292h-6.75v.188h6.75v-.188Z"/></mask><g mask="url(#g)"><path fill="url(#h)" d="M258 117h95v111h-95z" transform="rotate(180 258 117)"/></g></g><circle cx="135" cy="67" r="34.75" fill="url(#i)" stroke="url(#j)" stroke-width=".5"/><circle cx="135" cy="67" r="28.625" fill="url(#k)" stroke="url(#l)" stroke-width=".75"/><circle cx="135" cy="67" r="21.625" fill="url(#m)" stroke="url(#n)" stroke-width=".75"/><path stroke="#fff" stroke-linecap="round" stroke-linejoin="round" stroke-miterlimit="10" stroke-width="1.719" d="M128.125 60.844h13.75m-10.313 0v-1.547a3.438 3.438 0 0 1 6.876 0v1.547m0 3.437a3.438 3.438 0 0 1-6.876 0"/><path stroke="#fff" stroke-linecap="round" stroke-linejoin="round" stroke-miterlimit="10" stroke-width="1.719" d="m141.875 60.844 1.705 13.36a1.72 1.72 0 0 1-1.705 1.936h-13.75a1.72 1.72 0 0 1-1.705-1.935l1.705-13.361"/><path fill="#0084FF" d="M77.495 128.75v-3.536h7.072V150h-3.91v-21.25h-3.162Zm11.92 16.082v-2.924l11.425-16.388h4.692v15.946h3.162v3.366h-3.162V150h-3.808v-5.168H89.416Zm12.479-15.368-8.024 12.002h8.024v-12.002Zm12.085 20.774c-.702 0-1.292-.238-1.768-.714s-.714-1.065-.714-1.768c0-.703.238-1.292.714-1.768s1.066-.714 1.768-.714c.68 0 1.258.238 1.734.714s.714 1.065.714 1.768c0 .703-.238 1.292-.714 1.768a2.36 2.36 0 0 1-1.734.714Zm22.107-21.692h-11.39v6.766c.476-.635 1.179-1.167 2.108-1.598a7.253 7.253 0 0 1 3.026-.646c1.904 0 3.446.408 4.624 1.224 1.202.816 2.052 1.847 2.55 3.094.522 1.247.782 2.561.782 3.944 0 1.677-.328 3.173-.986 4.488-.634 1.292-1.598 2.312-2.89 3.06-1.269.748-2.833 1.122-4.692 1.122-2.47 0-4.454-.612-5.95-1.836-1.496-1.224-2.391-2.845-2.686-4.862h3.774c.25 1.065.805 1.915 1.666 2.55.862.612 1.938.918 3.23.918 1.61 0 2.811-.487 3.604-1.462.816-.975 1.224-2.267 1.224-3.876 0-1.632-.408-2.879-1.224-3.74-.816-.884-2.017-1.326-3.604-1.326-1.11 0-2.051.283-2.822.85-.748.544-1.292 1.292-1.632 2.244h-3.672v-14.314h14.96v3.4Zm31.133-2.176V150h-3.876v-16.184L156.135 150h-2.686l-7.242-16.184V150h-3.876v-23.63h4.182l8.296 18.53 8.262-18.53h4.148Zm23.353 12.988h-6.868v7.038H180.1v-7.038h-6.868v-3.264h6.868v-7.038h3.604v7.038h6.868v3.264Z"/><path fill="#666" d="M90.249 176.376c0 .331-.022.629-.064.896h-6.736c.053.704.314 1.269.784 1.696.47.427 1.045.64 1.728.64.981 0 1.674-.411 2.08-1.232h1.968a3.997 3.997 0 0 1-1.456 2c-.694.512-1.558.768-2.592.768-.843 0-1.6-.187-2.272-.56a4.182 4.182 0 0 1-1.568-1.6c-.374-.693-.56-1.493-.56-2.4 0-.907.181-1.701.544-2.384a3.936 3.936 0 0 1 1.552-1.6c.672-.373 1.44-.56 2.304-.56.832 0 1.573.181 2.224.544a3.84 3.84 0 0 1 1.52 1.536c.362.651.544 1.403.544 2.256Zm-1.904-.576c-.01-.672-.25-1.211-.72-1.616s-1.05-.608-1.744-.608c-.63 0-1.168.203-1.616.608-.448.395-.715.933-.8 1.616h4.88Zm3.09.784c0-.907.182-1.701.545-2.384a3.967 3.967 0 0 1 1.536-1.6c.65-.373 1.397-.56 2.24-.56 1.066 0 1.946.256 2.64.768.704.501 1.178 1.221 1.424 2.16h-1.968a2.081 2.081 0 0 0-.768-1.024c-.352-.245-.795-.368-1.328-.368-.747 0-1.344.267-1.792.8-.438.523-.656 1.259-.656 2.208 0 .949.218 1.691.656 2.224.448.533 1.045.8 1.792.8 1.056 0 1.754-.464 2.096-1.392h1.968c-.256.896-.736 1.611-1.44 2.144-.704.523-1.579.784-2.624.784-.843 0-1.59-.187-2.24-.56a4.103 4.103 0 0 1-1.536-1.6c-.363-.693-.544-1.493-.544-2.4Zm14.027 4.56c-.832 0-1.584-.187-2.256-.56a4.149 4.149 0 0 1-1.584-1.6c-.384-.693-.576-1.493-.576-2.4 0-.896.197-1.691.592-2.384a4.083 4.083 0 0 1 1.616-1.6c.682-.373 1.445-.56 2.288-.56.842 0 1.605.187 2.288.56a4.095 4.095 0 0 1 1.616 1.6c.394.693.592 1.488.592 2.384 0 .896-.203 1.691-.608 2.384a4.258 4.258 0 0 1-1.664 1.616 4.789 4.789 0 0 1-2.304.56Zm0-1.584c.469 0 .906-.112 1.312-.336.416-.224.752-.56 1.008-1.008.256-.448.384-.992.384-1.632 0-.64-.123-1.179-.368-1.616a2.479 2.479 0 0 0-.976-1.008 2.672 2.672 0 0 0-1.312-.336c-.47 0-.907.112-1.312.336-.395.224-.71.56-.944 1.008-.235.437-.352.976-.352 1.616 0 .949.24 1.685.72 2.208.49.512 1.104.768 1.84.768Zm17.051-7.52c.693 0 1.312.144 1.856.432a3.07 3.07 0 0 1 1.296 1.28c.32.565.48 1.248.48 2.048v5.2h-1.808v-4.928c0-.789-.198-1.392-.592-1.808-.395-.427-.934-.64-1.616-.64-.683 0-1.227.213-1.632.64-.395.416-.592 1.019-.592 1.808V181h-1.808v-4.928c0-.789-.198-1.392-.592-1.808-.395-.427-.934-.64-1.616-.64-.683 0-1.227.213-1.632.64-.395.416-.592 1.019-.592 1.808V181h-1.824v-8.816h1.824v1.008a3.025 3.025 0 0 1 1.136-.848 3.592 3.592 0 0 1 1.472-.304c.704 0 1.333.149 1.888.448.554.299.981.731 1.28 1.296.266-.533.682-.955 1.248-1.264a3.64 3.64 0 0 1 1.824-.48Zm11.933 1.456c.309-.427.731-.773 1.264-1.04a3.928 3.928 0 0 1 1.808-.416c.779 0 1.483.187 2.112.56.629.373 1.125.907 1.488 1.6.363.683.544 1.467.544 2.352 0 .885-.181 1.68-.544 2.384a4.123 4.123 0 0 1-1.504 1.632 3.945 3.945 0 0 1-2.096.576c-.683 0-1.291-.133-1.824-.4-.523-.267-.939-.608-1.248-1.024V181h-1.824v-11.84h1.824v4.336Zm5.36 3.056c0-.608-.128-1.131-.384-1.568a2.441 2.441 0 0 0-.992-1.008 2.627 2.627 0 0 0-2.624 0 2.7 2.7 0 0 0-.992 1.024c-.245.448-.368.976-.368 1.584 0 .608.123 1.141.368 1.6a2.7 2.7 0 0 0 .992 1.024 2.627 2.627 0 0 0 2.624 0 2.63 2.63 0 0 0 .992-1.056c.256-.459.384-.992.384-1.6Zm5.484-3.088a2.81 2.81 0 0 1 1.056-1.04c.448-.256.976-.384 1.584-.384v1.888h-.464c-.715 0-1.259.181-1.632.544-.363.363-.544.992-.544 1.888V181h-1.824v-8.816h1.824v1.28Zm3.708 3.088c0-.885.182-1.669.544-2.352a4.066 4.066 0 0 1 3.616-2.16c.694 0 1.296.139 1.808.416.523.267.939.603 1.248 1.008v-1.28h1.84V181h-1.84v-1.312c-.309.416-.73.763-1.264 1.04-.533.277-1.141.416-1.824.416a3.92 3.92 0 0 1-2.08-.576 4.288 4.288 0 0 1-1.504-1.632c-.362-.704-.544-1.499-.544-2.384Zm7.216.032c0-.608-.128-1.136-.384-1.584a2.58 2.58 0 0 0-.976-1.024 2.568 2.568 0 0 0-1.312-.352c-.469 0-.906.117-1.312.352a2.58 2.58 0 0 0-.992 1.008c-.245.437-.368.96-.368 1.568 0 .608.123 1.141.368 1.6.256.459.587.811.992 1.056a2.63 2.63 0 0 0 2.624 0 2.58 2.58 0 0 0 .976-1.024c.256-.459.384-.992.384-1.6Zm8.684-4.544c.693 0 1.312.144 1.856.432.555.288.987.715 1.296 1.28.309.565.464 1.248.464 2.048v5.2h-1.808v-4.928c0-.789-.197-1.392-.592-1.808-.395-.427-.933-.64-1.616-.64s-1.227.213-1.632.64c-.395.416-.592 1.019-.592 1.808V181h-1.824v-8.816h1.824v1.008a3.033 3.033 0 0 1 1.136-.848 3.706 3.706 0 0 1 1.488-.304Zm5.335 4.512c0-.885.181-1.669.544-2.352a4.056 4.056 0 0 1 3.632-2.16 4.01 4.01 0 0 1 1.696.384c.565.245 1.013.576 1.344.992v-4.256h1.84V181h-1.84v-1.328c-.299.427-.715.779-1.248 1.056-.523.277-1.126.416-1.808.416a4.028 4.028 0 0 1-2.112-.576 4.272 4.272 0 0 1-1.504-1.632c-.363-.704-.544-1.499-.544-2.384Zm7.216.032c0-.608-.128-1.136-.384-1.584a2.593 2.593 0 0 0-.976-1.024 2.574 2.574 0 0 0-1.312-.352c-.47 0-.907.117-1.312.352-.406.224-.736.56-.992 1.008-.246.437-.368.96-.368 1.568 0 .608.122 1.141.368 1.6.256.459.586.811.992 1.056a2.627 2.627 0 0 0 2.624 0c.405-.235.73-.576.976-1.024.256-.459.384-.992.384-1.6Zm7.435 4.56c-.693 0-1.317-.123-1.872-.368-.544-.256-.976-.597-1.296-1.024a2.596 2.596 0 0 1-.512-1.456h1.888c.032.373.208.688.528.944.331.245.742.368 1.232.368.512 0 .907-.096 1.184-.288.288-.203.432-.459.432-.768 0-.331-.16-.576-.48-.736-.309-.16-.805-.336-1.488-.528-.661-.181-1.2-.357-1.616-.528a2.91 2.91 0 0 1-1.088-.784c-.298-.352-.448-.816-.448-1.392 0-.469.139-.896.416-1.28.278-.395.672-.704 1.184-.928.523-.224 1.12-.336 1.792-.336 1.003 0 1.808.256 2.416.768.619.501.95 1.189.992 2.064h-1.824a1.3 1.3 0 0 0-.48-.944c-.288-.235-.677-.352-1.168-.352-.48 0-.848.091-1.104.272a.841.841 0 0 0-.384.72c0 .235.086.432.256.592.171.16.379.288.624.384.246.085.608.197 1.088.336.64.171 1.163.347 1.568.528a2.84 2.84 0 0 1 1.072.768c.299.341.454.795.464 1.36 0 .501-.138.949-.416 1.344-.277.395-.672.704-1.184.928-.501.224-1.093.336-1.776.336Z"/></g><defs><linearGradient id="b" x1="135" x2="135" y1="5" y2="213" gradientUnits="userSpaceOnUse"><stop stop-color="#FCFCFC"/><stop offset="1" stop-color="#FAF5FF"/></linearGradient><linearGradient id="e" x1="10.009" x2="106.431" y1="72.996" y2="72.996" gradientUnits="userSpaceOnUse"><stop stop-color="#CBE0FF" stop-opacity="0"/><stop offset="1" stop-color="#D1D6FF"/></linearGradient><linearGradient id="h" x1="256.009" x2="352.431" y1="172.996" y2="172.996" gradientUnits="userSpaceOnUse"><stop stop-color="#CBE0FF" stop-opacity="0"/><stop offset="1" stop-color="#D1D6FF"/></linearGradient><linearGradient id="i" x1="100" x2="170" y1="32" y2="102" gradientUnits="userSpaceOnUse"><stop stop-color="#A3D9FE" stop-opacity=".6"/><stop offset="1" stop-color="#B5D0F5" stop-opacity=".2"/></linearGradient><linearGradient id="j" x1="135" x2="135" y1="32" y2="102" gradientUnits="userSpaceOnUse"><stop stop-color="#D8ECFE"/><stop offset="1" stop-color="#70BDFF" stop-opacity="0"/></linearGradient><linearGradient id="k" x1="106" x2="164" y1="38" y2="96" gradientUnits="userSpaceOnUse"><stop stop-color="#89C4FE"/><stop offset="1" stop-color="#84B4F4" stop-opacity=".2"/></linearGradient><linearGradient id="l" x1="135" x2="135" y1="38" y2="96" gradientUnits="userSpaceOnUse"><stop stop-color="#DAEEFF"/><stop offset="1" stop-color="#70BDFF" stop-opacity="0"/></linearGradient><linearGradient id="m" x1="113" x2="157" y1="45" y2="89" gradientUnits="userSpaceOnUse"><stop stop-color="#75AFFE"/><stop offset="1" stop-color="#2C90F5"/></linearGradient><linearGradient id="n" x1="135" x2="135" y1="45" y2="89" gradientUnits="userSpaceOnUse"><stop stop-color="#CBE7FF"/><stop offset="1" stop-color="#70BDFF" stop-opacity="0"/></linearGradient><clipPath id="c"><path fill="#fff" d="M12 17h92v100H12z"/></clipPath><clipPath id="f"><path fill="#fff" d="M258 117h-92V17h92z"/></clipPath><filter id="a" width="270" height="222" x="0" y="0" color-interpolation-filters="sRGB" filterUnits="userSpaceOnUse"><feFlood flood-opacity="0" result="BackgroundImageFix"/><feColorMatrix in="SourceAlpha" result="hardAlpha" values="0 0 0 0 0 0 0 0 0 0 0 0 0 0 0 0 0 0 127 0"/><feMorphology in="SourceAlpha" radius="8" result="effect1_dropShadow_8067_623"/><feOffset dy="2"/><feGaussianBlur stdDeviation="7.5"/><feComposite in2="hardAlpha" operator="out"/><feColorMatrix values="0 0 0 0 0.0784314 0 0 0 0 0.0313726 0 0 0 0 0.258824 0 0 0 0.28 0"/><feBlend in2="BackgroundImageFix" result="effect1_dropShadow_8067_623"/><feBlend in="SourceGraphic" in2="effect1_dropShadow_8067_623" result="shape"/></filter></defs></svg>