<svg width="110" height="110" viewBox="0 0 110 110" fill="none" xmlns="http://www.w3.org/2000/svg">
<g filter="url(#filter0_d_174_1567)">
<rect x="20" y="10" width="70" height="70" rx="20" fill="url(#paint0_linear_174_1567)"/>
</g>
<path d="M42.3668 47.4203C43.959 47.4203 45.4004 46.7734 46.4441 45.7305C47.4895 44.6875 48.134 43.2461 48.134 41.6531C48.134 40.0602 47.4895 38.6195 46.4441 37.5742C45.4012 36.5312 43.9598 35.8867 42.3668 35.8867C40.7738 35.8867 39.3332 36.5312 38.2895 37.5742C37.2441 38.6195 36.5996 40.0609 36.5996 41.6531C36.5996 43.2453 37.2441 44.6867 38.2895 45.7305C39.3324 46.7742 40.7746 47.4203 42.3668 47.4203ZM40.4066 42.3672C40.7457 42.2273 41.1355 42.3867 41.277 42.7258C41.3215 42.8344 41.3723 42.932 41.4316 43.0203C41.6332 43.3281 41.9035 43.5055 42.1801 43.5805C42.4637 43.6578 42.7512 43.6336 42.9863 43.5359C43.0395 43.5141 43.0902 43.4875 43.1395 43.4539C43.1816 43.4273 43.2168 43.3984 43.2457 43.3695C43.3324 43.2812 43.3871 43.1703 43.4027 43.0594C43.416 42.9594 43.3941 42.8555 43.3316 42.7586C43.3074 42.7234 43.2809 42.6875 43.2496 42.6586C43.1277 42.5391 42.802 42.4641 42.459 42.382C41.8629 42.2422 41.2277 42.0922 40.727 41.5758C40.5387 41.3828 40.4012 41.1531 40.3176 40.907C40.2066 40.5813 40.1871 40.225 40.2621 39.8859C40.3371 39.543 40.5098 39.2102 40.7848 38.9445C40.9816 38.7516 41.2301 38.5945 41.5285 38.493C41.5816 38.475 41.6395 38.4578 41.6988 38.4422V37.8711C41.6988 37.5031 41.998 37.2047 42.3652 37.2047C42.7332 37.2047 43.0316 37.5039 43.0316 37.8711V38.4156C43.1379 38.4398 43.2441 38.4711 43.3441 38.5086C43.9043 38.7148 44.3738 39.118 44.5863 39.7484C44.6043 39.7992 44.6215 39.8547 44.6371 39.9164C44.7238 40.2727 44.5066 40.6336 44.1496 40.7203C43.7934 40.8086 43.4324 40.5898 43.3434 40.2328C43.3387 40.2148 43.3348 40.1953 43.3254 40.1727C43.2566 39.9688 43.0887 39.8313 42.8871 39.7563C42.7387 39.7031 42.577 39.6766 42.4129 39.6789H42.3512C42.2512 39.6836 42.1543 39.6992 42.0613 39.7211C42.0262 39.7297 41.9902 39.7406 41.9527 39.7523C41.8512 39.7875 41.7691 39.8391 41.709 39.8961C41.634 39.9711 41.5848 40.0664 41.5629 40.1664C41.5387 40.2727 41.5449 40.3813 41.5762 40.4789C41.598 40.543 41.634 40.6031 41.6777 40.6492C41.9059 40.8836 42.3465 40.9883 42.7582 41.0852C43.2871 41.2094 43.7855 41.3266 44.173 41.7055C44.2816 41.8094 44.3699 41.918 44.4434 42.0289C44.691 42.4078 44.773 42.8305 44.7176 43.2359C44.6645 43.6305 44.4809 44.0047 44.1949 44.2945C44.0949 44.3984 43.9848 44.4898 43.8668 44.5672C43.752 44.6422 43.6277 44.7086 43.4949 44.7641C43.3488 44.8242 43.1918 44.8727 43.0301 44.9055V45.4344C43.0301 45.8023 42.7309 46.1008 42.3637 46.1008C41.9957 46.1008 41.6973 45.8016 41.6973 45.4344V44.8258C41.1746 44.6531 40.6785 44.3055 40.3129 43.7477C40.2129 43.5945 40.1223 43.4242 40.0449 43.2359C39.9059 42.8984 40.0676 42.5086 40.4066 42.3672ZM36.9457 50.7648C36.7332 50.5523 36.6004 50.2578 36.6004 49.9344C36.6004 49.6086 36.7332 49.3141 36.9457 49.1016C37.1605 48.8867 37.4551 48.7539 37.7785 48.7539H46.9559C47.2793 48.7539 47.5738 48.8867 47.7887 49.1016C48.0012 49.3141 48.134 49.6086 48.134 49.9344C48.134 50.2578 48.0012 50.5523 47.7887 50.7648C47.5738 50.9797 47.2793 51.1125 46.9559 51.1125H37.7777C37.4551 51.1125 37.1605 50.9797 36.9457 50.7648ZM45.3207 54.1195C45.159 54.3453 45.0129 54.5734 44.8801 54.8039H37.7777C37.4543 54.8039 37.1598 54.6711 36.9449 54.4563C36.7324 54.2438 36.5996 53.9492 36.5996 53.6258C36.5996 53.3 36.7324 53.0055 36.9449 52.793C37.1598 52.5781 37.4543 52.4453 37.7777 52.4453H46.9707C46.6691 52.6687 46.384 52.9148 46.1199 53.1781C45.8301 53.4664 45.5645 53.7828 45.3207 54.1195ZM37.7777 56.1367H44.2801C44.1691 56.4648 44.0809 56.7992 44.0168 57.1352C43.9285 57.5844 43.8793 58.0391 43.873 58.4945H37.7777C37.4543 58.4945 37.1598 58.3617 36.9449 58.1469C36.7324 57.9344 36.5996 57.6398 36.5996 57.3164C36.5996 56.9906 36.7324 56.6961 36.9449 56.4836C37.1605 56.2695 37.4551 56.1367 37.7777 56.1367ZM69.9754 38.3609C68.2144 35.9383 65.7496 33.8945 62.9371 32.5281C62.4988 32.668 62.0184 32.7781 61.5105 32.8539C60.9879 32.9313 60.4324 32.9734 59.8582 32.9734C59.2848 32.9734 58.7285 32.9313 58.2059 32.8539C57.6988 32.7789 57.2207 32.668 56.7793 32.5281C55.2027 33.2945 53.7301 34.2773 52.4277 35.425C51.1098 36.5852 49.9699 37.9117 49.0793 39.3445C49.1879 39.6609 49.2738 39.9844 49.3387 40.3148C49.4207 40.7531 49.4652 41.2008 49.4652 41.6547C49.4652 42.7711 49.2059 43.8312 48.741 44.7773C48.3113 45.65 47.7113 46.4203 46.9801 47.0477C46.9871 47.1477 46.9957 47.2516 47.0043 47.3625L47.0113 47.4227C47.6801 47.4383 48.2848 47.7172 48.7277 48.1602C49.184 48.6141 49.4652 49.243 49.4652 49.9359C49.4652 50.4633 49.2988 50.957 49.0176 51.3625C50.2199 50.9438 51.5066 50.8313 52.7535 51.0211C54.3191 51.2625 55.823 51.982 57.023 53.1805C57.8199 53.9773 58.4051 54.9148 58.7793 55.918C59.0895 56.7461 59.2535 57.6164 59.2684 58.4867C59.4363 58.493 59.6316 58.4977 59.8574 58.4977C63.427 58.4977 66.6582 57.1336 68.9949 54.9258C71.3184 52.7289 72.7551 49.6953 72.7551 46.3445C72.7574 43.507 71.7145 40.75 69.9754 38.3609ZM63.0863 48.1578C63.0152 48.6828 62.7699 49.1813 62.391 49.5688C62.2559 49.7086 62.1074 49.8297 61.948 49.9344C61.7934 50.0359 61.6223 50.1273 61.4434 50.2023C61.1574 50.3195 60.8473 50.4016 60.5262 50.4414V51.5352C60.5262 51.9031 60.227 52.2016 59.8598 52.2016C59.4918 52.2016 59.1934 51.9023 59.1934 51.5352V50.3547C59.1777 50.35 59.1621 50.3461 59.1465 50.3414C58.3535 50.1289 57.5941 49.6352 57.0426 48.7938C56.9012 48.5789 56.7746 48.3375 56.6613 48.0719C56.5215 47.7328 56.6816 47.343 57.0223 47.2039C57.3613 47.0625 57.7512 47.2242 57.8902 47.5625C57.9676 47.7461 58.0566 47.9125 58.1559 48.0633C58.5105 48.6055 58.9926 48.9227 59.491 49.0578C59.9918 49.193 60.5074 49.1508 60.9309 48.9734C61.0324 48.9312 61.1277 48.8805 61.2191 48.8203C61.3012 48.7672 61.3738 48.707 61.4363 48.643C61.6176 48.457 61.7355 48.2219 61.7684 47.9805C61.7996 47.7523 61.7527 47.5109 61.609 47.2914C61.5605 47.2164 61.5027 47.1477 61.4363 47.0813C61.184 46.8352 60.6457 46.7094 60.077 46.5766C59.2223 46.3727 58.3121 46.1578 57.6207 45.4492C57.373 45.1969 57.1934 44.8914 57.0824 44.5633C56.934 44.1289 56.9074 43.6531 57.0074 43.2016C57.1074 42.743 57.3371 42.3023 57.7027 41.9484C57.966 41.6891 58.2988 41.4812 58.6996 41.3438C58.7949 41.3125 58.8965 41.282 59.0012 41.257C59.0652 41.2414 59.1293 41.2258 59.1941 41.2148V40.0742C59.1941 39.7063 59.4934 39.4078 59.8605 39.4078C60.2285 39.4078 60.527 39.707 60.527 40.0742V41.1859C60.766 41.2211 61.0027 41.2789 61.227 41.3633C61.9824 41.6422 62.6152 42.1828 62.9035 43.0289C62.9254 43.1 62.948 43.175 62.9676 43.257C63.0559 43.6133 62.8394 43.9742 62.4801 44.0609C62.1238 44.1492 61.7645 43.9305 61.6762 43.5734C61.6676 43.5359 61.6559 43.4961 61.641 43.4563C61.4996 43.0352 61.1668 42.7609 60.7684 42.6125C60.498 42.5125 60.2012 42.4688 59.9051 42.4727C59.8918 42.4727 59.8762 42.475 59.8605 42.475H59.852C59.6707 42.482 59.491 42.5063 59.3184 42.5484C59.2566 42.5641 59.1918 42.582 59.1277 42.6039C58.9215 42.675 58.7582 42.7766 58.6293 42.9008C58.4629 43.0625 58.3566 43.2687 58.3105 43.4836C58.2621 43.7047 58.273 43.9328 58.3441 44.1367C58.3926 44.2828 58.4707 44.4156 58.577 44.5242C58.9934 44.9516 59.709 45.1203 60.3816 45.2797C61.1348 45.457 61.8457 45.625 62.366 46.1305C62.5074 46.2703 62.6269 46.4164 62.7246 46.5648C63.0504 47.0641 63.159 47.6219 63.0863 48.1578ZM55.3465 26.4328C55.2512 26.2094 55.2293 25.9742 55.2777 25.7555C55.3246 25.5359 55.4395 25.3328 55.6145 25.175C55.7254 25.0734 55.8605 25.018 55.9957 25.007C56.1355 24.9961 56.277 25.0289 56.4035 25.1086L56.8863 25.4188C57.216 25.6289 57.584 25.7352 57.9535 25.7352V25.7375C58.3191 25.7375 58.6863 25.6313 59.0184 25.4188L59.5074 25.1039C59.6184 25.0328 59.7379 25 59.8598 25C59.9816 25 60.1012 25.0336 60.2121 25.1039L60.7012 25.4188C61.0355 25.6313 61.4012 25.7375 61.7684 25.7375C62.134 25.7375 62.5012 25.6313 62.8332 25.4188L63.316 25.1086C63.4426 25.0289 63.584 24.9953 63.7238 25.007C63.859 25.018 63.9941 25.0734 64.1051 25.175C64.2801 25.332 64.3949 25.5359 64.4418 25.7555C64.4902 25.975 64.4707 26.2094 64.373 26.4328L62.2512 31.3445C61.9629 31.4219 61.6535 31.4859 61.3191 31.5352C60.8652 31.6016 60.3738 31.6391 59.8598 31.6391C59.3457 31.6391 58.8543 31.6016 58.4004 31.5352C58.0684 31.4867 57.7559 31.4219 57.4699 31.3445L55.3465 26.4328ZM51.5723 52.2617C49.9355 52.2617 48.3012 52.882 47.0613 54.1219C45.823 55.3602 45.2035 56.9961 45.2035 58.6305C45.2035 60.2648 45.8238 61.9016 47.0613 63.1391C48.302 64.3797 49.9363 65 51.5723 65C53.2066 65 54.841 64.3797 56.0809 63.1398C57.3207 61.9016 57.9387 60.2656 57.9387 58.6313C57.9387 56.9969 57.3207 55.3602 56.0809 54.1227C54.841 52.8812 53.2066 52.2617 51.5723 52.2617ZM55.3215 57.2L51.5145 61.0047C51.2551 61.2664 50.8324 61.2664 50.573 61.0047L47.8207 58.2539C47.5613 57.993 47.5613 57.5719 47.8207 57.3102C48.0816 57.0508 48.5027 57.0508 48.7645 57.3102L51.0434 59.5914L54.3785 56.2562C54.6395 55.9953 55.0605 55.9953 55.3223 56.2562C55.5832 56.5156 55.5832 56.9391 55.3215 57.2Z" fill="white"/>
<defs>
<filter id="filter0_d_174_1567" x="0" y="0" width="110" height="110" filterUnits="userSpaceOnUse" color-interpolation-filters="sRGB">
<feFlood flood-opacity="0" result="BackgroundImageFix"/>
<feColorMatrix in="SourceAlpha" type="matrix" values="0 0 0 0 0 0 0 0 0 0 0 0 0 0 0 0 0 0 127 0" result="hardAlpha"/>
<feMorphology radius="2" operator="erode" in="SourceAlpha" result="effect1_dropShadow_174_1567"/>
<feOffset dy="10"/>
<feGaussianBlur stdDeviation="11"/>
<feComposite in2="hardAlpha" operator="out"/>
<feColorMatrix type="matrix" values="0 0 0 0 0.427451 0 0 0 0 0.670588 0 0 0 0 1 0 0 0 0.36 0"/>
<feBlend mode="normal" in2="BackgroundImageFix" result="effect1_dropShadow_174_1567"/>
<feBlend mode="normal" in="SourceGraphic" in2="effect1_dropShadow_174_1567" result="shape"/>
</filter>
<linearGradient id="paint0_linear_174_1567" x1="20" y1="10" x2="90" y2="80" gradientUnits="userSpaceOnUse">
<stop stop-color="#5CA1FE"/>
<stop offset="1" stop-color="#217BF4"/>
</linearGradient>
</defs>
</svg>
