<svg width="110" height="110" viewBox="0 0 110 110" fill="none" xmlns="http://www.w3.org/2000/svg">
<g filter="url(#filter0_d_174_1573)">
<rect x="20" y="10" width="70" height="70" rx="20" fill="url(#paint0_linear_174_1573)"/>
</g>
<path d="M36.5996 59.7059C36.5996 60.2912 37.0732 60.7646 37.6584 60.7646H71.5407C72.126 60.7646 72.5995 60.291 72.5995 59.7059V39.5882H36.5996V59.7059ZM55.6584 43.8235C55.6584 43.2382 56.132 42.7648 56.7172 42.7648H65.1878C65.7731 42.7648 66.2466 43.2384 66.2466 43.8235V56.5294C66.2466 57.1146 65.773 57.5882 65.1878 57.5882H56.7172C56.1319 57.5882 55.6584 57.1146 55.6584 56.5294V43.8235ZM42.9525 43.8235C42.9525 43.2382 43.4261 42.7648 44.0113 42.7648H52.4819C53.0672 42.7648 53.5407 43.2384 53.5407 43.8235V48.0588C53.5407 48.6441 53.0671 49.1176 52.4819 49.1176H44.0113C43.426 49.1176 42.9525 48.644 42.9525 48.0588V43.8235ZM44.0113 51.2352H52.4819C53.0672 51.2352 53.5407 51.7088 53.5407 52.294C53.5407 52.8792 53.0671 53.3528 52.4819 53.3528H44.0113C43.426 53.3528 42.9525 52.8792 42.9525 52.294C42.9525 51.7088 43.4261 51.2352 44.0113 51.2352ZM44.0113 55.4705H52.4819C53.0672 55.4705 53.5407 55.9441 53.5407 56.5294C53.5407 57.1146 53.0671 57.5882 52.4819 57.5882H44.0113C43.426 57.5882 42.9525 57.1146 42.9525 56.5294C42.9525 55.9441 43.4261 55.4705 44.0113 55.4705ZM64.129 44.8823H57.7761V55.4705H64.129V44.8823ZM51.4231 44.8823H45.0702V47H51.4231V44.8823ZM71.5408 29H37.6584C37.0731 29 36.5996 29.4736 36.5996 30.0588V37.4705H72.5996V30.0588C72.5996 29.4735 72.126 29 71.5408 29ZM41.8938 34.294C41.3091 34.294 40.835 33.8199 40.835 33.2352C40.835 32.6504 41.3091 32.1765 41.8938 32.1765C42.4785 32.1765 42.9525 32.6504 42.9525 33.2352C42.9525 33.8199 42.4785 34.294 41.8938 34.294ZM46.129 34.294C45.5443 34.294 45.0702 33.8199 45.0702 33.2352C45.0702 32.6504 45.5443 32.1765 46.129 32.1765C46.7137 32.1765 47.1878 32.6504 47.1878 33.2352C47.1879 33.8199 46.7137 34.294 46.129 34.294ZM50.3644 34.294C49.7797 34.294 49.3056 33.8199 49.3056 33.2352C49.3056 32.6504 49.7797 32.1765 50.3644 32.1765C50.9491 32.1765 51.4231 32.6504 51.4231 33.2352C51.4231 33.8199 50.9491 34.294 50.3644 34.294ZM67.3055 34.294H58.8349C58.2496 34.294 57.7761 33.8204 57.7761 33.2352C57.7761 32.6501 58.2497 32.1765 58.8349 32.1765H67.3055C67.8908 32.1765 68.3642 32.6501 68.3642 33.2352C68.3644 33.8205 67.8908 34.294 67.3055 34.294Z" fill="white"/>
<defs>
<filter id="filter0_d_174_1573" x="0" y="0" width="110" height="110" filterUnits="userSpaceOnUse" color-interpolation-filters="sRGB">
<feFlood flood-opacity="0" result="BackgroundImageFix"/>
<feColorMatrix in="SourceAlpha" type="matrix" values="0 0 0 0 0 0 0 0 0 0 0 0 0 0 0 0 0 0 127 0" result="hardAlpha"/>
<feMorphology radius="2" operator="erode" in="SourceAlpha" result="effect1_dropShadow_174_1573"/>
<feOffset dy="10"/>
<feGaussianBlur stdDeviation="11"/>
<feComposite in2="hardAlpha" operator="out"/>
<feColorMatrix type="matrix" values="0 0 0 0 0.427451 0 0 0 0 0.670588 0 0 0 0 1 0 0 0 0.36 0"/>
<feBlend mode="normal" in2="BackgroundImageFix" result="effect1_dropShadow_174_1573"/>
<feBlend mode="normal" in="SourceGraphic" in2="effect1_dropShadow_174_1573" result="shape"/>
</filter>
<linearGradient id="paint0_linear_174_1573" x1="20" y1="10" x2="90" y2="80" gradientUnits="userSpaceOnUse">
<stop stop-color="#5CA1FE"/>
<stop offset="1" stop-color="#217BF4"/>
</linearGradient>
</defs>
</svg>
