<svg width="110" height="110" viewBox="0 0 110 110" fill="none" xmlns="http://www.w3.org/2000/svg">
<g filter="url(#filter0_d_174_1633)">
<rect x="20" y="10" width="70" height="70" rx="20" fill="url(#paint0_linear_174_1633)"/>
</g>
<g clip-path="url(#clip0_174_1633)">
<path fill-rule="evenodd" clip-rule="evenodd" d="M62.0508 54.6316V52.552C62.0508 49.5199 60.7242 46.7832 58.6227 44.8941C59.6281 43.9621 60.9727 43.3902 62.4516 43.3902C64.0063 43.3902 65.4148 44.0215 66.4313 45.0379C67.45 46.0566 68.0812 47.4652 68.0812 49.0176C68.0812 50.5723 67.45 51.9809 66.4313 52.9973C65.4148 54.016 64.0063 54.6473 62.4516 54.6473C62.3172 54.6473 62.1844 54.6426 62.0508 54.6316ZM74.6102 47.3457L72.9141 46.7941C72.7234 46.7324 72.5906 46.5902 72.5422 46.3996C72.2961 45.4543 71.9219 44.559 71.4391 43.7402C71.3375 43.5676 71.3305 43.3723 71.4211 43.1957L72.232 41.6059C72.3453 41.3848 72.3055 41.1254 72.1281 40.9504L70.5227 39.3426C70.3477 39.1676 70.0883 39.1277 69.8672 39.241L68.2773 40.0512C68.1 40.1395 67.9055 40.1355 67.7328 40.0332C66.9133 39.5504 66.0188 39.1762 65.0734 38.9301C64.8828 38.8816 64.7414 38.7488 64.6789 38.5582L64.1273 36.8621C64.05 36.6254 63.8398 36.4723 63.5891 36.4723H61.3188C61.0688 36.4723 60.8578 36.6254 60.7805 36.8621L60.2289 38.5582C60.1672 38.7488 60.025 38.8816 59.8328 38.9301C58.8891 39.1762 57.9945 39.5504 57.175 40.0332C57.0023 40.1348 56.807 40.1395 56.6305 40.0512L55.0406 39.241C54.8195 39.1277 54.5602 39.1676 54.3852 39.3426L52.7773 40.9504C52.6023 41.1254 52.5625 41.3848 52.6758 41.6059L53.0453 42.3324C54.7219 42.5449 56.2742 43.1652 57.6031 44.0863C58.8523 42.8598 60.5641 42.0996 62.4531 42.0996C64.3641 42.0996 66.0938 42.8746 67.3453 44.1262C68.5984 45.3793 69.3719 47.109 69.3719 49.0184C69.3719 50.9293 68.5992 52.659 67.3453 53.9105C66.0938 55.1637 64.3648 55.9371 62.4531 55.9371C62.318 55.9371 62.1852 55.9348 62.0523 55.9262V60.1957C62.0523 60.6965 61.9125 61.166 61.6695 61.5668H63.5898C63.8398 61.5668 64.0508 61.4137 64.1281 61.177L64.6797 59.4785C64.7414 59.2902 64.8836 59.1574 65.0742 59.1066C66.0195 58.8629 66.9148 58.4887 67.7336 58.0059C67.9062 57.9043 68.1016 57.8973 68.2781 57.9879L69.868 58.7988C70.0891 58.9121 70.3484 58.8723 70.5234 58.6949L72.1289 57.0895C72.3063 56.9145 72.3461 56.6551 72.2328 56.434L71.4219 54.8418C71.3312 54.6645 71.3375 54.4723 71.4398 54.2996C71.9227 53.4801 72.2969 52.5855 72.5406 51.6402C72.5914 51.4496 72.7242 51.3059 72.9125 51.2457L74.6109 50.6941C74.8477 50.6168 75.0008 50.4066 75.0008 50.1559V47.8855C75 47.6332 74.8469 47.423 74.6102 47.3457ZM46.4516 51.9543L47.8797 54.4879L49.3078 51.9543L48.5992 43.541H47.1617L46.4516 51.9543ZM51.7469 43.541H49.893L50.6102 52.0402H50.6078C50.6164 52.1645 50.5922 52.2926 50.5258 52.4082L48.4422 56.1043C48.3867 56.2043 48.3023 56.2926 48.1945 56.352C47.8867 56.527 47.4945 56.416 47.3195 56.1082L45.2625 52.4605C45.1805 52.341 45.1359 52.1949 45.1492 52.0395L45.8664 43.5402H44.0125C39.0555 43.541 35 47.5957 35 52.552V60.1941C35 60.9473 35.618 61.5652 36.3734 61.5652H40.6516V56.1684C40.6516 55.8121 40.9398 55.5238 41.2961 55.5238C41.6523 55.5238 41.9406 55.8121 41.9406 56.1684V61.5652H53.8195V56.1684C53.8195 55.8121 54.107 55.5238 54.4641 55.5238C54.8203 55.5238 55.1109 55.8121 55.1109 56.1684V61.5652H59.3898C60.143 61.5652 60.7609 60.9473 60.7609 60.1941V52.552C60.7602 47.5957 56.7055 43.541 51.7469 43.541ZM47.8805 41.1605C51.3836 41.1605 54.243 38.3012 54.243 34.798C54.243 31.2926 51.3836 28.4355 47.8805 28.4355C44.3773 28.4355 41.518 31.2926 41.518 34.798C41.518 38.3012 44.3766 41.1605 47.8805 41.1605Z" fill="white"/>
</g>
<defs>
<filter id="filter0_d_174_1633" x="0" y="0" width="110" height="110" filterUnits="userSpaceOnUse" color-interpolation-filters="sRGB">
<feFlood flood-opacity="0" result="BackgroundImageFix"/>
<feColorMatrix in="SourceAlpha" type="matrix" values="0 0 0 0 0 0 0 0 0 0 0 0 0 0 0 0 0 0 127 0" result="hardAlpha"/>
<feMorphology radius="2" operator="erode" in="SourceAlpha" result="effect1_dropShadow_174_1633"/>
<feOffset dy="10"/>
<feGaussianBlur stdDeviation="11"/>
<feComposite in2="hardAlpha" operator="out"/>
<feColorMatrix type="matrix" values="0 0 0 0 0.427451 0 0 0 0 0.670588 0 0 0 0 1 0 0 0 0.36 0"/>
<feBlend mode="normal" in2="BackgroundImageFix" result="effect1_dropShadow_174_1633"/>
<feBlend mode="normal" in="SourceGraphic" in2="effect1_dropShadow_174_1633" result="shape"/>
</filter>
<linearGradient id="paint0_linear_174_1633" x1="20" y1="10" x2="90" y2="80" gradientUnits="userSpaceOnUse">
<stop stop-color="#5CA1FE"/>
<stop offset="1" stop-color="#217BF4"/>
</linearGradient>
<clipPath id="clip0_174_1633">
<rect width="40" height="40" fill="white" transform="translate(35 25)"/>
</clipPath>
</defs>
</svg>
