<svg width="110" height="110" viewBox="0 0 110 110" fill="none" xmlns="http://www.w3.org/2000/svg">
<g filter="url(#filter0_d_174_1587)">
<rect x="20" y="10" width="70" height="70" rx="20" fill="url(#paint0_linear_174_1587)"/>
</g>
<path d="M60.9454 41.4409C61.1785 41.9235 61.3366 42.4083 61.561 42.8713C61.7389 43.1806 62 43.4338 62.3146 43.602C62.6292 43.7702 62.9847 43.8467 63.3407 43.8227C63.6967 43.7988 64.0388 43.6755 64.3281 43.4667C64.6174 43.258 64.8423 42.9722 64.9772 42.6419C65.8264 40.4579 66.9154 38.3749 68.2244 36.4313C68.6812 35.6861 68.966 34.8483 69.0578 33.979C69.1497 33.1097 69.0464 32.2309 68.7554 31.4066C68.4644 30.5823 67.9931 29.8334 67.3759 29.2144C66.7587 28.5955 66.0111 28.1221 65.1876 27.8288C64.3642 27.5355 63.4857 27.4297 62.6161 27.5191C61.7466 27.6085 60.908 27.8909 60.1615 28.3456C59.4149 28.8003 58.7793 29.416 58.301 30.1476C57.8226 30.8792 57.5136 31.7084 57.3965 32.5746C57.2041 33.9419 57.5058 35.333 58.2474 36.4977C59.2678 38.0764 60.1696 39.7287 60.9454 41.4409ZM63.2148 29.8404C63.8003 29.8396 64.3767 29.9846 64.8921 30.2623C65.4075 30.54 65.8456 30.9417 66.1669 31.4311C66.4882 31.9205 66.6826 32.4822 66.7326 33.0655C66.7825 33.6488 66.6864 34.2354 66.453 34.7722C66.2195 35.3091 65.856 35.7794 65.3954 36.1407C64.9347 36.502 64.3913 36.7429 63.8142 36.8416C63.2372 36.9403 62.6446 36.8938 62.09 36.7063C61.5354 36.5187 61.0363 36.196 60.6376 35.7673C60.1769 35.2626 59.8722 34.6355 59.7601 33.9614C59.6479 33.2874 59.7333 32.5954 60.0057 31.9687C60.2782 31.3421 60.7262 30.8078 61.2956 30.4301C61.865 30.0525 62.5316 29.8477 63.2148 29.8404ZM63.2148 31.0475C63.8271 31.0523 64.4127 31.299 64.844 31.7336C65.2753 32.1683 65.5173 32.7558 65.5173 33.3682C65.5173 33.9805 65.2753 34.5681 64.844 35.0027C64.4127 35.4374 63.8271 35.6841 63.2148 35.6889C62.6025 35.6841 62.0169 35.4375 61.5856 35.0028C61.1543 34.5681 60.9123 33.9806 60.9123 33.3682C60.9123 32.7559 61.1543 32.1684 61.5856 31.7337C62.0168 31.299 62.6024 31.0524 63.2148 31.0475ZM71.2181 48.0801C70.8439 51.4111 69.4433 54.5433 67.2103 57.043C66.0012 54.0239 64.2302 50.0554 60.4384 50.0839C59.2526 50.0929 58.1069 50.5139 57.1974 51.2747C56.2879 52.0356 55.6712 53.089 55.453 54.2545L55.1391 55.9988C55.057 56.4622 54.8266 56.8863 54.4827 57.2075C54.1387 57.5286 53.6997 57.7293 53.2318 57.7794L52.4533 57.8638C51.4272 57.9664 49.5742 58.1596 48.7051 59.928C48.5328 60.2962 48.411 60.686 48.343 61.0869C47.4175 60.68 46.5324 60.1869 45.6994 59.6142L45.6994 58.1174C45.656 57.2142 45.7072 56.1951 46.4176 55.5401C46.6993 55.2619 47.0413 55.0524 47.4171 54.9278C47.7929 54.8033 48.1924 54.767 48.5844 54.8219C49.1399 54.8214 49.6848 54.6701 50.161 54.3841C50.6372 54.0982 51.0269 53.6883 51.2884 53.1983C51.7549 52.3254 51.886 51.3121 51.657 50.3493C51.4279 49.3865 50.8546 48.5407 50.045 47.9714L45.8865 45.0502C45.8273 45.009 45.7819 44.9511 45.756 44.8839C45.7301 44.8167 45.7249 44.7433 45.7412 44.6731C45.7574 44.603 45.7943 44.5393 45.8471 44.4903C45.8999 44.4413 45.9662 44.4093 46.0374 44.3983C46.4285 44.3431 46.8037 44.2061 47.1385 43.9964C47.4732 43.7866 47.7601 43.5088 47.9804 43.1809C48.2007 42.853 48.3495 42.4824 48.4172 42.0931C48.4849 41.7039 48.4699 41.3048 48.3732 40.9218C48.3148 40.6917 48.3082 40.4515 48.3538 40.2186C48.3994 39.9856 48.4962 39.7657 48.637 39.5746C48.7779 39.3835 48.9593 39.2261 49.1684 39.1136C49.3774 39.0011 49.6088 38.9363 49.8459 38.924L51.4392 38.8455C52.2169 38.7991 52.9516 38.4734 53.5082 37.9282C54.0647 37.3831 54.4056 36.6552 54.468 35.8787C54.5305 35.1021 54.3103 34.3292 53.8481 33.7021C53.3858 33.075 52.7126 32.636 51.9523 32.4659C50.9442 32.1994 48.9047 31.6597 47.9024 31.3916C50.6738 30.0563 53.7667 29.5331 56.8231 29.8826L57.0403 29.9188C56.4165 31.0278 56.1045 32.285 56.1375 33.557C56.1704 34.8289 56.547 36.0683 57.2274 37.1435C58.4315 38.9889 59.4562 40.9454 60.2875 42.986C60.0357 44.1241 60.1195 45.3108 60.5289 46.4021C62.2998 50.4142 66.5149 49.8334 69.9445 48.5146L71.2181 48.0801ZM71.3267 46.7463C68.2132 47.8356 63.5261 49.9969 61.6516 45.9555C61.4637 45.4679 61.3636 44.951 61.3558 44.4285C61.7386 44.7119 62.1813 44.9037 62.6499 44.9892C63.1185 45.0747 63.6004 45.0515 64.0586 44.9215C64.5168 44.7915 64.9391 44.5582 65.293 44.2393C65.6469 43.9205 65.9229 43.5248 66.0998 43.0826C66.8469 41.1494 67.7957 39.3003 68.9305 37.566L69.7634 39.1413C70.9036 41.5086 71.4406 44.1212 71.3267 46.7463ZM44.4923 57.3267L44.4925 58.7028C35.9199 51.7357 37.009 37.8456 46.3693 32.2305C47.4528 32.5227 50.547 33.3451 51.6746 33.6429C52.043 33.7239 52.3817 33.9057 52.6528 34.168C52.9239 34.4302 53.1169 34.7627 53.2102 35.1282C53.3034 35.4937 53.2933 35.8779 53.181 36.238C53.0687 36.5981 52.8585 36.92 52.574 37.1676C51.962 37.7774 50.5765 37.649 49.7916 37.7169C49.3765 37.7386 48.9714 37.8518 48.6052 38.0484C48.239 38.2449 47.9208 38.52 47.6733 38.854C47.4259 39.1879 47.2554 39.5724 47.1739 39.98C47.0925 40.3876 47.1021 40.8081 47.2022 41.2115C47.2586 41.4307 47.2681 41.6593 47.23 41.8823C47.1919 42.1054 47.1071 42.3179 46.9812 42.5059C46.8553 42.694 46.6911 42.8533 46.4993 42.9735C46.3076 43.0936 46.0926 43.172 45.8685 43.2033C45.5608 43.2535 45.2748 43.3935 45.0466 43.6058C44.8183 43.8182 44.6579 44.0932 44.5857 44.3965C44.5134 44.6997 44.5325 45.0176 44.6404 45.31C44.7484 45.6025 44.9404 45.8565 45.1924 46.04L49.3509 48.9553C51.1852 50.0849 50.9288 53.686 48.4396 53.6087C47.9322 53.5768 47.4238 53.6494 46.9457 53.822C46.4675 53.9945 46.0299 54.2634 45.6599 54.6119C45.2899 54.9605 44.9953 55.3812 44.7945 55.8482C44.5936 56.3151 44.4908 56.8184 44.4923 57.3267ZM66.299 57.9844C64.1433 60.0226 61.4774 61.4411 58.5826 62.0902C55.6878 62.7393 52.6714 62.5949 49.8519 61.6723C49.2023 61.6145 49.6179 60.947 49.8338 60.3867C50.4253 59.2882 51.5902 59.1675 52.5861 59.0649L53.3586 58.9804C54.0864 58.9014 54.769 58.5888 55.3043 58.0894C55.8396 57.59 56.1988 56.9306 56.3281 56.2101L56.642 54.4718C56.8066 53.5831 57.2757 52.7795 57.9685 52.1991C58.6613 51.6186 59.5346 51.2975 60.4384 51.2911C62.5763 51.2444 64.0546 53.1446 64.947 54.8762C65.2541 55.604 66.0051 57.2712 66.299 57.9844Z" fill="white"/>
<defs>
<filter id="filter0_d_174_1587" x="0" y="0" width="110" height="110" filterUnits="userSpaceOnUse" color-interpolation-filters="sRGB">
<feFlood flood-opacity="0" result="BackgroundImageFix"/>
<feColorMatrix in="SourceAlpha" type="matrix" values="0 0 0 0 0 0 0 0 0 0 0 0 0 0 0 0 0 0 127 0" result="hardAlpha"/>
<feMorphology radius="2" operator="erode" in="SourceAlpha" result="effect1_dropShadow_174_1587"/>
<feOffset dy="10"/>
<feGaussianBlur stdDeviation="11"/>
<feComposite in2="hardAlpha" operator="out"/>
<feColorMatrix type="matrix" values="0 0 0 0 0.427451 0 0 0 0 0.670588 0 0 0 0 1 0 0 0 0.36 0"/>
<feBlend mode="normal" in2="BackgroundImageFix" result="effect1_dropShadow_174_1587"/>
<feBlend mode="normal" in="SourceGraphic" in2="effect1_dropShadow_174_1587" result="shape"/>
</filter>
<linearGradient id="paint0_linear_174_1587" x1="20" y1="10" x2="90" y2="80" gradientUnits="userSpaceOnUse">
<stop stop-color="#5CA1FE"/>
<stop offset="1" stop-color="#217BF4"/>
</linearGradient>
</defs>
</svg>
