<svg width="110" height="110" viewBox="0 0 110 110" fill="none" xmlns="http://www.w3.org/2000/svg">
<g filter="url(#filter0_d_174_1617)">
<rect x="20" y="10" width="70" height="70" rx="20" fill="url(#paint0_linear_174_1617)"/>
</g>
<path fill-rule="evenodd" clip-rule="evenodd" d="M63.3032 50.3297C63.8071 49.9514 64.425 49.7565 65.0548 49.7771C65.6845 49.7978 66.2883 50.0329 66.7663 50.4434L70.8163 53.8929C71.2371 54.2442 71.5428 54.7137 71.6938 55.2406C71.8449 55.7675 71.8344 56.3276 71.6636 56.8485L71.4 57.6809C71.3163 57.9518 71.1925 58.2087 71.0328 58.4431C67.9388 56.232 65.0666 53.7259 62.4566 50.9602L63.3032 50.3297ZM41.5247 27.8046L42.3575 27.5419C42.6357 27.4541 42.9257 27.4093 43.2175 27.4089C43.6173 27.4092 44.0123 27.4972 44.3745 27.6667C44.7367 27.8361 45.0573 28.083 45.3137 28.3898L48.7635 32.4395C49.174 32.9176 49.4089 33.5215 49.4294 34.1513C49.4499 34.781 49.2548 35.3989 48.8762 35.9027L48.2461 36.7492C45.4807 34.1392 42.9749 31.2673 40.7636 28.1738C40.9979 28.0143 41.2544 27.8899 41.5247 27.8046ZM39.9189 29.135C37.9373 32.7978 37.118 35.3417 37.4861 36.6941C37.4896 36.7074 37.4923 36.7209 37.4943 36.7345C39.3293 47.5054 51.7012 59.8776 62.4716 61.7113C62.485 61.7136 62.4984 61.7169 62.5119 61.7206C63.865 62.0877 66.4088 61.2687 70.0728 59.2874C70.1993 59.2184 70.321 59.1412 70.4373 59.0562C67.3114 56.8125 64.4099 54.2716 61.7735 51.4689L61.3775 51.7636C60.768 52.2281 60.0252 52.4843 59.2589 52.4941C58.4926 52.504 57.7435 52.2671 57.1222 51.8185C53.1888 49.3439 49.8617 46.017 47.3871 42.0836C46.9385 41.4623 46.7017 40.7132 46.7116 39.9469C46.7216 39.1807 46.9778 38.4379 47.4423 37.8285L47.7379 37.4324C44.9347 34.7966 42.3936 31.8953 40.1503 28.769C40.0641 28.8849 39.9866 29.0074 39.9189 29.135ZM59.3497 42.6478V41.5516C59.3475 40.9935 59.4555 40.4404 59.6676 39.9242C59.8796 39.4079 60.1915 38.9386 60.5853 38.5432C60.9792 38.1478 61.4473 37.834 61.9627 37.6199C62.4781 37.4058 63.0307 37.2956 63.5888 37.2956C64.1469 37.2956 64.6995 37.4058 65.2149 37.6199C65.7303 37.834 66.1984 38.1478 66.5923 38.5432C66.9861 38.9386 67.298 39.4079 67.51 39.9242C67.7221 40.4404 67.8301 40.9935 67.8279 41.5516V42.6477C66.5489 43.4204 65.0831 43.8288 63.5888 43.8288C62.0945 43.8288 60.6287 43.4205 59.3497 42.6478ZM61.3309 33.9812C61.3309 33.5346 61.4634 33.098 61.7116 32.7267C61.9598 32.3553 62.3125 32.0659 62.7252 31.8951C63.1378 31.7242 63.5919 31.6796 64.0299 31.7668C64.468 31.854 64.8703 32.0691 65.1861 32.385C65.5018 32.7009 65.7168 33.1033 65.8039 33.5413C65.8909 33.9794 65.8461 34.4334 65.6751 34.846C65.5041 35.2586 65.2145 35.6113 64.8431 35.8593C64.4717 36.1073 64.0351 36.2397 63.5884 36.2396C62.9898 36.2388 62.4159 36.0006 61.9927 35.5772C61.5694 35.1539 61.3314 34.5799 61.3309 33.9812ZM68.6734 42.0604V41.5516C68.6722 40.4662 68.3244 39.4096 67.6806 38.5357C67.0367 37.6619 66.1306 37.0166 65.0943 36.6939C65.6959 36.3602 66.1696 35.8362 66.441 35.2041C66.7124 34.5721 66.7662 33.8677 66.5938 33.2018C66.4215 32.5358 66.0329 31.946 65.489 31.5249C64.945 31.1038 64.2766 30.8753 63.5887 30.8753C62.9008 30.8753 62.2324 31.1038 61.6885 31.5249C61.1446 31.946 60.7559 32.5358 60.5836 33.2018C60.4113 33.8677 60.4651 34.5721 60.7365 35.2041C61.0079 35.8362 61.4816 36.3602 62.0831 36.6939C61.0469 37.0167 60.1408 37.662 59.4969 38.5358C58.853 39.4096 58.505 40.4662 58.5036 41.5516V42.0604C57.1636 41.0037 56.1861 39.5558 55.707 37.9179C55.2278 36.28 55.2709 34.5335 55.8301 32.9212C56.3893 31.3089 57.437 29.9109 58.8274 28.9215C60.2179 27.9321 61.882 27.4004 63.5885 27.4004C65.2951 27.4004 66.9592 27.9321 68.3496 28.9215C69.7401 29.9109 70.7877 31.3089 71.3469 32.9212C71.9062 34.5335 71.9492 36.28 71.4701 37.9179C70.9909 39.5558 70.0134 41.0037 68.6734 42.0604Z" fill="white"/>
<g clip-path="url(#clip0_174_1617)">
<rect x="55" y="27" width="17" height="17" rx="8.5" fill="white"/>
<circle cx="63.5" cy="34.5" r="2.875" stroke="#408FFA" stroke-width="1.25"/>
<circle cx="63.5" cy="42.5" r="4.875" stroke="#408FFA" stroke-width="1.25"/>
</g>
<defs>
<filter id="filter0_d_174_1617" x="0" y="0" width="110" height="110" filterUnits="userSpaceOnUse" color-interpolation-filters="sRGB">
<feFlood flood-opacity="0" result="BackgroundImageFix"/>
<feColorMatrix in="SourceAlpha" type="matrix" values="0 0 0 0 0 0 0 0 0 0 0 0 0 0 0 0 0 0 127 0" result="hardAlpha"/>
<feMorphology radius="2" operator="erode" in="SourceAlpha" result="effect1_dropShadow_174_1617"/>
<feOffset dy="10"/>
<feGaussianBlur stdDeviation="11"/>
<feComposite in2="hardAlpha" operator="out"/>
<feColorMatrix type="matrix" values="0 0 0 0 0.427451 0 0 0 0 0.670588 0 0 0 0 1 0 0 0 0.36 0"/>
<feBlend mode="normal" in2="BackgroundImageFix" result="effect1_dropShadow_174_1617"/>
<feBlend mode="normal" in="SourceGraphic" in2="effect1_dropShadow_174_1617" result="shape"/>
</filter>
<linearGradient id="paint0_linear_174_1617" x1="20" y1="10" x2="90" y2="80" gradientUnits="userSpaceOnUse">
<stop stop-color="#5CA1FE"/>
<stop offset="1" stop-color="#217BF4"/>
</linearGradient>
<clipPath id="clip0_174_1617">
<rect x="55" y="27" width="17" height="17" rx="8.5" fill="white"/>
</clipPath>
</defs>
</svg>
