<svg width="110" height="110" viewBox="0 0 110 110" fill="none" xmlns="http://www.w3.org/2000/svg">
<g filter="url(#filter0_d_174_1626)">
<rect x="20" y="10" width="70" height="70" rx="20" fill="url(#paint0_linear_174_1626)"/>
</g>
<path d="M67.3974 32.6018C53.579 19.1175 31.4288 34.6945 39.4959 52.2374C39.728 52.701 39.7877 53.2321 39.6642 53.7357L37.5227 61.7085C37.4963 61.8146 37.4977 61.9257 37.527 62.0311C37.5562 62.1364 37.6122 62.2324 37.6895 62.3097C37.7668 62.387 37.8628 62.443 37.9681 62.4722C38.0735 62.5014 38.1846 62.5029 38.2907 62.4764L46.2635 60.335C46.7671 60.2115 47.2983 60.2712 47.7619 60.5035C65.3158 68.5837 80.8796 46.3734 67.3974 32.6018Z" fill="white"/>
<path d="M55.7493 57.3406C53.7678 57.3406 52.0099 57.0689 50.4759 56.5256C48.9482 55.9886 47.6602 55.196 46.6119 54.1477C45.5636 53.1058 44.7678 51.8274 44.2244 50.3125C43.6811 48.7976 43.4094 47.0685 43.4094 45.1254C43.4094 43.2333 43.6843 41.533 44.234 40.0245C44.7837 38.516 45.5827 37.2312 46.631 36.1701C47.6857 35.1026 48.9673 34.2876 50.4759 33.7251C51.9844 33.1626 53.6974 32.8814 55.6151 32.8814C57.4496 32.8814 59.0668 33.169 60.4666 33.7443C61.8665 34.3196 63.0426 35.109 63.995 36.1126C64.9538 37.1161 65.6761 38.2667 66.1619 39.5643C66.6477 40.8619 66.8906 42.233 66.8906 43.6776C66.8906 44.6875 66.8267 45.6751 66.6989 46.6403C66.571 47.5991 66.3345 48.4684 65.9893 49.2482C65.6506 50.0217 65.1584 50.6417 64.5128 51.1083C63.8736 51.5685 63.0426 51.8082 62.0199 51.8274C61.4766 51.8466 60.9492 51.7827 60.4379 51.6357C59.9265 51.4886 59.4918 51.2521 59.1339 50.9261C58.7759 50.5938 58.5586 50.1719 58.4819 49.6605H58.3668C58.2134 50.0376 57.9577 50.3892 57.5998 50.7152C57.2418 51.0348 56.7848 51.2905 56.2287 51.4822C55.679 51.6676 55.0398 51.7443 54.3111 51.7124C53.5057 51.6804 52.7802 51.4982 52.1346 51.1658C51.489 50.8335 50.9361 50.3732 50.4759 49.7852C50.022 49.1971 49.6737 48.5004 49.4308 47.695C49.1879 46.8896 49.0664 45.9947 49.0664 45.0103C49.0664 44.0643 49.2038 43.2173 49.4787 42.4695C49.7536 41.7152 50.1275 41.0664 50.6005 40.5231C51.0799 39.9734 51.6296 39.5387 52.2496 39.2191C52.8697 38.8995 53.5249 38.6982 54.2152 38.6151C54.8864 38.5384 55.5032 38.5575 56.0657 38.6726C56.6282 38.7876 57.0948 38.9634 57.4656 39.1999C57.8427 39.4364 58.0792 39.6953 58.1751 39.9766H58.2997V38.9027H60.6584V47.8004C60.6584 48.3054 60.7894 48.7337 61.0515 49.0852C61.32 49.4368 61.7003 49.6126 62.1925 49.6126C62.7741 49.6126 63.228 49.3984 63.554 48.9702C63.8864 48.5419 64.1197 47.8835 64.2539 46.995C64.3945 46.1065 64.4648 44.9687 64.4648 43.5817C64.4648 42.6101 64.3338 41.696 64.0717 40.8395C63.8161 39.9766 63.4357 39.1967 62.9308 38.5C62.4322 37.7969 61.8185 37.1928 61.0898 36.6879C60.3612 36.1829 59.5302 35.793 58.5969 35.5181C57.6701 35.2433 56.6442 35.1058 55.5192 35.1058C53.9915 35.1058 52.6332 35.3423 51.4442 35.8153C50.2553 36.282 49.2518 36.9563 48.4336 37.8384C47.6218 38.7205 47.005 39.7784 46.5831 41.0121C46.1676 42.2393 45.9599 43.6168 45.9599 45.1445C45.9599 46.7362 46.174 48.1488 46.6023 49.3825C47.0305 50.6097 47.6634 51.6452 48.5007 52.489C49.3381 53.3327 50.3736 53.9719 51.6072 54.4066C52.8409 54.8477 54.2631 55.0682 55.8739 55.0682C56.5898 55.0682 57.293 55.0043 57.9833 54.8764C58.6737 54.755 59.2873 54.6143 59.8242 54.4545C60.3675 54.3011 60.7734 54.1765 61.0419 54.0806L61.7131 56.1804C61.3168 56.3658 60.7894 56.5479 60.131 56.7269C59.479 56.9059 58.7695 57.0529 58.0025 57.168C57.2418 57.283 56.4908 57.3406 55.7493 57.3406ZM54.8672 49.3633C55.6982 49.3633 56.3661 49.1971 56.8711 48.8647C57.3825 48.5323 57.75 48.0369 57.9737 47.3786C58.2038 46.7138 58.3189 45.8828 58.3189 44.8857C58.3125 43.9141 58.1879 43.1406 57.945 42.5653C57.7085 41.9837 57.3377 41.5682 56.8327 41.3189C56.3342 41.0632 55.6918 40.9354 54.9055 40.9354C54.1832 40.9354 53.5664 41.1112 53.055 41.4627C52.5501 41.8143 52.1634 42.2905 51.8949 42.8913C51.6328 43.4922 51.4986 44.1602 51.4922 44.8952C51.4986 45.6687 51.6072 46.3974 51.8182 47.0813C52.0355 47.7589 52.3871 48.3086 52.8729 48.7305C53.3651 49.1523 54.0298 49.3633 54.8672 49.3633Z" fill="#3F8EF9"/>
<defs>
<filter id="filter0_d_174_1626" x="0" y="0" width="110" height="110" filterUnits="userSpaceOnUse" color-interpolation-filters="sRGB">
<feFlood flood-opacity="0" result="BackgroundImageFix"/>
<feColorMatrix in="SourceAlpha" type="matrix" values="0 0 0 0 0 0 0 0 0 0 0 0 0 0 0 0 0 0 127 0" result="hardAlpha"/>
<feMorphology radius="2" operator="erode" in="SourceAlpha" result="effect1_dropShadow_174_1626"/>
<feOffset dy="10"/>
<feGaussianBlur stdDeviation="11"/>
<feComposite in2="hardAlpha" operator="out"/>
<feColorMatrix type="matrix" values="0 0 0 0 0.427451 0 0 0 0 0.670588 0 0 0 0 1 0 0 0 0.36 0"/>
<feBlend mode="normal" in2="BackgroundImageFix" result="effect1_dropShadow_174_1626"/>
<feBlend mode="normal" in="SourceGraphic" in2="effect1_dropShadow_174_1626" result="shape"/>
</filter>
<linearGradient id="paint0_linear_174_1626" x1="20" y1="10" x2="90" y2="80" gradientUnits="userSpaceOnUse">
<stop stop-color="#5CA1FE"/>
<stop offset="1" stop-color="#217BF4"/>
</linearGradient>
</defs>
</svg>
