<svg width="110" height="110" viewBox="0 0 110 110" fill="none" xmlns="http://www.w3.org/2000/svg">
<g filter="url(#filter0_d_174_1601)">
<rect x="20" y="10" width="70" height="70" rx="20" fill="url(#paint0_linear_174_1601)"/>
</g>
<path d="M38.2812 37.7773V36.5273C38.2812 35.8398 38.8438 35.2773 39.5312 35.2773H43.2812C43.9687 35.2773 44.5312 35.8398 44.5312 36.5273V37.7773C44.5356 38.4723 43.9501 39.0262 43.2813 39.0274C43.2533 39.0114 39.0417 39.0695 39.2188 38.9836C38.6813 38.8461 38.2812 38.3586 38.2812 37.7773ZM39.5312 40.2773C39.425 40.2773 39.3187 40.2711 39.2188 40.2523V46.1086H43.5938V40.2523C43.5963 40.3018 39.6508 40.2684 39.5312 40.2773ZM41.4143 34.0283C41.7595 34.0283 42.0393 33.7485 42.0393 33.4033V32.7783C42.0393 32.0889 42.5999 31.5283 43.2893 31.5283H47.6643C48.6983 31.5283 49.5393 30.6873 49.5393 29.6533C49.5393 28.6194 48.6983 27.7783 47.6643 27.7783H43.9143C43.5692 27.7783 43.2893 28.0582 43.2893 28.4033C43.2893 28.7485 43.5692 29.0283 43.9143 29.0283H47.6643C48.0089 29.0283 48.2893 29.3088 48.2893 29.6533C48.2893 29.9979 48.0089 30.2783 47.6643 30.2783H43.2893C41.9109 30.2783 40.7893 31.3998 40.7893 32.7783V33.4033C40.7893 33.7485 41.0692 34.0283 41.4143 34.0283ZM72.5 43.6711V62.2211H64.6875V47.1398L72.5 43.6711ZM69.6 59.0023C69.6 59.0023 67.5875 59.0023 67.5875 59.0023C66.7661 59.0136 66.7663 60.237 67.5875 60.2523H69.6C70.4222 60.2369 70.4204 59.0135 69.6 59.0023ZM69.6 55.7773C69.6 55.7773 67.5875 55.7773 67.5875 55.7773C66.7661 55.793 66.7671 57.0118 67.5875 57.0273H69.6C70.4214 57.0116 70.4204 55.7929 69.6 55.7773ZM69.6 52.5523C69.6 52.5523 67.5875 52.5523 67.5875 52.5523C66.7653 52.5678 66.7671 53.7912 67.5875 53.8023H69.6C70.4214 53.791 70.4212 52.5677 69.6 52.5523ZM69.6 49.3336C69.6 49.3336 67.5875 49.3336 67.5875 49.3336C66.7661 49.3493 66.7671 50.568 67.5875 50.5836H69.6C70.4214 50.5679 70.4204 49.3492 69.6 49.3336ZM55.625 47.1398L63.4375 43.6711V62.2211H55.625V47.1398ZM58.525 50.5836C58.525 50.5836 60.5375 50.5836 60.5375 50.5836C61.3589 50.5679 61.3579 49.3492 60.5375 49.3336H58.525C57.7036 49.3493 57.7046 50.568 58.525 50.5836ZM58.525 53.8023C58.525 53.8023 60.5375 53.8023 60.5375 53.8023C61.3589 53.791 61.3587 52.5677 60.5375 52.5523H58.525C57.7028 52.5678 57.7046 53.7912 58.525 53.8023ZM58.525 57.0273C58.525 57.0273 60.5375 57.0273 60.5375 57.0273C61.3589 57.0116 61.3579 55.7929 60.5375 55.7773H58.525C57.7036 55.793 57.7046 57.0118 58.525 57.0273ZM58.525 60.2523C58.525 60.2523 60.5375 60.2523 60.5375 60.2523C61.3597 60.2369 61.3579 59.0135 60.5375 59.0023H58.525C57.7036 59.0136 57.7038 60.237 58.525 60.2523ZM46.5625 47.1398L54.375 43.6711V62.2211H46.5625V47.1398ZM49.4625 50.5836C49.4625 50.5836 51.475 50.5836 51.475 50.5836C52.2964 50.5679 52.2954 49.3492 51.475 49.3336H49.4625C48.6411 49.3493 48.6421 50.568 49.4625 50.5836ZM49.4625 53.8023C49.4625 53.8023 51.475 53.8023 51.475 53.8023C52.2964 53.791 52.2962 52.5677 51.475 52.5523H49.4625C48.6403 52.5678 48.6421 53.7911 49.4625 53.8023ZM49.4625 57.0273C49.4625 57.0273 51.475 57.0273 51.475 57.0273C52.2964 57.0116 52.2954 55.7929 51.475 55.7773H49.4625C48.6411 55.793 48.6421 57.0117 49.4625 57.0273ZM49.4625 60.2523C49.4625 60.2523 51.475 60.2523 51.475 60.2523C52.2972 60.2368 52.2954 59.0135 51.475 59.0023H49.4625C48.6411 59.0136 48.6413 60.237 49.4625 60.2523ZM45.3125 47.9836V62.2211H37.5V47.9836C37.5 47.6384 37.7798 47.3586 38.125 47.3586H44.6875C45.0327 47.3586 45.3125 47.6384 45.3125 47.9836ZM43.875 56.1336C43.875 55.7898 43.6 55.5086 43.25 55.5086H39.5625C39.2125 55.5086 38.9375 55.7898 38.9375 56.1336V60.1586C38.9375 60.5086 39.2125 60.7836 39.5625 60.7836H43.25C43.6 60.7836 43.875 60.5086 43.875 60.1586V56.1336ZM43.875 49.4211C43.875 49.0773 43.6 48.7961 43.25 48.7961H39.5625C39.2125 48.7961 38.9375 49.0773 38.9375 49.4211V53.4461C38.9375 53.7961 39.2125 54.0711 39.5625 54.0711H43.25C43.6 54.0711 43.875 53.7961 43.875 53.4461V49.4211ZM40.1875 59.5336H42.625V56.7586H40.1875V59.5336ZM40.1875 52.8211H42.625V50.0461H40.1875V52.8211Z" fill="white"/>
<defs>
<filter id="filter0_d_174_1601" x="0" y="0" width="110" height="110" filterUnits="userSpaceOnUse" color-interpolation-filters="sRGB">
<feFlood flood-opacity="0" result="BackgroundImageFix"/>
<feColorMatrix in="SourceAlpha" type="matrix" values="0 0 0 0 0 0 0 0 0 0 0 0 0 0 0 0 0 0 127 0" result="hardAlpha"/>
<feMorphology radius="2" operator="erode" in="SourceAlpha" result="effect1_dropShadow_174_1601"/>
<feOffset dy="10"/>
<feGaussianBlur stdDeviation="11"/>
<feComposite in2="hardAlpha" operator="out"/>
<feColorMatrix type="matrix" values="0 0 0 0 0.427451 0 0 0 0 0.670588 0 0 0 0 1 0 0 0 0.36 0"/>
<feBlend mode="normal" in2="BackgroundImageFix" result="effect1_dropShadow_174_1601"/>
<feBlend mode="normal" in="SourceGraphic" in2="effect1_dropShadow_174_1601" result="shape"/>
</filter>
<linearGradient id="paint0_linear_174_1601" x1="20" y1="10" x2="90" y2="80" gradientUnits="userSpaceOnUse">
<stop stop-color="#5CA1FE"/>
<stop offset="1" stop-color="#217BF4"/>
</linearGradient>
</defs>
</svg>
