<svg width="110" height="110" viewBox="0 0 110 110" fill="none" xmlns="http://www.w3.org/2000/svg">
<g filter="url(#filter0_d_174_1579)">
<rect x="20" y="10" width="70" height="70" rx="20" fill="url(#paint0_linear_174_1579)"/>
</g>
<path fill-rule="evenodd" clip-rule="evenodd" d="M52.0812 35.0826H58.3647V36.8796H52.0812V35.0826ZM51.6312 37.774H60.1605V51.994C58.619 52.7316 56.9318 53.1144 55.2229 53.1144C53.514 53.1144 51.8268 52.7316 50.2853 51.994V37.774H51.6312ZM54.7714 50.7847V46.298C54.7715 46.2388 54.7598 46.1802 54.7372 46.1255C54.7146 46.0709 54.6814 46.0212 54.6395 45.9793C54.5977 45.9375 54.548 45.9043 54.4933 45.8816C54.4386 45.859 54.38 45.8474 54.3208 45.8474H52.0797C51.9605 45.8477 51.8464 45.8953 51.7622 45.9796C51.678 46.064 51.6307 46.1783 51.6306 46.2974V50.7847C51.6306 50.8439 51.6422 50.9026 51.6648 50.9573C51.6874 51.012 51.7206 51.0617 51.7625 51.1035C51.8043 51.1454 51.854 51.1786 51.9087 51.2013C51.9634 51.224 52.022 51.2356 52.0812 51.2356H54.3223C54.3815 51.2356 54.4401 51.224 54.4948 51.2013C54.5495 51.1786 54.5992 51.1454 54.641 51.1035C54.6829 51.0617 54.7161 51.012 54.7387 50.9573C54.7613 50.9026 54.773 50.8439 54.7729 50.7847H54.7714ZM54.7714 44.5019V40.0146C54.7715 39.9554 54.7598 39.8967 54.7372 39.842C54.7146 39.7873 54.6814 39.7376 54.6396 39.6957C54.5977 39.6539 54.548 39.6207 54.4933 39.598C54.4387 39.5753 54.38 39.5637 54.3208 39.5637H52.0812C52.022 39.5636 51.9634 39.5752 51.9088 39.5979C51.8541 39.6205 51.8044 39.6536 51.7626 39.6954C51.7207 39.7373 51.6875 39.7869 51.6649 39.8416C51.6423 39.8962 51.6306 39.9548 51.6306 40.014V44.5016C51.6306 44.5607 51.6422 44.6194 51.6648 44.674C51.6874 44.7287 51.7206 44.7784 51.7625 44.8203C51.8043 44.8621 51.854 44.8953 51.9087 44.9179C51.9634 44.9406 52.022 44.9522 52.0812 44.9522H54.3223C54.3815 44.9522 54.4401 44.9405 54.4948 44.9178C54.5495 44.8952 54.5992 44.8619 54.641 44.8201C54.6829 44.7782 54.7161 44.7285 54.7387 44.6738C54.7613 44.6191 54.773 44.5605 54.7729 44.5013L54.7714 44.5019ZM58.8153 50.7847V46.298C58.8153 46.2388 58.8037 46.1802 58.781 46.1255C58.7584 46.0709 58.7252 46.0212 58.6834 45.9793C58.6415 45.9375 58.5918 45.9043 58.5371 45.8816C58.4825 45.859 58.4238 45.8474 58.3647 45.8474H56.1244C56.0652 45.8474 56.0066 45.859 55.9519 45.8816C55.8972 45.9043 55.8475 45.9374 55.8056 45.9793C55.7637 46.0211 55.7305 46.0708 55.7078 46.1255C55.6852 46.1802 55.6735 46.2388 55.6735 46.298V50.7847C55.6735 50.844 55.6851 50.9026 55.7078 50.9573C55.7304 51.012 55.7636 51.0618 55.8055 51.1036C55.8474 51.1455 55.8971 51.1787 55.9518 51.2014C56.0065 51.224 56.0652 51.2357 56.1244 51.2356H58.3647C58.4239 51.2356 58.4825 51.224 58.5372 51.2013C58.5919 51.1786 58.6415 51.1454 58.6834 51.1035C58.7252 51.0617 58.7584 51.012 58.781 50.9573C58.8037 50.9026 58.8153 50.8439 58.8153 50.7847ZM58.8153 40.0146C58.8153 39.9554 58.8037 39.8967 58.781 39.842C58.7584 39.7873 58.7252 39.7376 58.6834 39.6957C58.6415 39.6539 58.5919 39.6207 58.5372 39.598C58.4825 39.5753 58.4239 39.5637 58.3647 39.5637H56.1244C56.0652 39.5636 56.0066 39.5752 55.9519 39.5979C55.8972 39.6205 55.8475 39.6537 55.8056 39.6955C55.7637 39.7374 55.7305 39.7871 55.7078 39.8418C55.6852 39.8964 55.6735 39.9551 55.6735 40.0143V44.5016C55.6735 44.5608 55.6852 44.6194 55.7078 44.6741C55.7305 44.7288 55.7637 44.7784 55.8056 44.8203C55.8475 44.8621 55.8972 44.8953 55.9519 44.9179C56.0066 44.9406 56.0652 44.9522 56.1244 44.9522H58.3647C58.4239 44.9522 58.4825 44.9405 58.5372 44.9178C58.5919 44.8952 58.6415 44.8619 58.6834 44.8201C58.7252 44.7782 58.7584 44.7285 58.781 44.6738C58.8037 44.6191 58.8153 44.5605 58.8153 44.5013V40.0146ZM52.5318 50.3404H53.8777V46.748H52.5318V50.3404ZM52.5318 44.0569H53.8777V40.4643H52.5318V44.0569ZM61.0558 51.5144C62.0597 50.918 62.9671 50.1725 63.7469 49.3035V44.8156L61.0558 43.8083V51.5144ZM56.5688 44.0569H57.9147V40.4643H56.5688V44.0569ZM55.2229 25C59.6376 25.0045 63.8701 26.7603 66.9918 29.8819C70.1134 33.0035 71.8691 37.2361 71.8737 41.6507C71.8737 50.0856 57.4638 63.0379 55.2244 65C52.9815 63.0385 38.5722 50.0924 38.5722 41.6507C38.577 37.2362 40.3329 33.0038 43.4544 29.8823C46.576 26.7607 50.8084 25.0049 55.2229 25ZM67.5822 41.6507C67.5822 39.2063 66.8574 36.8167 65.4994 34.7842C64.1414 32.7517 62.2112 31.1676 59.9528 30.2321C57.6945 29.2966 55.2094 29.0518 52.8119 29.5286C50.4145 30.0055 48.2122 31.1826 46.4837 32.911C44.7552 34.6395 43.5781 36.8417 43.1012 39.2392C42.6243 41.6366 42.869 44.1217 43.8044 46.3801C44.7399 48.6384 46.324 50.5687 48.3565 51.9268C50.3889 53.2848 52.7785 54.0097 55.2229 54.0097C58.4998 54.0066 61.6416 52.7036 63.9588 50.3865C66.2759 48.0694 67.579 44.9276 67.5822 41.6507ZM43.1069 60.2099C43.1069 59.6777 42.9491 59.1574 42.6533 58.7148C42.3576 58.2723 41.9373 57.9273 41.4456 57.7236C40.9539 57.52 40.4128 57.4667 39.8907 57.5705C39.3687 57.6743 38.8892 57.9306 38.5128 58.307C38.1365 58.6834 37.8802 59.1629 37.7763 59.6849C37.6725 60.2069 37.7258 60.748 37.9295 61.2398C38.1331 61.7315 38.4781 62.1518 38.9206 62.4475C39.3632 62.7432 39.8835 62.9011 40.4157 62.9011C40.7692 62.9011 41.1191 62.8315 41.4456 62.6963C41.7722 62.5611 42.0689 62.3628 42.3188 62.1129C42.5687 61.863 42.7669 61.5663 42.9021 61.2398C43.0373 60.9133 43.1069 60.5633 43.1069 60.2099ZM72.2769 58.4141C72.2769 58.0589 72.1715 57.7117 71.9742 57.4163C71.7769 57.121 71.4964 56.8908 71.1682 56.7549C70.8401 56.619 70.479 56.5834 70.1306 56.6527C69.7823 56.722 69.4623 56.893 69.2111 57.1442C68.96 57.3953 68.7889 57.7153 68.7196 58.0637C68.6503 58.4121 68.6859 58.7732 68.8218 59.1013C68.9578 59.4295 69.1879 59.7099 69.4833 59.9073C69.7786 60.1046 70.1258 60.2099 70.481 60.2099C70.9573 60.2099 71.414 60.0206 71.7508 59.6838C72.0876 59.3471 72.2768 58.8903 72.2769 58.4141ZM46.6992 49.3032C47.4789 50.1724 48.3862 50.918 49.3901 51.5144V43.808L46.6992 44.8153V49.3032ZM56.5688 50.3401H57.9147V46.748H56.5688V50.3401Z" fill="white"/>
<defs>
<filter id="filter0_d_174_1579" x="0" y="0" width="110" height="110" filterUnits="userSpaceOnUse" color-interpolation-filters="sRGB">
<feFlood flood-opacity="0" result="BackgroundImageFix"/>
<feColorMatrix in="SourceAlpha" type="matrix" values="0 0 0 0 0 0 0 0 0 0 0 0 0 0 0 0 0 0 127 0" result="hardAlpha"/>
<feMorphology radius="2" operator="erode" in="SourceAlpha" result="effect1_dropShadow_174_1579"/>
<feOffset dy="10"/>
<feGaussianBlur stdDeviation="11"/>
<feComposite in2="hardAlpha" operator="out"/>
<feColorMatrix type="matrix" values="0 0 0 0 0.427451 0 0 0 0 0.670588 0 0 0 0 1 0 0 0 0.36 0"/>
<feBlend mode="normal" in2="BackgroundImageFix" result="effect1_dropShadow_174_1579"/>
<feBlend mode="normal" in="SourceGraphic" in2="effect1_dropShadow_174_1579" result="shape"/>
</filter>
<linearGradient id="paint0_linear_174_1579" x1="20" y1="10" x2="90" y2="80" gradientUnits="userSpaceOnUse">
<stop stop-color="#5CA1FE"/>
<stop offset="1" stop-color="#217BF4"/>
</linearGradient>
</defs>
</svg>
