<svg width="50" height="50" viewBox="0 0 50 50" fill="none" xmlns="http://www.w3.org/2000/svg">
<rect width="50" height="50" rx="14" fill="#C1E4FF"/>
<path d="M39.9999 24.9959C40.0023 27.9125 39.1536 30.7665 37.558 33.2082C35.9623 35.6498 33.689 37.5731 31.0165 38.7423C28.3439 39.9116 25.3883 40.276 22.5118 39.791C19.6352 39.306 16.9626 37.9926 14.8214 36.0117L14.9589 37.7234C14.9638 37.7849 14.9566 37.8467 14.9376 37.9054C14.9186 37.964 14.8883 38.0184 14.8483 38.0654C14.8083 38.1123 14.7595 38.1509 14.7045 38.179C14.6496 38.2071 14.5897 38.2241 14.5282 38.229C14.5155 38.2301 14.5028 38.2305 14.4901 38.2305C14.3721 38.2304 14.2585 38.1859 14.1719 38.1058C14.0852 38.0258 14.0319 37.916 14.0225 37.7985L13.7845 34.8337C13.7791 34.7659 13.7884 34.6977 13.8119 34.6339C13.8354 34.5701 13.8725 34.5121 13.9205 34.464C13.9686 34.416 14.0266 34.3789 14.0904 34.3554C14.1543 34.3319 14.2224 34.3226 14.2902 34.328L17.2557 34.5659C17.3172 34.5708 17.3771 34.5878 17.432 34.6159C17.4869 34.644 17.5357 34.6826 17.5757 34.7296C17.6157 34.7765 17.6461 34.8309 17.665 34.8896C17.684 34.9482 17.6912 35.0101 17.6863 35.0716C17.6813 35.133 17.6644 35.1929 17.6363 35.2478C17.6082 35.3027 17.5696 35.3516 17.5226 35.3915C17.4756 35.4315 17.4212 35.4619 17.3626 35.4808C17.3039 35.4998 17.242 35.507 17.1805 35.5021L15.512 35.3682C18.1057 37.7343 21.4886 39.0485 24.9998 39.0541C32.7529 39.0541 39.0606 32.7476 39.0606 24.9959C39.0642 22.2831 38.2798 19.6277 36.8026 17.3522C36.7361 17.2478 36.7136 17.1213 36.74 17.0004C36.7663 16.8794 36.8393 16.7737 36.9432 16.7063C37.047 16.6389 37.1733 16.6153 37.2945 16.6405C37.4157 16.6657 37.5221 16.7377 37.5904 16.8409C39.1667 19.2685 40.0037 22.1016 39.9999 24.9959ZM10.9389 24.9959C10.9389 17.2442 17.2466 10.9377 24.9998 10.9377C28.5113 10.9432 31.8946 12.2575 34.4887 14.6239L32.819 14.49C32.7575 14.4851 32.6957 14.4923 32.637 14.5113C32.5783 14.5303 32.5239 14.5606 32.4769 14.6006C32.3821 14.6813 32.3232 14.7964 32.3132 14.9206C32.3033 15.0447 32.343 15.1677 32.4238 15.2626C32.5045 15.3574 32.6197 15.4163 32.7438 15.4262L35.7093 15.6641C35.7219 15.665 35.7344 15.6655 35.7469 15.6655C35.8118 15.6655 35.8759 15.6521 35.9353 15.6261C35.9947 15.6001 36.048 15.562 36.092 15.5144C36.136 15.4668 36.1696 15.4105 36.1908 15.3493C36.2119 15.288 36.2202 15.223 36.215 15.1584L35.9771 12.1936C35.9721 12.1321 35.9551 12.0722 35.9271 12.0173C35.899 11.9624 35.8603 11.9136 35.8134 11.8736C35.7664 11.8336 35.712 11.8033 35.6533 11.7843C35.5947 11.7653 35.5328 11.7581 35.4713 11.763C35.4098 11.7679 35.3499 11.7849 35.295 11.813C35.2401 11.8411 35.1912 11.8797 35.1512 11.9267C35.0705 12.0215 35.0307 12.1445 35.0407 12.2687L35.178 13.9793C32.4935 11.5007 28.9965 10.0871 25.3435 10.0037C21.6904 9.92025 18.1325 11.1728 15.3377 13.5262C12.5428 15.8796 10.7032 19.172 10.1641 22.7853C9.62506 26.3987 10.4236 30.0845 12.41 33.1509C12.4783 33.2541 12.5847 33.3262 12.7059 33.3514C12.8271 33.3766 12.9534 33.3529 13.0572 33.2855C13.1611 33.2181 13.2341 33.1124 13.2604 32.9915C13.2868 32.8705 13.2643 32.7441 13.1978 32.6396C11.7203 30.3642 10.9355 27.7088 10.9389 24.9959ZM32.8914 18.9229V31.0689C32.8914 31.697 32.4589 32.5918 30.3983 33.2887C28.9493 33.7788 27.032 34.0488 24.9998 34.0488C22.9675 34.0488 21.0502 33.7788 19.6012 33.2887C17.5405 32.5918 17.1081 31.6969 17.1081 31.0689V18.9229C17.1081 18.2948 17.5407 17.3999 19.6012 16.7031C21.0502 16.2129 22.9675 15.943 24.9998 15.943C27.032 15.943 28.9493 16.213 30.3983 16.7031C32.4589 17.3999 32.8914 18.2948 32.8914 18.9229ZM31.952 31.0689V28.4996C31.5833 28.7569 31.0805 29.0094 30.3983 29.2401C28.9493 29.7301 27.032 30.0001 24.9998 30.0001C22.9675 30.0001 21.0502 29.7301 19.6012 29.2401C18.919 29.0094 18.4162 28.7569 18.0475 28.4996V31.0689C18.0475 31.3931 18.5332 31.936 19.9022 32.3991C21.2568 32.8573 23.0672 33.1096 24.9998 33.1096C26.9323 33.1096 28.7427 32.8572 30.0973 32.3991C31.4663 31.936 31.952 31.3931 31.952 31.0689ZM31.952 27.0202V24.451C31.5833 24.7082 31.0805 24.9607 30.3983 25.1914C28.9493 25.6815 27.032 25.9514 24.9998 25.9514C22.9675 25.9514 21.0502 25.6814 19.6012 25.1914C18.919 24.9607 18.4162 24.7082 18.0475 24.451V27.0202C18.0475 27.3445 18.5332 27.8875 19.9022 28.3504C21.2568 28.8086 23.0671 29.0607 24.9998 29.0607C26.9324 29.0607 28.7428 28.8083 30.0973 28.3504C31.4663 27.8875 31.952 27.3445 31.952 27.0202ZM31.952 22.9716V20.4023C31.5833 20.6596 31.0805 20.912 30.3983 21.1427C28.9493 21.6328 27.032 21.9025 24.9998 21.9025C22.9675 21.9025 21.0502 21.6325 19.6012 21.1425C18.919 20.9118 18.4162 20.6593 18.0475 20.402V22.9713C18.0475 23.2956 18.5332 23.8385 19.9022 24.3015C21.2568 24.7594 23.0671 25.0118 24.9998 25.0118C26.9324 25.0118 28.7428 24.7594 30.0973 24.3015C31.4663 23.8388 31.952 23.2958 31.952 22.9716ZM31.952 18.9229C31.952 18.5986 31.4663 18.0557 30.0973 17.5927C28.7427 17.1345 26.9323 16.8822 24.9998 16.8822C23.0672 16.8822 21.2568 17.1346 19.9022 17.5927C18.5332 18.0557 18.0475 18.5986 18.0475 18.9229C18.0475 19.2471 18.5332 19.7901 19.9022 20.2531C21.2568 20.7112 23.0671 20.9633 24.9997 20.9633C26.9323 20.9633 28.7427 20.7109 30.0973 20.2531C31.4663 19.7901 31.952 19.2471 31.952 18.9229ZM25.574 22.9879H24.4255C24.301 22.9879 24.1815 23.0374 24.0934 23.1254C24.0053 23.2135 23.9559 23.3329 23.9559 23.4575C23.9559 23.582 24.0053 23.7014 24.0934 23.7895C24.1815 23.8776 24.301 23.927 24.4255 23.927H25.574C25.6986 23.927 25.818 23.8776 25.9061 23.7895C25.9942 23.7014 26.0437 23.582 26.0437 23.4575C26.0437 23.3329 25.9942 23.2135 25.9061 23.1254C25.818 23.0374 25.6986 22.9879 25.574 22.9879ZM25.574 27.0366H24.4255C24.301 27.0366 24.1815 27.0861 24.0934 27.1741C24.0053 27.2622 23.9559 27.3816 23.9559 27.5062C23.9559 27.6307 24.0053 27.7501 24.0934 27.8382C24.1815 27.9263 24.301 27.9757 24.4255 27.9757H25.574C25.6986 27.9757 25.818 27.9263 25.9061 27.8382C25.9942 27.7501 26.0437 27.6307 26.0437 27.5062C26.0437 27.3816 25.9942 27.2622 25.9061 27.1741C25.818 27.0861 25.6986 27.0366 25.574 27.0366ZM25.574 31.0852H24.4255C24.301 31.0852 24.1815 31.1346 24.0934 31.2227C24.0053 31.3108 23.9559 31.4302 23.9559 31.5547C23.9559 31.6793 24.0053 31.7987 24.0934 31.8868C24.1815 31.9749 24.301 32.0243 24.4255 32.0243H25.574C25.6986 32.0243 25.818 31.9749 25.9061 31.8868C25.9942 31.7987 26.0437 31.6793 26.0437 31.5547C26.0437 31.4302 25.9942 31.3108 25.9061 31.2227C25.818 31.1346 25.6986 31.0852 25.574 31.0852Z" fill="#004DFF"/>
</svg>
